<svg width="211" height="75" viewBox="0 0 211 75" fill="none" xmlns="http://www.w3.org/2000/svg">
<path fill-rule="evenodd" clip-rule="evenodd" d="M6.93273 7.04687C3.07858 10.8937 -0.0409232 14.075 0.000405978 14.1164C0.0418416 14.1577 2.05557 14.1915 4.47525 14.1915H8.87478L8.90897 27.1346C8.94316 40.0553 8.94359 40.0795 9.1791 41.1064C10.7794 48.0848 15.7713 53.3339 22.4506 55.0621C26.2045 56.0333 30.1602 55.7739 33.8198 54.3167C34.325 54.1155 34.7684 53.9509 34.8051 53.9509C34.8417 53.9509 34.8718 55.5051 34.8718 57.4048V60.8586L30.3977 60.8864L25.9236 60.9141L32.9811 67.9571L40.0386 75L47.1214 67.9305L54.2042 60.861H49.7041H45.2041V57.4059C45.2041 55.5057 45.2341 53.9509 45.2707 53.9509C45.3074 53.9509 45.7508 54.1155 46.256 54.3167C48.66 55.2739 50.3463 55.5889 53.0864 55.5922C54.8307 55.5943 55.357 55.556 56.3708 55.3526C64.0609 53.8102 69.6738 48.0881 70.9898 40.4497C71.1916 39.2786 71.2002 38.7076 71.1962 26.881C71.1938 20.0906 71.2216 14.4575 71.2579 14.3631C71.3172 14.2091 71.7733 14.1915 75.733 14.1915C78.158 14.1915 80.1421 14.1555 80.1421 14.1115C80.1421 14.0675 76.9785 10.8744 73.1119 7.01572L66.0817 0L59.0515 7.01572C55.1848 10.8744 52.0212 14.0675 52.0212 14.1115C52.0212 14.1555 54.0105 14.1915 56.4418 14.1915H60.8623V17.648V21.1045L60.4628 20.9277C59.3956 20.4555 57.2692 19.8073 56.1222 19.6048C54.4745 19.3138 51.8068 19.288 50.3169 19.5486C48.5259 19.862 46.9303 20.3478 45.3372 21.0645C45.2314 21.112 45.2041 19.6798 45.2041 14.0966V7.06888H40.0379H34.8718V14.0866V21.1045L34.4723 20.9269C33.4565 20.4752 31.2361 19.8009 30.103 19.5999C28.3502 19.2888 25.7259 19.2906 23.9536 19.6043C22.8064 19.8073 20.6791 20.4559 19.613 20.9277L19.2136 21.1045V17.648V14.1915H23.7136H28.2137L21.1309 7.12203C17.2353 3.2338 14.0238 0.0525164 13.9942 0.0525164C13.9645 0.0525164 10.7869 3.19999 6.93273 7.04687ZM161.459 16.783C161.428 16.8635 161.418 17.1625 161.436 17.4475L161.469 17.9655L163.413 17.9945L165.357 18.0234V17.3301V16.6366H163.436C161.903 16.6366 161.504 16.6662 161.459 16.783ZM104.678 19.0773C103.876 19.2679 103.27 19.8571 103.045 20.6638C102.904 21.1725 102.904 28.047 103.045 28.5557C103.209 29.1455 103.589 29.6324 104.113 29.9243C104.554 30.17 104.692 30.1893 106.026 30.1899C107.644 30.1908 108.008 30.0832 108.577 29.4364C109.132 28.8062 109.168 28.5045 109.168 24.5566C109.168 21.3243 109.148 20.8894 108.976 20.444C108.712 19.7631 108.111 19.2415 107.418 19.0932C106.807 18.9625 105.2 18.9531 104.678 19.0773ZM112.107 19.0842C111.462 19.2196 110.89 19.6224 110.662 20.1023C110.384 20.6867 110.297 21.7048 110.293 24.3972C110.289 28.5165 110.487 29.416 111.511 29.9222C111.982 30.155 112.169 30.1834 113.162 30.1713C113.979 30.1613 114.476 30.0964 115 29.9308C115.759 29.6915 115.79 29.6466 115.603 29.064C115.54 28.8653 115.471 28.6483 115.452 28.5819C115.426 28.4967 115.202 28.5202 114.691 28.6616C113.887 28.884 112.57 28.9271 112.168 28.7441C112.025 28.6792 111.855 28.5095 111.79 28.367C111.64 28.0396 111.626 21.3424 111.773 20.9541C111.937 20.5243 112.399 20.3574 113.423 20.3574C114.061 20.3574 114.492 20.4181 114.869 20.5609L115.405 20.7644L115.669 20.2448L115.933 19.725L115.691 19.5669C114.973 19.0973 113.189 18.857 112.107 19.0842ZM125.406 19.1136C124.718 19.3087 124.297 19.6434 124.01 20.2253C123.763 20.7258 123.761 20.7583 123.761 24.6098C123.761 28.8895 123.763 28.9004 124.45 29.5864C124.936 30.0713 125.408 30.1899 126.85 30.1899C128.295 30.1899 128.729 30.0798 129.236 29.5849C129.94 28.8974 129.939 28.9042 129.939 24.6069V20.7237L129.667 20.1961C129.477 19.8272 129.245 19.5754 128.895 19.3598C128.431 19.0734 128.306 19.0487 127.144 19.0136C126.329 18.989 125.722 19.024 125.406 19.1136ZM140.466 19.0798C139.874 19.2055 139.432 19.4431 139.169 19.7773C138.703 20.3676 138.674 20.6494 138.674 24.5035C138.674 28.6899 138.732 29.0959 139.417 29.6961C139.878 30.0998 140.317 30.1961 141.593 30.1725C142.546 30.1549 144.053 29.8117 144.053 29.6122C144.053 29.5717 143.981 29.2943 143.892 28.9957L143.73 28.4529L143.013 28.6575C142.129 28.9098 140.691 28.9362 140.362 28.7061C139.975 28.4355 139.899 27.7718 139.905 24.7487C139.915 20.4476 139.92 20.4333 141.529 20.3746C142.296 20.3465 142.65 20.3844 143.129 20.546L143.745 20.7534L144.002 20.2466L144.26 19.7397L144.023 19.5891C143.238 19.0886 141.558 18.8482 140.466 19.0798ZM173.427 19.0784C173.15 19.1288 172.678 19.251 172.38 19.35C171.795 19.5438 171.787 19.5682 172.07 20.3116C172.162 20.5527 172.22 20.5836 172.469 20.5217C172.629 20.4819 173.359 20.4233 174.092 20.3917C175.318 20.3385 175.444 20.351 175.689 20.5489C175.942 20.7531 175.955 20.8192 175.955 21.863C175.955 22.4674 175.918 23.0949 175.873 23.2574C175.764 23.6446 175.328 23.8279 174.251 23.9379L173.399 24.0251L173.367 24.5832L173.335 25.1413L174.112 25.142C175.082 25.1427 175.647 25.2938 175.819 25.5978C175.904 25.7476 175.952 26.2868 175.954 27.0903C175.955 28.3377 175.953 28.3503 175.657 28.6052C175.386 28.8381 175.263 28.8621 174.341 28.8621C173.765 28.8621 173.045 28.7902 172.684 28.6967C172.332 28.6057 172.025 28.5498 172.003 28.5723C171.98 28.5949 171.894 28.8375 171.812 29.1114C171.639 29.6842 171.615 29.6576 172.6 29.9855C173.232 30.196 175.074 30.2647 175.825 30.106C176.419 29.9804 176.935 29.4754 177.126 28.8328C177.315 28.1985 177.344 26.1484 177.173 25.5343C177.111 25.3119 176.929 24.9832 176.769 24.8039L176.477 24.4778L176.765 24.19C177.166 23.7899 177.286 23.2564 177.282 21.8989C177.276 20.223 177.041 19.6754 176.157 19.2807C175.645 19.0518 174.174 18.9428 173.427 19.0784ZM194.969 19.068C194.071 19.2655 193.58 19.722 193.318 20.604C193.085 21.386 193.085 27.8336 193.318 28.6156C193.519 29.2926 193.806 29.6568 194.367 29.9493C194.747 30.1478 194.989 30.181 196.087 30.1857C197.697 30.1924 198.076 30.1107 198.591 29.6467C199.359 28.9539 199.389 28.7623 199.389 24.6098C199.389 21.7943 199.356 20.8474 199.245 20.5343C199.055 19.998 198.526 19.4078 198.06 19.2114C197.636 19.0332 195.565 18.937 194.969 19.068ZM92.9243 24.5566V30.0315H93.6154H94.3066L94.3344 25.8589L94.3623 21.6863L95.5235 25.8323C96.162 28.1126 96.6979 29.9949 96.7142 30.0152C96.7581 30.0695 97.8395 30.0516 97.8955 29.9957C97.9219 29.9694 98.4701 28.0669 99.1136 25.768C99.7571 23.469 100.306 21.5663 100.332 21.5397C100.359 21.5131 100.381 23.4085 100.381 25.7516V30.0118L100.976 30.0482C101.303 30.0683 101.59 30.0648 101.615 30.0403C101.639 30.016 101.659 27.5404 101.659 24.5389V19.0817H100.697C99.7971 19.0817 99.7287 19.0973 99.6433 19.3209C99.5931 19.4525 99.0572 21.2699 98.4526 23.3595C97.8479 25.4492 97.322 27.1235 97.2841 27.0803C97.2461 27.0371 96.7262 25.3034 96.1286 23.2278C95.531 21.1521 95.0177 19.3701 94.988 19.2678C94.9414 19.1076 94.7943 19.0817 93.9291 19.0817H92.9243V24.5566ZM117.104 24.5566V30.0315H117.743H118.382V27.5333C118.382 25.4117 118.406 25.035 118.538 25.035C118.624 25.035 119.488 26.146 120.458 27.504C121.429 28.862 122.281 29.9989 122.353 30.0304C122.424 30.062 122.777 30.0632 123.136 30.0331L123.789 29.9784L121.837 27.2675C120.763 25.7765 119.882 24.5063 119.879 24.445C119.876 24.3836 120.62 23.2354 121.532 21.8936C122.445 20.5517 123.237 19.3701 123.294 19.2678C123.387 19.0987 123.329 19.0817 122.668 19.0817H121.941L120.314 21.4205C119.419 22.7069 118.619 23.7593 118.535 23.7593C118.407 23.7593 118.382 23.3788 118.382 21.4205V19.0817H117.743H117.104V24.5566ZM131.297 24.5629L131.324 30.0643L133.721 30.0442C135.966 30.0253 136.147 30.0091 136.587 29.7873C137.195 29.4806 137.445 28.9978 137.574 27.8754C137.752 26.3374 137.533 25.0294 137.012 24.5091C136.833 24.3306 136.73 24.1845 136.782 24.1845C136.834 24.1845 136.994 23.9813 137.137 23.7327C137.376 23.3154 137.396 23.1716 137.396 21.8458C137.396 20.1514 137.276 19.7972 136.566 19.3915C136.134 19.1445 136.027 19.1335 133.693 19.0982L131.269 19.0615L131.297 24.5629ZM145.402 19.1526C145.363 19.1916 145.331 21.6553 145.331 24.6275V30.0315H146.024H146.716V27.5333C146.716 25.5243 146.744 25.035 146.858 25.035C146.936 25.035 147.803 26.1592 148.785 27.5333C150.163 29.4603 150.623 30.0319 150.801 30.0334C150.927 30.0345 151.653 30.0631 152.415 30.097C153.492 30.1449 153.837 30.1269 153.969 30.0153C154.062 29.9366 154.824 28.0781 155.662 25.8855C156.499 23.6929 157.248 21.7793 157.325 21.6331C157.444 21.4091 157.467 22.0575 157.47 25.7612L157.474 30.155L158.087 30.1137L158.699 30.0723L158.727 24.577L158.755 19.0817H157.821H156.888L156.423 20.3309C155.924 21.6716 153.737 27.2874 153.577 27.6396C153.516 27.7722 153.47 26.2034 153.452 23.467L153.424 19.0817H152.787H152.15L152.123 24.5241L152.095 29.9663L150.345 27.5273C149.382 26.1858 148.484 24.941 148.349 24.7613L148.104 24.4344L149.768 21.9972C150.683 20.6568 151.503 19.4525 151.59 19.3209L151.747 19.0817H150.998H150.249L148.624 21.4205C147.73 22.7069 146.935 23.7593 146.857 23.7593C146.744 23.7593 146.716 23.2911 146.716 21.4205V19.0817H146.095C145.753 19.0817 145.441 19.1136 145.402 19.1526ZM160.137 24.6139V30.1461L161.066 30.1154L161.995 30.0847L162.184 29.6063C162.287 29.3432 163.022 27.4572 163.816 25.4154C164.61 23.3734 165.305 21.6273 165.359 21.5351C165.42 21.4306 165.458 23.0196 165.46 25.7471L165.463 30.1268L166.102 30.1237L166.742 30.1206V24.6012V19.0817H165.803H164.865L163.286 23.2012C162.417 25.4669 161.643 27.4402 161.566 27.5864C161.446 27.8111 161.424 27.1747 161.42 23.467L161.416 19.0817H160.777H160.137V24.6139ZM180.733 19.3741C180.693 19.5348 180.074 21.9866 179.357 24.8224C178.641 27.6582 178.077 30.0142 178.103 30.0581C178.13 30.102 178.436 30.1378 178.782 30.1378C179.349 30.1378 179.419 30.1135 179.469 29.8986C179.499 29.767 179.608 29.2528 179.711 28.7558L179.897 27.8522L181.625 27.8229C183.346 27.7939 183.353 27.7948 183.409 28.0356C183.44 28.1686 183.549 28.684 183.652 29.181L183.838 30.0847L184.504 30.1163C184.87 30.1337 185.17 30.1098 185.171 30.0632C185.172 30.0165 184.564 27.5267 183.821 24.53L182.468 19.0817H181.637C180.819 19.0817 180.805 19.0863 180.733 19.3741ZM185.755 19.2044C185.724 19.2831 185.712 21.7634 185.727 24.7161L185.755 30.0847H187.992C189.222 30.0847 190.41 30.0464 190.631 29.9997C190.852 29.9529 191.199 29.769 191.402 29.5911C191.915 29.1412 192.093 28.4748 192.093 27.0017C192.093 25.6113 191.905 24.8347 191.489 24.5084C191.235 24.3087 191.224 24.2722 191.372 24.1039C191.824 23.5899 191.92 23.2035 191.923 21.8961C191.925 20.7482 191.899 20.5638 191.663 20.0889C191.225 19.2069 190.999 19.1424 188.179 19.0983C186.265 19.0683 185.799 19.0888 185.755 19.2044ZM203.013 19.2102C202.986 19.2856 202.481 21.285 201.891 23.653C201.3 26.021 200.77 28.1379 200.712 28.3571C200.61 28.7425 200.59 28.7558 200.131 28.7558H199.656V29.4468V30.1378H203.863H208.071V29.4468V28.7558H207.603H207.135L206.957 28.0382C206.859 27.6436 206.315 25.4788 205.747 23.2278L204.715 19.1349L203.888 19.1038C203.286 19.0812 203.048 19.11 203.013 19.2102ZM107.407 20.4615C107.514 20.5187 107.654 20.7172 107.719 20.9026C107.876 21.3505 107.881 27.8542 107.725 28.3001C107.566 28.7546 107.233 28.8621 105.98 28.8621C104.704 28.8621 104.479 28.7542 104.319 28.0648C104.265 27.8309 104.22 26.2762 104.22 24.6098C104.22 22.9434 104.265 21.3886 104.319 21.1548C104.481 20.4575 104.697 20.3574 106.045 20.3574C106.687 20.3574 107.3 20.4043 107.407 20.4615ZM128.279 20.5435C128.622 20.8242 128.713 21.678 128.713 24.6098C128.713 26.0423 128.667 27.5014 128.61 27.8522C128.458 28.7872 128.328 28.8621 126.85 28.8621C125.373 28.8621 125.243 28.7872 125.091 27.8522C125.034 27.5014 124.988 26.0423 124.988 24.6098C124.988 23.1773 125.034 21.7182 125.091 21.3674C125.243 20.4324 125.373 20.3574 126.85 20.3574C127.837 20.3574 128.092 20.3907 128.279 20.5435ZM197.561 20.4572C198.053 20.6438 198.11 21.0733 198.111 24.6098C198.111 28.0172 198.052 28.5316 197.63 28.7567C197.522 28.8146 196.908 28.8621 196.266 28.8621C194.919 28.8621 194.702 28.7621 194.54 28.0648C194.486 27.8309 194.441 26.2762 194.441 24.6098C194.441 22.9434 194.486 21.3886 194.54 21.1548C194.7 20.4656 194.925 20.3574 196.199 20.3574C196.804 20.3574 197.417 20.4023 197.561 20.4572ZM135.915 20.6874C136.088 20.8789 136.118 21.0798 136.118 22.0786C136.118 23.2257 136.112 23.2503 135.819 23.5026C135.534 23.7475 135.451 23.7593 134.034 23.7593H132.549V22.1115V20.4637H134.13C135.603 20.4637 135.726 20.4792 135.915 20.6874ZM190.342 20.6146C190.527 20.7497 190.548 20.9013 190.548 22.0592C190.548 23.7906 190.585 23.7593 188.566 23.7593H187.087V22.1115V20.4637H188.611C189.759 20.4637 190.186 20.501 190.342 20.6146ZM182.398 23.9421C182.75 25.3582 183.039 26.5421 183.039 26.5732C183.039 26.6042 182.398 26.6296 181.615 26.6296H180.19L180.895 23.8085C181.354 21.9697 181.627 21.0537 181.678 21.1774C181.721 21.2819 182.045 22.526 182.398 23.9421ZM204.767 24.6716C205.235 26.6548 205.644 28.385 205.675 28.5166L205.731 28.7558H203.858C202.123 28.7558 201.989 28.7421 202.042 28.5698C202.144 28.2393 203.81 21.1603 203.81 21.0584C203.81 20.7093 204.013 21.4744 204.767 24.6716ZM135.982 25.3303C136.209 25.5575 136.224 25.6584 136.224 26.9609C136.224 28.8133 136.291 28.7558 134.135 28.7558H132.549V26.9663C132.549 25.982 132.584 25.1415 132.628 25.0985C132.671 25.0554 133.389 25.0354 134.223 25.0541C135.635 25.0858 135.756 25.1047 135.982 25.3303ZM190.222 25.1848C190.42 25.2673 190.62 25.4462 190.667 25.5835C190.714 25.7203 190.746 26.3822 190.738 27.0542C190.723 28.2323 190.712 28.2849 190.443 28.516C190.181 28.7409 190.068 28.7558 188.625 28.7558H187.087V26.8954V25.035H188.475C189.428 25.035 189.975 25.082 190.222 25.1848ZM28.726 29.881C29.1476 29.9737 29.9439 30.2656 30.4956 30.5298C31.3557 30.9418 31.6363 31.1486 32.4662 31.9826C33.524 33.0457 34.0061 33.7719 34.3953 34.8886C35.7069 38.6527 34.0192 42.7626 30.4513 44.493C29.3185 45.0423 28.3509 45.2601 27.0427 45.2601C20.4133 45.2601 16.8232 37.6348 21.0364 32.5028C22.1589 31.1354 23.8051 30.1879 25.7644 29.7815C26.303 29.6697 28.0282 29.7277 28.726 29.881ZM54.7375 29.8736C56.2655 30.1962 58.0632 31.2943 59.0643 32.5169C59.7943 33.4083 60.4887 34.8691 60.7109 35.9804C61.5103 39.9805 59.0427 43.9268 55.0509 45.0321C53.985 45.3273 52.3184 45.3508 51.2224 45.0862C46.0731 43.8432 43.6262 37.8627 46.4299 33.3732C47.4559 31.7304 49.2547 30.4235 51.1691 29.9302C52.1484 29.6778 53.6937 29.6534 54.7375 29.8736ZM127.117 32.6521C125.876 32.8177 123.657 33.5647 123.737 33.7894C123.761 33.8567 123.944 34.3825 124.144 34.9577L124.507 36.0038L124.933 35.9418C125.167 35.9078 125.743 35.8096 126.211 35.7235C127.206 35.5407 129.708 35.5087 130.18 35.6728C130.687 35.8493 130.792 36.2408 130.789 37.9531C130.787 39.1409 130.746 39.5473 130.59 39.9572C130.31 40.6873 130.015 40.7914 128.049 40.8525L126.478 40.9013V42.261V43.6207L128.214 43.6564C130.216 43.6977 130.439 43.7745 130.633 44.4926C130.696 44.7285 130.753 45.6828 130.76 46.6132C130.776 49.0968 130.753 49.1192 128.235 49.1027C126.673 49.0925 126.434 49.0642 125.362 48.7631C124.719 48.5823 124.189 48.4438 124.182 48.4553C124.176 48.4667 124.016 49.0215 123.827 49.6883C123.435 51.0659 123.373 50.9159 124.525 51.3979C125.864 51.9583 126.57 52.0818 128.448 52.0841C131.39 52.0879 132.564 51.6123 133.221 50.1503C133.63 49.2399 133.747 48.2392 133.698 46.0461C133.651 43.9295 133.526 43.3917 132.873 42.4921L132.564 42.0671L132.812 41.8347C133.707 40.9956 134.061 38.2153 133.602 35.6184C133.34 34.1317 132.518 33.2487 131.005 32.8275C130.47 32.6786 127.815 32.5589 127.117 32.6521ZM190.176 32.8533C189.391 33.0663 188.496 33.6923 188.071 34.3252C187.88 34.6098 187.616 35.1833 187.485 35.5997C187.25 36.3469 187.246 36.4368 187.246 42.4164C187.246 48.3694 187.251 48.4891 187.481 49.2217C187.978 50.7969 188.943 51.7004 190.474 52.0243C191.205 52.1789 194.473 52.1789 195.203 52.0242C196.764 51.6937 197.755 50.7527 198.25 49.1298C198.493 48.3331 198.572 37.5932 198.344 36.2786C198.147 35.1434 197.823 34.4666 197.153 33.7952C196.236 32.8752 195.786 32.7576 193.052 32.7231C191.279 32.7008 190.629 32.7301 190.176 32.8533ZM92.9372 32.9124C92.2481 33.0303 91.4747 33.3579 91.1309 33.6778C90.8162 33.9706 90.4355 34.7203 90.2835 35.3469C90.042 36.3422 89.9144 38.1741 89.98 39.7056C90.0841 42.1374 90.4424 43.2082 91.4563 44.118C92.3018 44.8767 92.6114 44.9438 95.5074 44.9955L98.0372 45.0406V48.4858V51.9311H99.5285H101.02V48.476V45.021H103.184C106.223 45.021 106.937 44.856 107.852 43.9426C108.772 43.0245 109.106 41.7033 109.111 38.9614C109.116 35.9712 108.755 34.4297 107.86 33.6254C107.002 32.8539 107.067 32.8603 99.9013 32.836C96.3725 32.824 93.2536 32.8582 92.9372 32.9124ZM110.606 42.3633V51.9311H112.512C114.228 51.9311 114.426 51.9124 114.493 51.745C114.534 51.6427 115.642 48.768 116.955 45.3567C118.267 41.9455 119.388 39.0752 119.444 38.9782C119.512 38.8632 119.549 41.0837 119.551 45.3665L119.554 51.9311H121.046H122.538L122.51 42.3899L122.483 32.8487H120.586H118.688L117.645 35.6127C117.071 37.1329 116.074 39.7162 115.43 41.3534C114.786 42.9905 114.12 44.688 113.951 45.1257L113.642 45.9214L113.615 39.3585L113.587 32.7955H112.097H110.606V42.3633ZM135.319 42.3633V51.9311H136.745C137.948 51.9311 138.182 51.9047 138.237 51.7629C138.272 51.6704 138.301 48.0825 138.301 43.7897V35.9848H141.071H143.84V43.9579V51.9311H145.331H146.823V42.3633V32.7955H141.071H135.319V42.3633ZM148.314 42.3537V51.9311H149.805H151.296V48.4857V45.0404L153.879 45.0024C156.298 44.967 156.496 44.9491 156.995 44.722C158.04 44.2458 158.775 43.2887 159.153 41.9099C159.406 40.9864 159.406 36.9521 159.152 35.7561C158.829 34.228 158.274 33.4911 157.131 33.0716C156.62 32.8842 156.195 32.8614 152.441 32.8209L148.314 32.7765V42.3537ZM160.883 42.3633V51.9311H162.791H164.699L164.97 51.2135C165.118 50.8189 165.435 49.9697 165.674 49.3265C165.912 48.6833 166.933 46.054 167.942 43.4836L169.777 38.8099L169.805 45.3705L169.832 51.9311H171.323H172.814L172.787 42.3899L172.76 32.8487H170.861H168.962L166.44 39.4084L163.919 45.9682L163.891 39.3819L163.864 32.7955H162.373H160.883V42.3633ZM174.304 42.3622V51.9311H178.394C182.24 51.9311 182.527 51.9179 183.204 51.7092C184.141 51.4203 184.917 50.6856 185.264 49.7582C185.731 48.5138 185.823 45.0872 185.43 43.5792C185.204 42.7141 184.528 41.7073 183.909 41.3149C182.985 40.73 182.484 40.6427 179.701 40.5834L177.162 40.5293L177.218 38.1773L177.275 35.8253L180.639 35.7973L184.004 35.7692L183.974 34.3089L183.944 32.8487L179.124 32.821L174.304 32.7934V42.3622ZM199.975 42.6822V52.25H201.467H202.958V48.8047V45.3595L205.488 45.3123C206.997 45.2841 208.176 45.2146 208.41 45.1401C209.483 44.7978 210.352 43.8366 210.761 42.5365C210.981 41.8393 211 41.5743 211 39.2272C211 36.3251 210.871 35.4776 210.277 34.4884C209.872 33.8132 209.145 33.3847 208.124 33.2193C207.772 33.1623 205.795 33.1154 203.73 33.1151L199.975 33.1145V42.6822ZM194.777 35.7568C195.279 35.9529 195.388 36.2632 195.514 37.8546C195.662 39.7143 195.574 47.511 195.398 48.2261C195.183 49.0958 195.131 49.1139 192.83 49.1139C190.471 49.1139 190.455 49.1072 190.281 48.0458C190.224 47.6977 190.177 45.1645 190.177 42.4164C190.177 39.6684 190.224 37.1351 190.281 36.7871C190.407 36.0183 190.616 35.7893 191.303 35.6649C191.969 35.5446 194.398 35.6088 194.777 35.7568ZM98.0372 38.9083V42.0444H95.967C94.8284 42.0444 93.7761 41.9985 93.6287 41.9426C93.0718 41.7313 92.9807 41.3406 92.9452 39.0146C92.9082 36.59 92.9728 36.1004 93.355 35.9075C93.5383 35.8149 94.2792 35.7748 95.8269 35.7738L98.0372 35.7722V38.9083ZM105.7 35.8657C106.087 35.9736 106.146 36.3375 106.159 38.6956C106.178 42.1143 106.24 42.0444 103.189 42.0444H101.02V38.9083V35.7722L103.23 35.7828C104.446 35.7886 105.557 35.826 105.7 35.8657ZM156.166 36.0152C156.338 36.1867 156.356 36.4489 156.356 38.7307C156.356 40.985 156.335 41.2879 156.164 41.5489C156.058 41.7096 155.852 41.8869 155.704 41.9428C155.557 41.9987 154.505 42.0444 153.367 42.0444H151.296V38.9025V35.7607L153.636 35.793C155.714 35.8217 155.997 35.8466 156.166 36.0152ZM207.685 36.1926C208.064 36.3361 208.124 36.7463 208.124 39.174C208.124 41.0348 208.102 41.2905 207.911 41.6714C207.579 42.3324 207.436 42.366 205.088 42.3364L203.011 42.3101L202.983 39.2006L202.955 36.0911H205.186C206.414 36.0911 207.538 36.1368 207.685 36.1926ZM181.964 43.6672C182.528 43.9565 182.641 44.2703 182.696 45.6922C182.76 47.3398 182.66 48.3408 182.401 48.6606C182.213 48.8933 182.133 48.9031 179.986 48.9544C178.765 48.9837 177.634 48.9925 177.473 48.974L177.18 48.9403V46.3073C177.18 44.8592 177.212 43.6425 177.251 43.6036C177.387 43.4685 181.689 43.5265 181.964 43.6672Z" fill="#2E6C77"/>
</svg>
