<svg width="70" height="68" viewBox="0 0 70 68" fill="none" xmlns="http://www.w3.org/2000/svg">
<path fill-rule="evenodd" clip-rule="evenodd" d="M57.4104 0.231123C56.9632 0.785178 55.2614 2.60926 53.3876 4.54283C52.6594 5.29422 50.9973 7.02126 49.694 8.38064C48.3906 9.74012 47.0972 11.0877 46.8196 11.3753C46.5421 11.6629 46.1106 12.1149 45.8608 12.3799L45.4066 12.8615L49.3428 12.8259L53.2789 12.7904L53.3083 15.9022C53.3285 18.0319 53.3042 19.014 53.2315 19.014C53.1731 19.014 52.9328 18.9251 52.6974 18.8164C50.8454 17.9607 49.2815 17.6075 47.0719 17.5461C45.182 17.4935 43.7485 17.6626 42.3155 18.1073C41.9366 18.2248 41.6017 18.3157 41.5713 18.3091C41.5409 18.3025 41.3922 18.3618 41.2409 18.4409C41.0896 18.5199 40.8523 18.6307 40.7136 18.6872C40.5748 18.7435 40.3033 18.8601 40.1102 18.9462C39.9172 19.0324 39.7531 19.0942 39.7456 19.0838C39.7264 19.0565 39.6044 9.30791 39.6039 7.74866L39.6034 6.45121L35.0365 6.4837L30.4696 6.51618L30.5081 12.8755C30.5457 19.0776 30.5419 19.2322 30.3567 19.1293C29.4338 18.6167 28.1559 18.2139 26.1297 17.7967C24.7989 17.5228 20.5735 17.6832 20.3687 18.0155C20.3389 18.0638 20.2183 18.1033 20.1006 18.1033C19.9829 18.1033 19.7472 18.1478 19.5767 18.2022C18.5422 18.5325 17.8947 18.7662 17.4518 18.969C17.1752 19.0956 16.9222 19.1826 16.8895 19.1624C16.8569 19.1422 16.8333 17.7457 16.8373 16.0592L16.8445 12.9928L20.7622 12.9422L24.6797 12.8916L24.2441 12.4782C23.4754 11.7489 13.2312 1.37394 12.6714 0.757956L12.1317 0.163928L11.8031 0.506582C11.6223 0.695011 10.9827 1.37283 10.3816 2.0129C8.90569 3.5848 5.92555 6.71645 4.36826 8.33207C3.11707 9.63012 1.92756 10.8835 0.618546 12.2832C0.254808 12.6721 -0.0228394 13.0228 0.00148381 13.0623C0.0259079 13.1019 0.192234 13.1156 0.371176 13.0926C0.756512 13.0432 7.61485 13.0138 7.65915 13.0613C7.67581 13.0793 7.71961 17.6479 7.75645 23.2137C7.82054 32.9155 7.83789 33.9352 7.9695 35.7622C8.08789 37.4054 8.77812 39.9574 9.43142 41.1667C9.59522 41.47 9.72925 41.7498 9.72925 41.7886C9.72925 41.911 10.6351 43.3757 10.7911 43.5055C10.8731 43.5738 10.9408 43.6811 10.9414 43.7438C10.9455 44.2236 13.7728 47.0036 15.1592 47.8913C15.8492 48.3331 15.9882 48.4105 17.0464 48.9437C18.4578 49.655 20.4403 50.2453 22.0422 50.4316C22.5114 50.4862 25.1668 50.4963 25.5242 50.4449C26.4596 50.3104 26.8018 50.2457 27.2399 50.1206C27.5175 50.0412 27.7446 49.9809 27.7446 49.9866C27.7446 50.0143 28.3749 49.8533 28.552 49.7803C28.663 49.7346 28.9128 49.6403 29.1071 49.5707C29.4432 49.4502 29.7003 49.3492 30.3564 49.0801C30.5163 49.0145 30.6588 48.9739 30.6732 48.99C30.6876 49.006 30.7239 50.3965 30.754 52.0802L30.8086 55.1415H26.8795C24.7186 55.1415 22.9506 55.1766 22.9506 55.2196C22.9506 55.2626 24.9829 57.3344 27.467 59.8237C29.951 62.3129 32.7775 65.1709 33.748 66.1748L35.5124 68L36.1702 67.3038C36.5319 66.9208 37.4638 65.9296 38.2409 65.1009C39.018 64.2723 41.0187 62.182 42.6869 60.4557C47.3195 55.6621 47.7251 55.2362 47.765 55.1242C47.79 55.0536 46.546 55.0315 43.9045 55.0555L40.0071 55.0909L40.0043 54.2813C40.0028 53.836 39.9742 52.4286 39.9409 51.1537C39.89 49.2077 39.9026 48.8443 40.0194 48.8898C40.0959 48.9196 40.4991 49.0814 40.9154 49.2493C41.9786 49.6781 42.6169 49.8677 43.8927 50.1332C45.4033 50.4476 48.1263 50.4272 49.5951 50.0903C51.4235 49.671 52.305 49.3708 53.6321 48.7154C54.4512 48.3109 55.8176 47.445 56.208 47.0831C56.3202 46.979 56.7609 46.5842 57.1874 46.2057C58.3468 45.177 59.0979 44.2287 60.4278 42.1144C60.5758 41.8792 60.697 41.6558 60.697 41.6183C60.697 41.5807 60.8332 41.2608 60.9997 40.9075C61.1663 40.5541 61.3025 40.2059 61.3025 40.1336C61.3025 40.0615 61.3437 39.9591 61.394 39.9062C61.5736 39.7175 62.1578 37.4752 62.2626 36.5718C62.2885 36.3491 62.338 35.9393 62.3726 35.661C62.4493 35.0448 62.4371 26.4043 62.3483 18.5334C62.2928 13.6179 62.3042 12.7395 62.4235 12.7375C62.5008 12.7362 64.2623 12.7373 66.3378 12.7398C69.9151 12.7442 70.1043 12.7353 69.9712 12.5678C69.8232 12.3815 67.9212 10.4275 64.2622 6.70249C63.0507 5.46909 61.1511 3.51497 60.0409 2.35991C58.9307 1.20484 57.9624 0.198942 57.8891 0.12436C57.7046 -0.0629563 57.6353 -0.0474731 57.4104 0.231123ZM47.9298 27.0227C49.1779 27.2962 50.1825 27.8357 51.2959 28.8302C51.6885 29.1808 52.3338 30.055 52.6107 30.6111C53.2389 31.873 53.3629 32.4073 53.3717 33.89C53.3805 35.3748 53.2236 36.0912 52.6513 37.179C51.9901 38.4358 50.8042 39.6512 49.6087 40.2971C48.5601 40.8638 46.8809 41.0998 45.483 40.8771C44.6769 40.7486 43.4963 40.2597 42.8358 39.7809C42.1706 39.2989 41.0531 38.0552 40.7083 37.4135C40.0122 36.1175 39.8853 35.6065 39.8709 34.0418C39.8566 32.4846 39.9585 31.9821 40.5382 30.7529C41.1326 29.4922 42.4658 28.1386 43.6404 27.6029C44.3842 27.2637 44.5142 27.2146 45.0534 27.0679C45.9716 26.8184 46.9288 26.8033 47.9298 27.0227ZM25.834 27.3449C26.2265 27.4805 26.656 27.6538 26.7883 27.7301C27.7773 28.3001 28.821 29.203 29.2855 29.8904C29.4369 30.1143 29.5839 30.3203 29.6124 30.3481C29.7373 30.4702 30.2141 31.5643 30.3843 32.1191C30.529 32.5909 30.5694 33.0422 30.5657 34.143C30.5604 35.6681 30.4414 36.1831 29.8148 37.395C29.044 38.8857 27.6289 40.1179 25.9279 40.7797C24.8616 41.1944 22.7963 41.2039 21.7395 40.7989C21.6562 40.767 21.5233 40.7278 21.444 40.7118C21.1446 40.6516 20.2514 40.1082 19.6037 39.5923C18.1759 38.4549 17.3326 36.9986 17.0589 35.1977C16.7367 33.0762 17.1921 31.2987 18.493 29.6011C18.7966 29.2049 19.1043 28.8455 19.1767 28.8022C19.2492 28.7591 19.5217 28.5607 19.7822 28.3613C20.6378 27.7065 21.5789 27.2936 22.6478 27.1043C23.4815 26.9566 25.0533 27.0753 25.834 27.3449Z" fill="#2E6C77"/>
</svg>
