<svg width="24" height="24" viewBox="0 0 24 24" fill="none" xmlns="http://www.w3.org/2000/svg">
<path fill-rule="evenodd" clip-rule="evenodd" d="M0 12V24H12H24V12V0H12H0V12ZM12.9844 5.88277C13.646 5.96658 14.2524 6.13528 14.676 6.3533C15.1933 6.61964 15.9012 7.22723 16.2032 7.66406C16.3738 7.91081 16.632 8.44969 16.7556 8.81634C16.8755 9.17269 17.0156 10.0514 17.0156 10.4477C17.0156 10.7491 16.9233 11.4224 16.8465 11.6807C16.8106 11.8015 16.7812 11.9249 16.7812 11.9549C16.7812 11.9848 16.7525 12.0758 16.7173 12.157C16.6822 12.2382 16.6147 12.3996 16.5675 12.5156C16.3243 13.1135 15.7862 13.771 15.1774 14.2143C15.0283 14.3229 14.9062 14.4292 14.9062 14.4505C14.9062 14.4718 15.0328 14.6574 15.1875 14.8631C15.3422 15.0689 15.4688 15.2558 15.4688 15.2787C15.4688 15.3016 15.4867 15.3273 15.5087 15.336C15.5444 15.3499 16.0769 16.0661 16.1953 16.2594C16.2211 16.3015 16.2529 16.3465 16.266 16.3594C16.279 16.3723 16.4042 16.541 16.5442 16.7344C16.6841 16.9277 16.9639 17.314 17.166 17.5927C17.3679 17.8715 17.521 18.1193 17.506 18.1435C17.4616 18.2153 13.5065 18.2011 13.4368 18.1289C13.4058 18.0967 13.177 17.7855 12.9285 17.4375C12.4448 16.7601 12.1263 16.3239 12.0483 16.2324C12.0217 16.2013 12 16.1629 12 16.1471C12 16.1312 11.9737 16.0897 11.9414 16.0548C11.9092 16.0198 11.7378 15.7893 11.5606 15.5425L11.2384 15.0938H10.5417H9.84502L9.83269 16.6289L9.82031 18.1641H8.13281H6.44531L6.43327 12.0469C6.42661 8.68242 6.43125 5.90334 6.44348 5.87109C6.47836 5.7795 12.2505 5.78977 12.9844 5.88277ZM9.90234 9.26541C9.85767 9.28345 9.84375 9.56653 9.84375 10.457V11.625H11.2821C12.6462 11.625 12.7309 11.6199 12.9232 11.5268C13.0347 11.4728 13.1971 11.341 13.2842 11.2339C13.5953 10.8509 13.5994 10.1292 13.2927 9.72717C12.9617 9.29325 12.7001 9.2333 11.1581 9.23808C10.4997 9.24009 9.93459 9.25242 9.90234 9.26541Z" fill="#2E6C77"/>
</svg>
