<svg width="379" height="449" viewBox="0 0 379 449" fill="none" xmlns="http://www.w3.org/2000/svg">
<path fill-rule="evenodd" clip-rule="evenodd" d="M373.644 167.366C375.428 166.847 377.899 164.252 378.404 162.368C378.692 161.293 378.789 141.923 378.718 99.4101L378.615 38.0058L377.687 36.5067C377.177 35.6819 376.045 34.5332 375.174 33.9539L373.588 32.9001L345.692 32.7917L317.796 32.6837V27.3738C317.796 22.2599 317.761 22.0286 316.836 21.1002L315.876 20.136H302.152H288.427L287.467 21.1002C286.542 22.0286 286.507 22.2591 286.507 27.3841V32.7038H283.378H280.249V27.3841C280.249 22.2591 280.214 22.0286 279.289 21.1002L278.329 20.136H255.217H232.106L231.146 21.1002C230.222 22.0278 230.186 22.2619 230.186 27.3401V32.6162L228.719 32.8895C226.642 33.276 224.827 34.5076 223.608 36.3563L222.559 37.9485V100.256V162.563L223.608 164.155C224.185 165.03 225.329 166.167 226.151 166.679L227.644 167.611L300 167.676C344.944 167.716 372.845 167.599 373.644 167.366ZM228.017 162.13L227.057 161.167V100.256V39.3447L228.017 38.3809L228.977 37.4167H300.587H372.197L373.157 38.3809L374.117 39.3447V100.256V161.167L373.157 162.13L372.197 163.095H300.587H228.977L228.017 162.13ZM320.311 155.015C320.681 154.644 320.925 153.719 320.925 152.693V150.987L325.455 150.855C329.399 150.74 330.057 150.625 330.54 149.961C331.301 148.914 331.235 147.634 330.379 146.857C329.803 146.334 328.811 146.207 325.294 146.207H320.925V144.321C320.925 143.285 320.714 142.224 320.456 141.965C319.775 141.282 246.98 141.282 246.3 141.965C246.042 142.224 245.831 143.285 245.831 144.321V146.207H241.393C237.591 146.207 236.863 146.31 236.309 146.925C235.515 147.806 235.48 148.949 236.216 149.961C236.698 150.625 237.357 150.74 241.3 150.855L245.831 150.987V152.693C245.831 155.882 242.643 155.632 283.378 155.632C315.873 155.632 319.761 155.568 320.311 155.015ZM362.384 153.785C363.684 153.327 363.948 152.365 363.948 148.095C363.948 144.678 364.057 143.85 364.507 143.85C364.814 143.85 365.342 143.573 365.68 143.233C366.211 142.7 366.295 141.049 366.295 131.137C366.295 119.219 366.228 118.715 364.652 118.715C364.015 118.715 363.948 118.288 363.948 114.259C363.948 109.374 363.583 108.503 361.533 108.503C359.646 108.503 359.255 109.504 359.255 114.327V118.715H356.908H354.561V114.259C354.561 109.374 354.196 108.503 352.147 108.503C350.259 108.503 349.868 109.504 349.868 114.327V118.715H347.521H345.174V114.259C345.174 109.374 344.809 108.503 342.76 108.503C340.873 108.503 340.481 109.504 340.481 114.327C340.481 118.29 340.413 118.715 339.777 118.715C338.201 118.715 338.134 119.219 338.134 131.137C338.134 141.049 338.218 142.7 338.749 143.233C339.087 143.573 339.615 143.85 339.922 143.85C340.372 143.85 340.481 144.678 340.481 148.095C340.481 152.968 340.823 153.8 342.828 153.8C344.832 153.8 345.174 152.968 345.174 148.095V143.85H347.521H349.868V148.095C349.868 152.968 350.21 153.8 352.215 153.8C354.219 153.8 354.561 152.968 354.561 148.095V143.85H356.908H359.255V148.095C359.255 150.896 359.421 152.553 359.744 152.965C360.315 153.695 361.549 154.079 362.384 153.785ZM250.524 148.563V146.207H283.378H316.232V148.563V150.92H283.378H250.524V148.563ZM342.828 131.282V123.428H352.215H361.601V131.282V139.137H352.215H342.828V131.282ZM320.311 137.735C320.681 137.363 320.925 136.439 320.925 135.412V133.706L325.455 133.574C329.399 133.46 330.057 133.344 330.54 132.68C331.301 131.634 331.235 130.354 330.379 129.576C329.803 129.053 328.811 128.926 325.294 128.926H320.925V127.041C320.925 126.004 320.714 124.944 320.456 124.684C319.775 124.001 246.98 124.001 246.3 124.684C246.042 124.944 245.831 126.004 245.831 127.041V128.926H241.393C237.591 128.926 236.863 129.029 236.309 129.644C235.515 130.525 235.48 131.668 236.216 132.68C236.698 133.344 237.357 133.46 241.3 133.574L245.831 133.706V135.412C245.831 138.602 242.643 138.352 283.378 138.352C315.873 138.352 319.761 138.287 320.311 137.735ZM250.524 131.282V128.926H283.378H316.232V131.282V133.639H283.378H250.524V131.282ZM320.311 120.454C320.681 120.082 320.925 119.158 320.925 118.131V116.426L325.455 116.294C329.399 116.179 330.057 116.063 330.54 115.399C331.301 114.353 331.235 113.073 330.379 112.295C329.803 111.772 328.811 111.645 325.294 111.645H320.925V109.76C320.925 108.723 320.714 107.663 320.456 107.404C319.775 106.72 246.98 106.72 246.3 107.404C246.042 107.663 245.831 108.723 245.831 109.76V111.645H241.393C237.591 111.645 236.863 111.748 236.309 112.364C235.515 113.244 235.48 114.387 236.216 115.399C236.698 116.063 237.357 116.179 241.3 116.294L245.831 116.426V118.131C245.831 121.321 242.643 121.071 283.378 121.071C315.873 121.071 319.761 121.006 320.311 120.454ZM250.524 114.002V111.645H283.378H316.232V114.002V116.358H283.378H250.524V114.002ZM278.684 98.6847C279.351 98.0154 279.467 97.3757 279.467 94.3645C279.467 91.2226 279.545 90.8298 280.171 90.8298C281.072 90.8298 281.813 90.0852 281.813 89.1803C281.813 88.5519 282.204 88.4733 285.333 88.4733C288.332 88.4733 288.969 88.3571 289.636 87.6879C290.066 87.2558 290.418 86.5489 290.418 86.1169C290.418 85.6849 290.066 84.9779 289.636 84.5459C288.969 83.8767 288.332 83.7604 285.333 83.7604H281.813V81.404V79.0475H285.333C288.332 79.0475 288.969 78.9313 289.636 78.262C290.066 77.83 290.418 77.1231 290.418 76.691C290.418 76.259 290.066 75.5521 289.636 75.1201C288.969 74.4508 288.332 74.3346 285.333 74.3346H281.813V71.9781V69.6217H285.333C288.332 69.6217 288.969 69.5054 289.636 68.8362C290.066 68.4042 290.418 67.6972 290.418 67.2652C290.418 66.8332 290.066 66.1262 289.636 65.6942C288.969 65.025 288.332 64.9087 285.333 64.9087H281.813V62.5523V60.1958H285.333C288.332 60.1958 288.969 60.0796 289.636 59.4103C290.066 58.9783 290.418 58.2714 290.418 57.8394C290.418 57.4073 290.066 56.7004 289.636 56.2684C288.969 55.5991 288.332 55.4829 285.333 55.4829C282.204 55.4829 281.813 55.4043 281.813 54.776C281.813 53.8711 281.072 53.1264 280.171 53.1264C279.545 53.1264 279.467 52.7337 279.467 49.5917C279.467 46.5806 279.351 45.9408 278.684 45.2716C278.254 44.8395 277.55 44.4861 277.12 44.4861C276.69 44.4861 275.986 44.8395 275.555 45.2716C274.889 45.9408 274.773 46.5806 274.773 49.5917V53.1264H272.427H270.08V49.5917C270.08 46.5806 269.964 45.9408 269.298 45.2716C268.867 44.8395 268.163 44.4861 267.733 44.4861C267.303 44.4861 266.599 44.8395 266.169 45.2716C265.502 45.9408 265.386 46.5806 265.386 49.5917V53.1264L263.04 53.1264H260.693V49.5917C260.693 46.5806 260.577 45.9408 259.911 45.2716C259.481 44.8395 258.777 44.4861 258.346 44.4861C257.916 44.4861 257.212 44.8395 256.782 45.2716C256.115 45.9408 256 46.5806 256 49.5917V53.1264H253.653H251.306V49.5917C251.306 46.5806 251.19 45.9408 250.524 45.2716C250.094 44.8395 249.39 44.4861 248.959 44.4861C248.529 44.4861 247.825 44.8395 247.395 45.2716C246.729 45.9408 246.613 46.5806 246.613 49.5917C246.613 52.7337 246.535 53.1264 245.909 53.1264C245.522 53.1264 244.994 53.3385 244.735 53.5977C244.477 53.8569 244.266 54.3871 244.266 54.776C244.266 55.4043 243.875 55.4829 240.746 55.4829C237.747 55.4829 237.11 55.5991 236.444 56.2684C236.013 56.7004 235.661 57.4073 235.661 57.8394C235.661 58.2714 236.013 58.9783 236.444 59.4103C237.11 60.0796 237.747 60.1958 240.746 60.1958H244.266V62.5523V64.9087H240.746C237.747 64.9087 237.11 65.025 236.444 65.6942C236.013 66.1262 235.661 66.8332 235.661 67.2652C235.661 67.6972 236.013 68.4042 236.444 68.8362C237.11 69.5054 237.747 69.6217 240.746 69.6217H244.266V71.9781V74.3346H240.746C237.747 74.3346 237.11 74.4508 236.444 75.1201C236.013 75.5521 235.661 76.259 235.661 76.691C235.661 77.1231 236.013 77.83 236.444 78.262C237.11 78.9313 237.747 79.0475 240.746 79.0475H244.266V81.404V83.7604H240.746C237.747 83.7604 237.11 83.8767 236.444 84.5459C236.013 84.9779 235.661 85.6849 235.661 86.1169C235.661 86.5489 236.013 87.2558 236.444 87.6879C237.11 88.3571 237.747 88.4733 240.746 88.4733C243.875 88.4733 244.266 88.5519 244.266 89.1803C244.266 90.0852 245.008 90.8298 245.909 90.8298C246.535 90.8298 246.613 91.2226 246.613 94.3645C246.613 97.3757 246.729 98.0154 247.395 98.6847C247.825 99.1167 248.529 99.4702 248.959 99.4702C249.39 99.4702 250.094 99.1167 250.524 98.6847C251.19 98.0154 251.306 97.3757 251.306 94.3645V90.8298H253.653H256V94.3645C256 97.3757 256.115 98.0154 256.782 98.6847C257.212 99.1167 257.916 99.4702 258.346 99.4702C258.777 99.4702 259.481 99.1167 259.911 98.6847C260.577 98.0154 260.693 97.3757 260.693 94.3645V90.8298H263.04L265.386 90.8298V94.3645C265.386 97.3757 265.502 98.0154 266.169 98.6847C266.599 99.1167 267.303 99.4702 267.733 99.4702C268.163 99.4702 268.867 99.1167 269.298 98.6847C269.964 98.0154 270.08 97.3757 270.08 94.3645V90.8298H272.427H274.773V94.3645C274.773 97.3757 274.889 98.0154 275.555 98.6847C275.986 99.1167 276.69 99.4702 277.12 99.4702C277.55 99.4702 278.254 99.1167 278.684 98.6847ZM365.513 95.5427C365.943 95.1107 366.295 94.4038 366.295 93.9718C366.295 93.5397 365.943 92.8328 365.513 92.4008C364.743 91.6283 364.209 91.6153 332.659 91.6153C301.108 91.6153 300.574 91.6283 299.805 92.4008C299.375 92.8328 299.023 93.5397 299.023 93.9718C299.023 94.4038 299.375 95.1107 299.805 95.5427C300.574 96.3153 301.108 96.3282 332.659 96.3282C364.209 96.3282 364.743 96.3153 365.513 95.5427ZM248.959 71.9781V57.8394H263.04L277.12 57.8394V71.9781V86.1169L263.04 86.1169H248.959V71.9781ZM339.894 84.1862C340.325 83.9992 341.117 83.3712 341.654 82.7903L342.632 81.7343L342.745 68.7655C342.863 55.2567 342.802 54.6974 341.216 54.6974C340.542 54.6974 340.481 54.3416 340.481 50.3772C340.481 46.5806 340.386 45.962 339.699 45.2716C339.269 44.8395 338.565 44.4861 338.134 44.4861C337.704 44.4861 337 44.8395 336.57 45.2716C335.882 45.962 335.788 46.5806 335.788 50.3772V54.6974H334.419H333.05V50.3772C333.05 46.5806 332.955 45.962 332.268 45.2716C331.291 44.2913 329.853 44.2618 329.004 45.2044C328.483 45.7825 328.356 46.7785 328.356 50.3101C328.356 54.668 328.35 54.6974 327.426 54.6974C325.617 54.6974 325.581 54.9963 325.701 68.7898L325.814 81.7826L327.092 83.0661L328.369 84.3495L333.741 84.4375C336.695 84.4862 339.464 84.3731 339.894 84.1862ZM330.312 69.6217V59.4103H334.223H338.134V69.6217V79.833H334.223H330.312V69.6217ZM303.716 78.262C304.146 77.83 304.498 77.1231 304.498 76.691C304.498 76.259 304.146 75.5521 303.716 75.1201C303.286 74.6881 302.582 74.3346 302.152 74.3346C301.721 74.3346 301.017 74.6881 300.587 75.1201C300.157 75.5521 299.805 76.259 299.805 76.691C299.805 77.1231 300.157 77.83 300.587 78.262C301.017 78.694 301.721 79.0475 302.152 79.0475C302.582 79.0475 303.286 78.694 303.716 78.262ZM363.361 77.9023C363.792 77.7153 364.584 77.0873 365.122 76.5068L366.099 75.4511L366.216 65.6286C366.339 55.3906 366.241 54.6974 364.683 54.6974C364.009 54.6974 363.948 54.3416 363.948 50.3772C363.948 46.5806 363.854 45.962 363.166 45.2716C362.736 44.8395 362.032 44.4861 361.601 44.4861C361.171 44.4861 360.467 44.8395 360.037 45.2716C359.349 45.962 359.255 46.5806 359.255 50.3772V54.6974H357.886H356.517V50.3772C356.517 46.5806 356.422 45.962 355.735 45.2716C354.758 44.2913 353.32 44.2618 352.471 45.2044C351.95 45.7825 351.824 46.7785 351.824 50.3101C351.824 54.668 351.817 54.6974 350.893 54.6974C349.115 54.6974 349.04 55.1758 349.164 65.653L349.281 75.4991L350.559 76.7826L351.836 78.0656L357.208 78.1536C360.162 78.2023 362.931 78.0892 363.361 77.9023ZM353.779 66.4797V59.4103H357.69H361.601V66.4797V73.5491H357.69H353.779V66.4797ZM303.716 64.1232C304.146 63.6912 304.498 62.9843 304.498 62.5523C304.498 62.1203 304.146 61.4133 303.716 60.9813C303.286 60.5493 302.582 60.1958 302.152 60.1958C301.721 60.1958 301.017 60.5493 300.587 60.9813C300.157 61.4133 299.805 62.1203 299.805 62.5523C299.805 62.9843 300.157 63.6912 300.587 64.1232C301.017 64.5553 301.721 64.9087 302.152 64.9087C302.582 64.9087 303.286 64.5553 303.716 64.1232ZM303.716 49.9845C304.146 49.5525 304.498 48.8455 304.498 48.4135C304.498 47.9815 304.146 47.2746 303.716 46.8425C303.286 46.4105 302.582 46.057 302.152 46.057C301.721 46.057 301.017 46.4105 300.587 46.8425C300.157 47.2746 299.805 47.9815 299.805 48.4135C299.805 48.8455 300.157 49.5525 300.587 49.9845C301.017 50.4165 301.721 50.77 302.152 50.77C302.582 50.77 303.286 50.4165 303.716 49.9845ZM291.2 28.7763V24.8489H293.156H295.111V26.8126C295.111 28.2528 295.32 28.9857 295.894 29.5618C297.71 31.3857 299.805 29.9133 299.805 26.8126V24.8489H302.152H304.498V26.8126C304.498 28.2528 304.707 28.9857 305.28 29.5618C307.097 31.3857 309.192 29.9133 309.192 26.8126V24.8489H311.147H313.103V28.7763V32.7038H302.152H291.2V28.7763ZM234.879 28.7763V24.8489H236.835H238.79V26.8126C238.79 28.2528 238.999 28.9857 239.573 29.5618C241.389 31.3857 243.484 29.9133 243.484 26.8126V24.8489H245.831H248.177V26.8126C248.177 28.2528 248.386 28.9857 248.959 29.5618C250.776 31.3857 252.871 29.9133 252.871 26.8126V24.8489H255.217H257.564V26.8126C257.564 28.2528 257.773 28.9857 258.346 29.5618C260.163 31.3857 262.257 29.9133 262.257 26.8126V24.8489H264.604H266.951V26.8126C266.951 28.2528 267.159 28.9857 267.733 29.5618C269.549 31.3857 271.644 29.9133 271.644 26.8126V24.8489H273.6H275.555V28.7763V32.7038H255.217H234.879V28.7763Z" fill="#F3F3F3"/>
<path fill-rule="evenodd" clip-rule="evenodd" d="M62.011 258.221C77.3255 247.788 96.2629 243.466 114.396 246.265C131.371 248.885 147.137 257.489 158.319 270.233C171.512 285.269 178.187 306.23 176.043 325.888L175.591 330.027L180.151 329.143L184.71 328.259L191.626 322.201L198.541 316.143L200.55 318.436L202.558 320.728L195.008 327.342L187.458 333.956L181.165 335.153C171.017 337.084 168.19 338.443 161.712 344.508C156.993 348.927 156.606 349.474 152.465 357.575L149.704 362.977L141.038 370.569C132.861 377.732 132.333 378.254 131.664 379.83C129.739 384.365 133.909 389.125 138.657 387.813C140.342 387.348 140.853 386.938 152.666 376.59L164.926 365.851L166.934 368.143L168.942 370.436L155.756 381.987C143.69 392.557 142.383 393.621 140.378 394.513C139.063 395.098 130.484 397.025 118.926 399.332C108.333 401.446 99.0915 403.434 98.3908 403.749C97.4439 404.174 96.8882 404.684 96.2296 405.733C93.8265 409.558 96.1378 414.566 100.491 414.966C102.708 415.169 150.715 405.651 155.19 404.121C160.506 402.302 164.765 399.956 169.132 396.438C172.563 393.675 174.594 391.575 187.078 377.888L201.155 362.454L212.966 354.16C219.462 349.598 224.83 345.869 224.895 345.874C225.084 345.888 228.222 350.453 228.205 350.691C228.197 350.81 223.035 354.529 216.733 358.954L205.275 367.002L191.264 382.299C183.557 390.712 176.024 398.671 174.523 399.985C169.182 404.66 162.189 408.484 155.469 410.405C153.456 410.981 142.77 413.255 131.722 415.458C120.674 417.661 109.693 419.855 107.32 420.334C101.725 421.461 99.3007 421.454 96.5475 420.301C93.3903 418.978 90.5641 415.804 89.6456 412.55C88.4996 408.492 89.4525 404.132 92.1809 400.948C94.5539 398.178 96.0835 397.687 112.761 394.346C121.404 392.614 128.547 391.135 128.635 391.058C128.722 390.981 128.261 390.252 127.609 389.439L126.423 387.96L123.421 388.848C107.032 393.693 88.307 392.288 72.5445 385.031C48.0107 373.735 31.7621 349.88 30.1849 322.841C28.707 297.498 41.0025 272.532 62.011 258.221ZM51.4498 276.008C48.4225 279.83 45.9079 283.637 43.9325 287.389L42.1126 290.847L44.6812 288.853C48.1927 286.128 49.1131 285.99 54.3791 287.408C59.4783 288.78 60.7419 289.651 61.5921 292.38C62.0706 293.915 61.9677 294.86 60.8784 298.904C59.3528 304.569 59.2409 304.695 52.5831 308.166L47.9617 310.576L45.6753 316.107C43.0084 322.557 42.0028 323.744 38.7715 324.253C37.7336 324.416 36.765 324.654 36.6191 324.782C36.0702 325.263 37.9331 335.317 38.6486 335.735C38.8367 335.845 41.1043 335.511 43.6881 334.993L48.3858 334.051L52.5705 328.561L56.7552 323.071L58.0802 318.277C58.8089 315.641 59.6502 313.03 59.9497 312.474C60.249 311.919 62.4943 309.712 64.9388 307.571C70.8668 302.378 70.9575 302.355 78.017 304.283C82.7633 305.578 83.4489 305.874 84.4902 307.074C86.0529 308.876 90.4107 317.515 90.5301 319.048C90.6849 321.032 89.9983 322.416 86.2663 327.641L82.7292 332.593L78.8032 334.283L74.8772 335.973L74.7093 338.728L74.5414 341.483L78.0944 345.539C80.0488 347.77 81.8262 350.076 82.0443 350.664C82.2621 351.251 82.6791 354.857 82.9703 358.675L83.5 365.617L87.1894 369.829C91.5979 374.861 91.662 375.03 91.3239 380.772L91.083 384.862L98.2799 385.321C106.678 385.856 112.228 385.382 119.639 383.498L124.968 382.144L125.21 380.325C125.342 379.324 125.801 377.719 126.229 376.757C126.956 375.126 127.623 374.453 136.213 366.684C144.935 358.797 145.461 358.263 146.231 356.534L147.043 354.708L145.278 352.694L143.514 350.68L138.462 352.011C130.995 353.977 130.499 353.898 126.818 350.145L124.3 347.58L121.341 348.837C116.897 350.726 115.471 350.525 110.93 347.366C105.415 343.531 104.166 341.284 105.609 337.795C106.052 336.724 106.845 335.692 108.003 334.677L109.736 333.159L109.139 328.63C108.335 322.526 108.528 322.062 113.752 317.485L117.697 314.029L118.118 308.388C118.565 302.4 119.011 301.246 121.432 299.814C122.593 299.126 135.982 296.614 138.198 296.667C140.535 296.723 141.61 297.512 145.692 302.172C148.918 305.855 149.532 306.718 149.86 308.033C150.455 310.421 149.703 317.534 148.556 320.363L147.552 322.839L151.139 326.933C154.574 330.855 154.794 331.192 156.33 334.887C157.212 337.01 158.008 338.831 158.098 338.933C158.188 339.036 159.656 338.039 161.36 336.718C163.064 335.397 165.455 333.815 166.672 333.203L168.885 332.091L169.263 330.366C170.001 327.004 170.411 316.137 169.966 311.792C168.453 297.062 161.906 282.771 151.919 272.401C147.92 268.25 145.953 266.485 145.634 266.764C145.516 266.867 145.549 269.021 145.707 271.551L145.994 276.15L142.605 284.45C139.426 292.237 139.124 292.816 137.714 293.831C136.119 294.98 134.541 295.281 132.446 294.838C131.353 294.607 130.705 294.074 128.101 291.265C123.944 286.78 123.765 286.052 125.375 280.123L126.572 275.71L124.908 273.81L123.243 271.91L117.466 275.298L111.688 278.686L104.433 280.558L97.1773 282.429L89.9879 280.886L82.7982 279.343L77.6266 281.999C74.7028 283.5 71.9243 284.683 71.2344 284.721C70.5629 284.757 68.4828 284.385 66.6112 283.894C63.7106 283.134 62.9807 282.777 61.6608 281.474C59.7737 279.613 59.2731 277.551 60.1676 275.326C60.488 274.529 62.6087 271.615 64.8804 268.851C68.8862 263.976 69.002 263.789 68.7181 262.636C68.4853 261.689 68.3258 261.484 67.934 261.63C65.3059 262.61 54.8134 271.762 51.4498 276.008ZM74.6546 261.429C74.9968 263.166 75.0448 264.857 74.7738 265.659C74.5079 266.447 72.6573 269.033 70.2637 271.962C68.0308 274.694 66.1969 277.041 66.1878 277.177C66.1786 277.313 67.2025 277.696 68.463 278.028C70.2343 278.495 71.0558 278.482 72.08 277.972C72.8088 277.609 75.1196 276.428 77.2155 275.347C80.0067 273.907 81.4491 273.384 82.608 273.39C83.4781 273.395 87.022 274.023 90.4832 274.787L96.7764 276.176L102.996 274.584C109.058 273.032 109.373 272.902 115.441 269.451C120.872 266.362 121.866 265.918 123.235 265.964C125.638 266.045 126.925 266.842 129.615 269.912C132.995 273.771 133.181 274.724 131.65 280.364L130.453 284.776L132.299 286.883L134.144 288.99L136.976 282.064L139.809 275.138L139.417 268.401L139.024 261.665L136.567 260.272C132.537 257.987 123.395 254.419 118.769 253.324C113.193 252.005 102.204 251.297 96.5719 251.895C94.145 252.152 90.1525 252.854 87.6994 253.454C82.9535 254.615 75.7416 257.145 74.7073 258.012C74.2407 258.403 74.2274 259.26 74.6546 261.429ZM37.5177 305.362C37.1475 307.138 36.6572 310.805 36.4283 313.51L36.012 318.428L37.0884 318.348C38.1332 318.27 38.2294 318.11 40.3906 312.82C43.0303 306.36 43.1866 306.19 49.5939 302.849L54.133 300.482L54.9944 297.315L55.856 294.148L52.818 293.328L49.7797 292.509L44.3585 297.109C41.3767 299.639 38.7692 301.804 38.564 301.921C38.3589 302.037 37.8879 303.586 37.5177 305.362ZM64.1271 319.454C62.557 325.347 62.3366 325.775 57.8313 331.68C51.6732 339.75 52.1539 339.387 45.8579 340.747C43.1139 341.34 40.7453 341.934 40.5942 342.066C40.2984 342.325 41.5801 345.523 43.4466 349.182C45.6714 353.542 47.8209 356.81 51.2706 361.077C59.2655 370.965 70.3355 378.502 82.593 382.405L84.9843 383.166L85.1747 380.092L85.3651 377.018L81.8113 372.961C79.8567 370.73 78.0791 368.423 77.861 367.836C77.6431 367.248 77.2262 363.643 76.9349 359.825L76.4053 352.882L72.8076 348.775C68.4151 343.761 68.0704 342.832 68.6329 337.524C69.1806 332.36 69.7048 331.672 74.847 329.373L78.8595 327.579L81.6785 323.57L84.4975 319.561L82.3207 315.376L80.144 311.192L76.2866 310.152L72.4295 309.113L68.811 312.284L65.1925 315.455L64.1271 319.454ZM123.296 316.417C122.896 317.395 121.874 318.474 118.782 321.183L114.784 324.685L115.373 329.005C116.124 334.519 115.887 335.559 113.302 338.064C111.167 340.133 111.165 340.162 113.032 341.414C113.662 341.838 114.789 342.599 115.536 343.107C116.876 344.018 116.938 344.013 119.868 342.779C124.929 340.648 126.973 341.07 130.37 344.947L132.384 347.247L137.654 345.874C144.64 344.053 145.989 344.233 148.721 347.353L150.057 348.877L151.651 346.522C152.529 345.226 153.249 343.995 153.252 343.785C153.255 343.575 152.378 341.324 151.304 338.783C149.385 334.245 149.287 334.091 145.789 330.098C143.831 327.863 142.048 325.55 141.828 324.958C141.222 323.33 141.402 321.681 142.473 319.07C143.027 317.719 143.563 315.155 143.72 313.104L143.995 309.506L140.973 306.061L137.952 302.617L131.256 303.802L124.561 304.987L124.187 310.07C123.982 312.865 123.581 315.721 123.296 316.417Z" fill="#F3F3F3"/>
<path fill-rule="evenodd" clip-rule="evenodd" d="M160.25 0.527029C158.729 1.18977 156.856 3.41758 156.605 4.86285C156.444 5.78643 147.251 166.59 147.251 168.475C147.251 168.761 146.466 168.906 144.928 168.906H142.604L140.304 163.136C126.141 127.602 116.548 90.3853 113.378 58.6735C112.597 50.8621 112.625 49.0358 113.538 48.4658C113.937 48.217 114.596 47.3598 115.004 46.5604C115.676 45.2418 115.745 44.4132 115.745 37.6063C115.745 33.1822 115.584 29.682 115.354 29.0738C114.799 27.6073 113.594 26.4035 111.898 25.6209C110.511 24.9809 108.804 24.9443 79.9882 24.9366C58.2486 24.9307 49.1879 25.0472 48.2984 25.344C46.6004 25.9107 44.7327 27.7513 44.27 29.3145C44.0392 30.0949 43.934 33.6775 44.0051 38.3555L44.1223 46.1039L45.313 47.5843C46.7436 49.3634 46.8015 50.4272 45.9387 59.0399C42.8185 90.1915 33.5735 126.287 19.6996 161.488L16.7753 168.906H14.2676C11.2053 168.906 10.7206 169.077 10.0377 170.398C9.24268 171.935 9.37897 172.87 10.5726 174.064L11.6434 175.134H103.289H194.934L196.005 174.064C197.199 172.87 197.335 171.935 196.54 170.398C195.881 169.123 195.348 168.906 192.876 168.906H190.934L190.709 166.25C190.586 164.789 188.502 128.149 186.079 84.8277C183.656 41.5061 181.508 5.45048 181.305 4.70385C180.834 2.96732 179.308 1.1546 177.78 0.516038C176.118 -0.178206 161.849 -0.169413 160.25 0.527029ZM175.461 8.21354C175.461 9.29649 175.564 10.6978 175.69 11.3276L175.919 12.4724H169.095H162.272V11.6104C162.272 11.136 162.378 9.73465 162.507 8.49637L162.743 6.24438H169.102H175.461V8.21354ZM176.32 23.1543C176.452 25.6037 176.56 28.4063 176.56 29.3823V31.1566H168.83H161.101L161.33 26.8519C161.456 24.4841 161.649 21.6819 161.758 20.6238L161.958 18.7005H169.02H176.081L176.32 23.1543ZM109.517 37.3846V43.6127H79.842H50.1672V37.3846V31.1566H79.842H109.517V37.3846ZM177.045 37.6594C177.134 37.8103 177.326 40.6987 177.472 44.0772L177.738 50.2206L168.997 50.1221L160.257 50.0239L160.347 46.7267C160.396 44.9132 160.535 42.0692 160.655 40.4071L160.873 37.3846H168.878C173.281 37.3846 176.956 37.5084 177.045 37.6594ZM106.715 54.6949C107.225 64.1813 109.154 77.6999 111.945 91.3441C116.682 114.501 123.831 138.374 133.183 162.255C134.473 165.548 135.528 168.392 135.528 168.574C135.528 168.757 133.222 168.906 130.399 168.906H125.27L125.265 165.518C125.259 161.734 124.852 160.546 123.309 159.806C122.102 159.227 120.771 159.484 119.766 160.489C119.137 161.118 119.042 161.718 119.042 165.06V168.906H115.928H112.814V165.781C112.814 162.072 112.2 160.28 110.739 159.725C109.605 159.294 108.587 159.459 107.502 160.25C106.87 160.711 106.744 161.332 106.586 164.754L106.403 168.723H103.289H100.175L99.9916 164.754C99.8337 161.332 99.7077 160.711 99.0757 160.25C97.9909 159.459 96.9724 159.294 95.8382 159.725C94.3775 160.28 93.7635 162.072 93.7635 165.781V168.906H90.6495H87.5355V165.129C87.5355 161.84 87.4391 161.248 86.7925 160.554C85.7957 159.484 84.5101 159.211 83.2685 159.806C81.7254 160.546 81.3188 161.734 81.3129 165.518L81.3074 168.906H78.1934H75.0794V165.092V161.278L73.9136 160.297C72.4991 159.107 70.9377 159.249 69.6756 160.683C68.9389 161.521 68.8513 162.007 68.8513 165.263V168.906H65.7373H62.6233V165.215C62.6233 161.623 62.5943 161.494 61.5524 160.452C60.9069 159.806 60.0954 159.381 59.5093 159.381C58.9231 159.381 58.1116 159.806 57.4661 160.452C56.4242 161.494 56.3952 161.623 56.3952 165.215V168.906H53.2812H50.1672V165.215C50.1672 161.623 50.1382 161.494 49.0963 160.452C47.7067 159.062 46.3996 159.062 45.01 160.452C43.9681 161.494 43.9391 161.623 43.9391 165.215V168.906H40.8251H37.7111L37.7056 165.518C37.6997 161.734 37.2931 160.546 35.75 159.806C34.5084 159.211 33.2229 159.484 32.226 160.554C31.5794 161.248 31.483 161.84 31.483 165.129V168.906H27.6363C25.5206 168.906 23.7896 168.757 23.7896 168.574C23.7896 168.392 24.8447 165.548 26.1343 162.255C39.8554 127.216 49.126 90.8579 52.1726 60.139C52.48 57.0378 52.7317 53.5347 52.7317 52.3539V50.2071H79.6032H106.474L106.715 54.6949ZM57.2946 57.3345C56.13 58.4988 56.1241 60.1089 57.2793 61.452C58.1581 62.4738 58.1911 62.48 62.6233 62.48C67.0555 62.48 67.0884 62.4738 67.9673 61.452C69.1224 60.1089 69.1166 58.4988 67.9519 57.3345C67.0965 56.4787 66.8378 56.4351 62.6233 56.4351C58.4087 56.4351 58.1501 56.4787 57.2946 57.3345ZM76.1876 57.1587C74.6152 58.7311 74.9592 61.1043 76.9053 62.1107C77.8776 62.6133 79.6229 62.6778 89.7758 62.5862L101.521 62.48L102.405 61.452C103.56 60.1086 103.554 58.4988 102.389 57.3345L101.49 56.4351H89.2006C77.4523 56.4351 76.8793 56.467 76.1876 57.1587ZM178.157 57.4426C178.262 57.9965 178.455 60.7991 178.587 63.6706L178.826 68.8912H168.872H158.917L159.12 66.6015C159.232 65.3423 159.426 62.5393 159.551 60.3734L159.778 56.4351H168.873H177.967L178.157 57.4426ZM179.27 77.409C179.382 78.6685 179.575 81.4711 179.7 83.637L179.927 87.5754H168.885H157.842L158.029 86.3847C158.132 85.73 158.321 82.9274 158.45 80.1567L158.684 75.1193H168.875H179.066L179.27 77.409ZM71.7822 82.0313C65.0581 83.5044 58.9597 87.1028 58.9597 89.5973C58.9597 90.4575 59.4708 91.251 66.3784 101.113L70.6003 107.141L70.0244 108.349L69.4485 109.557H59.1389C48.9117 109.557 48.8234 109.563 48.0874 110.381C46.9433 111.652 46.8418 112.3 47.2385 115.803C48.1632 123.967 52.2254 131.56 58.3574 136.586C61.1124 138.845 62.6753 139.228 64.0513 137.983C64.454 137.618 67.2145 133.83 70.1852 129.565L75.5872 121.809H78.27H80.9524L86.6251 129.926C92.852 138.836 93.3884 139.338 95.6708 138.384C97.378 137.671 101.517 133.747 103.514 130.949C107.025 126.029 109.5 118.819 109.512 113.479C109.516 111.709 109.367 111.205 108.617 110.456L107.718 109.557H97.4377H87.1574L86.5646 108.314L85.9722 107.072L91.6995 98.8969C96.5911 91.9152 97.4271 90.5242 97.4271 89.3646C97.4271 88.2843 97.1838 87.8007 96.2364 86.9972C94.7076 85.7011 89.0899 83.0424 86.2532 82.2727C82.7718 81.3283 75.5425 81.2074 71.7822 82.0313ZM85.8869 88.8224C87.4988 89.3441 89.0603 89.9274 89.3566 90.1186C89.9267 90.4864 89.7644 90.7506 83.4231 99.7567L80.9081 103.329H78.2616H75.6146L71.1081 96.8823C68.6293 93.337 66.6539 90.3952 66.7188 90.3454C67.2533 89.9325 71.3272 88.5396 73.2476 88.1135C76.7811 87.3292 82.2149 87.6336 85.8869 88.8224ZM180.381 97.3754C180.504 99.3401 180.699 102.142 180.812 103.603L181.019 106.26H169.081H157.143V104.485C157.143 103.509 157.251 100.707 157.383 98.2572L157.622 93.8034H168.888H180.155L180.381 97.3754ZM80.3421 110.316C81.0415 110.866 81.3074 111.413 81.3074 112.301C81.3074 114.043 81.0012 114.636 79.7709 115.272C77.6171 116.386 75.2992 115.003 75.2992 112.605C75.2992 110.051 78.2832 108.697 80.3421 110.316ZM181.478 116.975C181.608 119.444 181.806 122.246 181.919 123.203L182.124 124.944H169.043H155.961L156.212 119.357C156.35 116.284 156.544 113.481 156.644 113.129C156.813 112.534 157.721 112.488 169.034 112.488H181.242L181.478 116.975ZM70.1248 116.867L70.6842 117.949L66.244 124.285C63.8019 127.77 61.7254 130.705 61.6294 130.805C61.5338 130.906 60.6017 130.073 59.5584 128.955C56.851 126.052 54.5118 121.313 53.6443 116.975L53.4061 115.785H61.4858H69.5654L70.1248 116.867ZM102.918 116.426C102.909 117.759 101.796 121.191 100.572 123.661C99.316 126.194 96.1738 130.439 95.3579 130.705C95.1264 130.78 93.055 128.154 90.7543 124.87C85.541 117.427 85.9199 118.131 86.4456 116.862L86.8918 115.785H94.9069C102.298 115.785 102.922 115.835 102.918 116.426ZM182.478 134.652C182.61 136.466 182.759 139.268 182.81 140.88L182.902 143.811L168.886 143.907L154.869 144.003L155.107 138.961C155.238 136.188 155.434 133.299 155.544 132.541L155.744 131.163L168.991 131.259L182.238 131.355L182.478 134.652ZM183.828 158.557C184.069 163.141 184.264 167.345 184.26 167.899L184.253 168.906H168.828H153.403L153.619 166.067C153.737 164.506 153.925 161.25 154.035 158.832C154.146 156.414 154.33 153.488 154.444 152.329L154.65 150.222H169.02H183.389L183.828 158.557ZM19.9264 182.262C18.7027 183.485 18.7027 185.468 19.9264 186.691L20.8254 187.59H46.6883C74.0748 187.59 74.2163 187.582 74.8519 185.925C75.341 184.651 75.0651 183.147 74.18 182.262L73.281 181.362H47.0532H20.8254L19.9264 182.262ZM85.504 182.262C84.6189 183.147 84.3431 184.651 84.8321 185.925C85.4905 187.641 83.9144 187.59 136.443 187.59H185.752L186.651 186.691C187.875 185.468 187.875 183.485 186.651 182.262L185.752 181.362H136.078H86.4031L85.504 182.262Z" fill="#F3F3F3"/>
<path fill-rule="evenodd" clip-rule="evenodd" d="M325.872 83.4847C324.002 85.7932 316.885 93.3933 309.049 101.45C306.004 104.58 299.053 111.776 293.602 117.44C288.151 123.104 282.742 128.719 281.581 129.917C280.421 131.115 278.616 132.999 277.572 134.103L275.672 136.109L292.133 135.961L308.594 135.813L308.717 148.779C308.802 157.652 308.7 161.744 308.396 161.744C308.152 161.744 307.147 161.373 306.163 160.921C298.417 157.355 291.877 155.884 282.637 155.628C274.733 155.409 268.738 156.113 262.745 157.966C261.161 158.456 259.76 158.834 259.633 158.807C259.506 158.78 258.884 159.027 258.251 159.356C257.619 159.685 256.626 160.147 256.046 160.382C255.466 160.617 254.33 161.103 253.523 161.462C252.715 161.82 252.029 162.078 251.998 162.035C251.918 161.921 251.407 121.303 251.405 114.807L251.403 109.401L232.304 109.536L213.205 109.672L213.367 136.168C213.524 162.009 213.508 162.653 212.733 162.224C208.874 160.089 203.53 158.41 195.056 156.672C189.491 155.531 171.82 156.199 170.963 157.584C170.839 157.785 170.334 157.949 169.842 157.949C169.35 157.949 168.364 158.135 167.651 158.362C163.325 159.738 160.617 160.712 158.765 161.556C157.608 162.084 156.55 162.447 156.413 162.362C156.277 162.278 156.178 156.46 156.195 149.433L156.225 136.657L172.609 136.446L188.992 136.235L187.17 134.512C183.955 131.474 141.114 88.2463 138.773 85.6798L136.516 83.2047L135.142 84.6324C134.386 85.4175 131.711 88.2417 129.197 90.9085C123.025 97.4579 110.562 110.506 104.049 117.237C98.8167 122.646 93.8421 127.868 88.3678 133.7C86.8466 135.32 85.6855 136.781 85.7872 136.946C85.8894 137.111 86.5849 137.168 87.3333 137.072C88.9448 136.866 117.626 136.744 117.812 136.942C117.881 137.017 118.065 156.052 118.219 179.242C118.487 219.665 118.559 223.913 119.11 231.526C119.605 238.372 122.491 249.005 125.223 254.044C125.908 255.307 126.469 256.473 126.469 256.635C126.469 257.145 130.257 263.247 130.91 263.788C131.253 264.073 131.535 264.52 131.538 264.781C131.555 266.78 143.379 278.363 149.177 282.062C152.063 283.903 152.644 284.225 157.069 286.447C162.972 289.41 171.263 291.87 177.962 292.646C179.924 292.873 191.029 292.916 192.524 292.701C196.435 292.141 197.867 291.872 199.699 291.35C200.86 291.019 201.809 290.768 201.809 290.792C201.809 290.907 204.445 290.236 205.186 289.932C205.65 289.742 206.695 289.349 207.507 289.059C208.913 288.557 209.988 288.136 212.732 287.015C213.401 286.742 213.997 286.572 214.057 286.639C214.117 286.706 214.269 292.5 214.395 299.515L214.623 312.27H198.192C189.155 312.27 181.761 312.416 181.761 312.595C181.761 312.774 190.26 321.407 200.649 331.778C211.037 342.15 222.857 354.058 226.916 358.24L234.295 365.845L237.045 362.944C238.558 361.349 242.455 357.219 245.705 353.766C248.955 350.313 257.322 341.604 264.298 334.412C283.672 314.439 285.368 312.664 285.535 312.198C285.64 311.904 280.437 311.811 269.39 311.911L253.091 312.059L253.08 308.686C253.073 306.831 252.954 300.966 252.815 295.655C252.602 287.546 252.655 286.032 253.143 286.222C253.463 286.346 255.149 287.02 256.89 287.72C261.336 289.507 264.006 290.296 269.341 291.403C275.658 292.713 287.046 292.628 293.188 291.224C300.835 289.477 304.522 288.226 310.071 285.496C313.497 283.81 319.211 280.202 320.844 278.695C321.313 278.261 323.156 276.616 324.94 275.039C329.788 270.752 332.929 266.801 338.491 257.992C339.11 257.012 339.617 256.082 339.617 255.925C339.617 255.769 340.187 254.436 340.883 252.963C341.579 251.491 342.149 250.04 342.149 249.739C342.149 249.439 342.321 249.012 342.532 248.792C343.283 248.005 345.726 238.663 346.164 234.899C346.272 233.971 346.48 232.263 346.624 231.104C346.945 228.537 346.894 192.536 346.523 159.741C346.291 139.261 346.338 135.601 346.837 135.593C347.16 135.587 354.527 135.592 363.207 135.602C378.167 135.621 378.958 135.583 378.402 134.886C377.783 134.109 369.829 125.968 354.527 110.448C349.46 105.309 341.516 97.1669 336.873 92.3543C332.23 87.5417 328.181 83.3506 327.874 83.0399C327.103 82.2594 326.813 82.3239 325.872 83.4847ZM286.224 195.112C291.444 196.252 295.645 198.5 300.301 202.643C301.943 204.104 304.642 207.746 305.8 210.064C308.427 215.321 308.945 217.547 308.983 223.725C309.019 229.912 308.363 232.896 305.97 237.429C303.204 242.665 298.245 247.729 293.245 250.421C288.86 252.782 281.838 253.765 275.992 252.837C272.621 252.302 267.683 250.265 264.921 248.27C262.139 246.262 257.466 241.08 256.024 238.406C253.113 233.006 252.582 230.877 252.522 224.358C252.462 217.87 252.888 215.776 255.312 210.654C257.798 205.402 263.374 199.762 268.286 197.53C271.396 196.117 271.94 195.912 274.195 195.301C278.035 194.261 282.038 194.198 286.224 195.112ZM193.819 196.455C195.461 197.02 197.257 197.742 197.81 198.06C201.946 200.435 206.311 204.197 208.254 207.061C208.887 207.993 209.502 208.852 209.621 208.968C210.143 209.476 212.137 214.035 212.849 216.347C213.454 218.312 213.623 220.193 213.607 224.779C213.585 231.133 213.088 233.279 210.467 238.329C207.243 244.54 201.326 249.674 194.212 252.431C189.753 254.159 181.115 254.198 176.696 252.511C176.348 252.378 175.792 252.215 175.46 252.148C174.208 251.898 170.473 249.633 167.764 247.484C161.793 242.745 158.266 236.677 157.122 229.174C155.774 220.334 157.679 212.928 163.119 205.855C164.389 204.205 165.675 202.707 165.978 202.527C166.282 202.347 167.421 201.52 168.511 200.69C172.088 197.961 176.024 196.241 180.494 195.452C183.981 194.837 190.554 195.332 193.819 196.455Z" fill="#2E6C77"/>
</svg>
