<svg width="975" height="1014" viewBox="0 0 975 1014" fill="none" xmlns="http://www.w3.org/2000/svg">
<path fill-rule="evenodd" clip-rule="evenodd" d="M851.314 3.44645C844.683 11.7084 819.447 38.9086 791.661 67.7417C780.864 78.9462 756.218 104.699 736.891 124.97C717.564 145.242 698.383 165.337 694.268 169.625C690.152 173.914 683.754 180.655 680.05 184.605L673.316 191.787L731.683 191.257L790.05 190.728L790.487 237.13C790.786 268.888 790.425 283.533 789.348 283.533C788.481 283.533 784.918 282.207 781.428 280.586C753.964 267.825 730.774 262.559 698.009 261.643C669.984 260.858 648.728 263.38 627.478 270.012C621.86 271.764 616.894 273.119 616.444 273.021C615.992 272.923 613.787 273.807 611.544 274.986C609.3 276.164 605.782 277.817 603.724 278.659C601.666 279.499 597.64 281.238 594.777 282.522C591.915 283.806 589.481 284.728 589.37 284.573C589.086 284.167 587.277 138.797 587.269 115.546L587.262 96.199L519.541 96.6834L451.82 97.1678L452.392 191.997C452.949 284.481 452.893 286.786 450.147 285.252C436.461 277.609 417.512 271.601 387.467 265.381C367.733 261.296 305.075 263.688 302.038 268.643C301.597 269.363 299.808 269.952 298.063 269.952C296.318 269.952 292.822 270.616 290.295 271.428C274.955 276.353 265.352 279.837 258.785 282.861C254.683 284.749 250.931 286.047 250.446 285.745C249.963 285.443 249.614 264.62 249.673 239.471L249.78 193.746L307.874 192.991L365.965 192.237L359.506 186.072C348.106 175.197 196.2 20.4879 187.899 11.3025L179.896 2.44445L175.023 7.55403C172.342 10.3638 162.857 20.4713 153.945 30.0159C132.059 53.4557 87.8674 100.154 64.775 124.246C46.2217 143.602 28.5829 162.291 9.17215 183.164C3.77844 188.964 -0.338675 194.192 0.0220027 194.782C0.384178 195.372 2.85056 195.576 5.50402 195.234C11.218 194.497 112.917 194.058 113.574 194.767C113.821 195.036 114.471 263.161 115.017 346.158C115.967 490.828 116.225 506.033 118.176 533.277C119.932 557.781 130.167 595.836 139.854 613.869C142.283 618.391 144.271 622.564 144.271 623.142C144.271 624.968 157.703 646.808 160.016 648.744C161.233 649.762 162.236 651.362 162.245 652.298C162.306 659.452 204.23 700.906 224.789 714.144C235.021 720.732 237.082 721.887 252.774 729.838C273.703 740.443 303.101 749.247 326.855 752.025C333.813 752.838 373.188 752.989 378.487 752.223C392.358 750.217 397.433 749.253 403.929 747.386C408.045 746.203 411.412 745.304 411.412 745.388C411.412 745.802 420.758 743.401 423.385 742.313C425.031 741.631 428.735 740.224 431.616 739.186C436.6 737.39 440.413 735.884 450.143 731.87C452.513 730.892 454.626 730.287 454.84 730.527C455.053 730.766 455.592 751.501 456.038 776.608L456.847 822.257H398.585C366.541 822.257 340.324 822.78 340.324 823.421C340.324 824.063 370.461 854.957 407.297 892.076C444.131 929.196 486.043 971.814 500.434 986.783L526.599 1014L536.352 1003.62C541.716 997.908 555.534 983.127 567.058 970.769C578.581 958.413 608.248 927.243 632.985 901.502C701.68 830.02 707.695 823.669 708.286 821.999C708.658 820.947 690.211 820.616 651.04 820.974L593.248 821.502L593.206 809.43C593.184 802.79 592.76 781.802 592.266 762.792C591.512 733.773 591.699 728.354 593.431 729.033C594.565 729.477 600.544 731.89 606.717 734.393C622.482 740.789 631.948 743.615 650.867 747.575C673.266 752.263 713.644 751.958 735.424 746.935C762.536 740.683 775.609 736.206 795.288 726.433C807.434 720.4 827.695 707.489 833.484 702.093C835.148 700.54 841.683 694.653 848.008 689.009C865.199 673.668 876.337 659.527 896.057 628.001C898.253 624.492 900.049 621.162 900.049 620.602C900.049 620.042 902.069 615.272 904.539 610.002C907.008 604.733 909.028 599.54 909.028 598.463C909.028 597.387 909.639 595.861 910.386 595.072C913.048 592.258 921.711 558.821 923.266 545.35C923.649 542.03 924.384 535.918 924.897 531.768C926.034 522.58 925.853 393.734 924.536 276.365C923.713 203.067 923.882 189.969 925.651 189.938C926.798 189.919 952.917 189.935 983.695 189.973C1036.74 190.038 1039.55 189.905 1037.57 187.408C1035.38 184.63 1007.17 155.492 952.916 99.9459C934.951 81.5538 906.784 52.4145 890.321 35.1904C873.859 17.9663 859.499 2.96658 858.412 1.85442C855.676 -0.93879 854.648 -0.707908 851.314 3.44645ZM710.73 402.956C729.239 407.035 744.134 415.08 760.645 429.909C766.466 435.138 776.036 448.173 780.142 456.466C789.457 475.282 791.295 483.25 791.426 505.36C791.557 527.501 789.229 538.183 780.744 554.404C770.938 573.146 753.353 591.269 735.626 600.901C720.076 609.352 695.176 612.871 674.448 609.55C662.495 607.633 644.988 600.343 635.193 593.204C625.33 586.016 608.759 567.47 603.646 557.902C593.324 538.576 591.442 530.956 591.229 507.624C591.017 484.403 592.528 476.909 601.123 458.58C609.938 439.781 629.706 419.596 647.125 411.607C658.154 406.551 660.081 405.817 668.077 403.631C681.693 399.909 695.887 399.684 710.73 402.956ZM383.082 407.761C388.902 409.783 395.27 412.366 397.232 413.504C411.897 422.005 427.375 435.468 434.262 445.719C436.507 449.057 438.688 452.129 439.11 452.544C440.961 454.364 448.032 470.68 450.556 478.952C452.702 485.987 453.3 492.718 453.245 509.133C453.167 531.874 451.403 539.553 442.11 557.626C430.681 579.855 409.697 598.229 384.474 608.097C368.662 614.281 338.036 614.422 322.365 608.383C321.13 607.908 319.159 607.324 317.985 607.086C313.544 606.188 300.299 598.084 290.694 590.391C269.522 573.431 257.018 551.715 252.959 524.86C248.181 493.225 254.935 466.719 274.224 441.405C278.726 435.497 283.289 430.137 284.364 429.492C285.438 428.849 289.479 425.89 293.342 422.917C306.028 413.153 319.984 406.996 335.834 404.172C348.198 401.971 371.504 403.741 383.082 407.761Z" fill="#2E6C77" fill-opacity="0.02"/>
</svg>
