<svg width="141" height="161" viewBox="0 0 141 161" fill="none" xmlns="http://www.w3.org/2000/svg">
<path fill-rule="evenodd" clip-rule="evenodd" d="M66.4185 0.082706C61.9142 0.507941 59.8063 0.843627 56.644 1.63971C46.6077 4.16598 38.1718 8.89598 31.5918 15.6864C25.3219 22.157 21.687 29.43 20.4339 38.0119C20.2689 39.1417 20.0468 40.1711 19.9405 40.2993C19.8341 40.4275 19.2622 40.7265 18.6695 40.9638C15.6345 42.179 13.1449 44.5577 11.6398 47.6801C10.5134 50.0168 10.4138 50.5836 10.2201 55.7593C10.0445 60.4589 10.1433 70.2251 10.3999 73.5095C10.653 76.7502 11.9008 79.3892 14.3284 81.8169C17.0836 84.5724 19.6843 85.5679 24.1552 85.5788C25.4997 85.5819 25.4036 85.4674 25.6035 87.3068C25.8793 89.8451 26.9778 92.9808 28.2968 94.9949C29.7143 97.1599 32.3092 99.192 34.5442 99.8877C35.7091 100.25 38.7827 100.527 41.924 100.551C43.1533 100.561 44.798 100.616 45.5792 100.674L46.9992 100.78L48.2643 102.229C49.3483 103.471 50.1497 104.212 52.7554 106.383L53.1689 106.727L52.1665 108.802C50.1896 112.892 47.2456 116.61 44.3451 118.681C42.7061 119.85 41.3196 120.324 36.5584 121.34C23.7342 124.078 12.9806 127.909 7.01066 131.867C1.94372 135.227 0.531599 140.008 0.114172 155.218L0 159.376L0.799534 160.188L1.59907 161H70.5254H139.452L140.226 160.214L141 159.428L141 157.708C140.999 154.85 140.685 148.421 140.418 145.801C139.828 140.016 138.587 136.178 136.62 134.052C132.635 129.748 119.906 124.658 105.188 121.484C101.139 120.611 98.8085 119.955 97.7496 119.391C94.8395 117.841 90.9683 113.264 88.8184 108.831C88.3362 107.837 87.941 106.94 87.9402 106.837C87.9393 106.734 88.7413 105.98 89.7222 105.161C92.5631 102.791 95.1427 99.7542 98.044 95.3636C101.185 90.61 103.396 86.1853 105.684 80.0772L105.869 79.5842L106.596 80.9881C107.53 82.7926 108.657 83.9371 110.28 84.7319L111.512 85.3351L115.284 85.3877C120.159 85.4555 121.257 85.3124 123.176 84.3591C124.979 83.4633 126.256 82.4723 127.402 81.0791C129.322 78.7443 130.359 76.3468 130.642 73.594C131.143 68.7059 130.979 52.9009 130.401 50.4502C129.408 46.2355 126.349 42.5821 122.501 41.0147C121.624 40.6573 121.209 40.3907 121.056 40.0852C120.938 39.8496 120.713 38.8065 120.557 37.7673C119.695 32.0445 117.597 26.6106 114.381 21.7727C110.951 16.613 106.072 11.8969 100.588 8.43986C98.3803 7.04815 93.9696 4.84278 91.2581 3.77459C84.9341 1.28349 77.1663 -0.0707598 69.6219 0.00285118C68.1762 0.0169819 66.7347 0.0529658 66.4185 0.082706ZM76.9322 4.24386C83.8037 5.06131 91.0463 7.5212 96.7158 10.9633C102.053 14.2037 106.998 18.8795 110.076 23.5981C112.467 27.2642 114.732 33.1618 115.453 37.603C115.593 38.4615 115.746 39.4043 115.794 39.6979L115.881 40.2319L114.354 40.2347C113.514 40.2364 112.309 40.3576 111.677 40.5044C111.044 40.6511 110.273 40.7792 109.964 40.7891L109.401 40.807L108.974 39.3282C107.958 35.8036 105.751 30.5529 104.339 28.2994C99.3429 20.3241 92.4203 14.9255 83.5177 12.0616C81.1552 11.3015 78.7725 10.7379 76.7679 10.4648C74.6237 10.1728 65.6462 10.173 63.8722 10.4653C57.0943 11.5815 49.7763 14.8478 44.6306 19.0532C41.9377 21.2541 39.3549 24.1197 37.4637 27.0049C35.6138 29.8273 33.0988 35.5966 32.1506 39.1927C31.9165 40.0806 31.6663 40.8691 31.5945 40.9449C31.5227 41.0208 30.9198 40.9245 30.2548 40.7308C29.5855 40.5361 28.3119 40.3364 27.4028 40.2837C26.4993 40.2314 25.6677 40.1154 25.5547 40.0259C25.2629 39.7945 25.2996 38.9383 25.6901 36.8636C26.7636 31.1587 28.91 26.2527 32.3288 21.6895C37.8115 14.3716 45.8693 8.94363 55.6508 5.97882C57.9871 5.27064 61.7551 4.49707 64.0365 4.25734C64.94 4.16237 65.938 4.05458 66.2542 4.01761C67.3547 3.88945 75.382 4.05951 76.9322 4.24386ZM74.2341 15.2671C82.3244 16.0545 89.7975 19.4592 95.1943 24.816C98.1396 27.7397 99.5107 29.672 101.411 33.5774C104.313 39.5413 105.142 43.3236 105.301 51.3229C105.514 62.0275 104.542 68.6239 101.537 76.8731C98.6273 84.8588 95.2671 91.2107 91.3423 96.1436C89.4666 98.5011 87.9633 100.024 85.4745 102.089C82.6993 104.391 82.189 104.956 82.189 105.728C82.189 107.319 85.4619 113.623 88.1956 117.297C90.5152 120.414 93.4443 122.941 96.1708 124.177C97.8053 124.918 99.0602 125.285 102.708 126.09C109.948 127.686 116.781 129.604 120.95 131.209C125.999 133.153 131.262 135.815 132.495 137.048C134.439 138.993 135.381 143.593 135.875 153.565L135.991 155.906H70.5669H5.14333L5.14547 154.222C5.14744 152.576 5.44839 148.509 5.79896 145.391C6.30575 140.882 7.03169 138.583 8.37202 137.243C11.6329 133.981 23.5982 129.34 35.4523 126.738C41.8557 125.333 43.3701 124.912 45.1348 124.05C49.543 121.897 53.7003 117.119 57.1112 110.287C58.4522 107.601 58.9229 106.252 58.7817 105.499C58.6378 104.732 57.6929 103.757 55.5273 102.141L53.704 100.78L60.9237 100.662C69.8589 100.516 72.2887 100.36 73.0539 99.8876C73.8758 99.3795 74.8877 98.2103 75.1374 97.4803C75.2585 97.1263 75.3604 96.2453 75.3638 95.5223C75.3717 93.8707 74.8477 92.6691 73.715 91.7407C72.5511 90.7868 71.9092 90.666 67.9791 90.6617C64.4363 90.6579 63.8541 90.7343 62.8921 91.329C61.7561 92.0312 60.5099 93.9374 60.5062 94.9786C60.5052 95.2218 60.4299 95.4668 60.3388 95.5232C60.2477 95.5795 57.6541 95.5726 54.5754 95.5077L48.9777 95.3896L47.7016 93.4842C44.3229 88.4396 41.8153 83.2899 39.1726 75.9694C36.7411 69.2345 35.5319 61.7816 35.5361 53.5583C35.5409 44.4483 37.0792 37.7964 40.5937 31.6878C46.0961 22.1239 55.8095 16.1695 67.4863 15.2022C69.0543 15.0722 72.5806 15.1063 74.2341 15.2671ZM28.5225 45.5091C28.7198 45.61 29.1954 45.9951 29.5795 46.3648L30.2776 47.037V62.8239V78.6107L29.4794 79.3971C28.4816 80.3802 28.0742 80.4794 25.0208 80.4829C20.8787 80.4875 19.7109 80.1153 17.7732 78.1733C16.3715 76.7685 15.7152 75.4633 15.4867 73.6262C15.2242 71.5158 15.2033 53.4021 15.4619 51.9801C15.7564 50.3602 16.4318 49.0368 17.6229 47.7457C18.7845 46.4866 19.7536 45.8545 20.977 45.5576C22.0733 45.2914 28.0221 45.2533 28.5225 45.5091ZM120.978 45.8614C122.715 46.7145 124.55 48.7563 125.262 50.6287C125.765 51.9514 125.93 56.0972 125.833 64.9606C125.727 74.5061 125.623 75.2289 124.071 77.193C122.403 79.3036 121.227 80.0483 119.133 80.3202C117.534 80.5279 113.632 80.5312 112.915 80.3255C112.604 80.2361 111.994 79.8138 111.561 79.3869L110.773 78.6107V62.8239V47.037L111.471 46.3668C111.855 45.9981 112.317 45.6118 112.498 45.5084C112.724 45.3793 113.955 45.3343 116.441 45.3642C120.013 45.4072 120.065 45.413 120.978 45.8614ZM36.1853 82.2132C37.2577 85.0793 39.8367 90.4056 41.5071 93.2039C42.2023 94.3689 42.7444 95.3488 42.7116 95.3817C42.6787 95.4147 41.5386 95.4453 40.1783 95.4499C38.3978 95.4558 37.4122 95.3827 36.6606 95.189C33.9788 94.4974 32.4385 92.9029 31.3441 89.6851C30.8906 88.3515 30.366 85.6879 30.4922 85.3589C30.5439 85.224 30.9811 84.822 31.4635 84.4654C33.1103 83.2487 34.2329 81.8093 34.8749 80.0915C34.9759 79.8212 35.1128 79.6782 35.1892 79.7629C35.2638 79.8453 35.7119 80.948 36.1853 82.2132Z" fill="#2E6C77"/>
</svg>
