<svg width="144" height="163" viewBox="0 0 144 163" fill="none" xmlns="http://www.w3.org/2000/svg">
<mask id="path-1-outside-1_283_81" maskUnits="userSpaceOnUse" x="0" y="0" width="144" height="163" fill="black">
<rect fill="white" width="144" height="163"/>
<path fill-rule="evenodd" clip-rule="evenodd" d="M68.4185 1.08271C63.9142 1.50794 61.8063 1.84363 58.644 2.63971C48.6077 5.16598 40.1718 9.89598 33.5919 16.6864C27.3219 23.157 23.687 30.43 22.4339 39.0119C22.2689 40.1417 22.0468 41.1711 21.9405 41.2993C21.8341 41.4275 21.2622 41.7265 20.6695 41.9638C17.6345 43.179 15.1449 45.5577 13.6398 48.6801C12.5134 51.0168 12.4138 51.5836 12.2201 56.7593C12.0445 61.4589 12.1433 71.2251 12.3999 74.5095C12.653 77.7502 13.9008 80.3892 16.3284 82.8169C19.0836 85.5724 21.6843 86.5679 26.1552 86.5788C27.4997 86.5819 27.4036 86.4674 27.6035 88.3068C27.8793 90.8451 28.9778 93.9808 30.2968 95.9949C31.7143 98.1599 34.3092 100.192 36.5442 100.888C37.7091 101.25 40.7827 101.527 43.924 101.551C45.1533 101.561 46.798 101.616 47.5792 101.674L48.9992 101.78L50.2643 103.229C51.3483 104.471 52.1497 105.212 54.7554 107.383L55.1689 107.727L54.1665 109.802C52.1896 113.892 49.2456 117.61 46.3451 119.681C44.7061 120.85 43.3196 121.324 38.5584 122.34C25.7342 125.078 14.9806 128.909 9.01066 132.867C3.94372 136.227 2.5316 141.008 2.11417 156.218L2 160.376L2.79953 161.188L3.59907 162H72.5254H141.452L142.226 161.214L143 160.428L143 158.708C142.999 155.85 142.685 149.421 142.418 146.801C141.828 141.016 140.587 137.178 138.62 135.052C134.635 130.748 121.906 125.658 107.188 122.484C103.139 121.611 100.809 120.955 99.7496 120.391C96.8394 118.841 92.9683 114.264 90.8184 109.831C90.3362 108.837 89.941 107.94 89.9402 107.837C89.9393 107.734 90.7413 106.98 91.7222 106.161C94.5631 103.791 97.1427 100.754 100.044 96.3636C103.185 91.61 105.396 87.1852 107.684 81.0772L107.869 80.5843L108.596 81.9881C109.53 83.7926 110.657 84.9371 112.28 85.7319L113.512 86.3351L117.284 86.3877C122.159 86.4555 123.257 86.3124 125.176 85.3591C126.979 84.4633 128.256 83.4723 129.402 82.0791C131.322 79.7443 132.359 77.3468 132.642 74.594C133.143 69.7059 132.979 53.9009 132.401 51.4502C131.408 47.2355 128.349 43.5821 124.501 42.0147C123.624 41.6573 123.209 41.3907 123.056 41.0852C122.938 40.8496 122.713 39.8065 122.557 38.7673C121.695 33.0445 119.597 27.6106 116.381 22.7727C112.951 17.613 108.072 12.8969 102.588 9.43986C100.38 8.04815 95.9696 5.84278 93.2581 4.77459C86.9341 2.28349 79.1663 0.92924 71.6219 1.00285C70.1762 1.01698 68.7347 1.05297 68.4185 1.08271ZM78.9322 5.24386C85.8037 6.06131 93.0463 8.5212 98.7158 11.9633C104.053 15.2037 108.998 19.8795 112.076 24.5981C114.467 28.2642 116.732 34.1618 117.453 38.603C117.593 39.4615 117.746 40.4043 117.794 40.6979L117.881 41.2319L116.354 41.2347C115.514 41.2364 114.309 41.3576 113.677 41.5044C113.044 41.6511 112.273 41.7792 111.964 41.7891L111.401 41.807L110.974 40.3282C109.958 36.8036 107.751 31.5529 106.339 29.2994C101.343 21.3241 94.4203 15.9255 85.5177 13.0616C83.1552 12.3015 80.7726 11.7379 78.7679 11.4648C76.6237 11.1728 67.6462 11.173 65.8722 11.4653C59.0943 12.5815 51.7763 15.8478 46.6306 20.0532C43.9377 22.2541 41.3549 25.1197 39.4637 28.0049C37.6138 30.8273 35.0988 36.5966 34.1506 40.1927C33.9165 41.0806 33.6663 41.8691 33.5945 41.9449C33.5227 42.0208 32.9198 41.9245 32.2548 41.7308C31.5855 41.5361 30.3119 41.3364 29.4028 41.2837C28.4993 41.2314 27.6677 41.1154 27.5547 41.0259C27.2629 40.7945 27.2996 39.9383 27.6901 37.8636C28.7636 32.1587 30.91 27.2527 34.3288 22.6895C39.8115 15.3716 47.8693 9.94363 57.6508 6.97882C59.9871 6.27064 63.7551 5.49707 66.0365 5.25734C66.94 5.16237 67.938 5.05458 68.2542 5.01761C69.3547 4.88945 77.382 5.05951 78.9322 5.24386ZM76.2341 16.2671C84.3244 17.0545 91.7975 20.4592 97.1943 25.816C100.14 28.7397 101.511 30.672 103.411 34.5774C106.313 40.5413 107.142 44.3236 107.301 52.3229C107.514 63.0275 106.542 69.6239 103.537 77.8731C100.627 85.8588 97.2671 92.2107 93.3423 97.1436C91.4666 99.5011 89.9633 101.024 87.4745 103.089C84.6993 105.391 84.189 105.956 84.189 106.728C84.189 108.319 87.4619 114.623 90.1956 118.297C92.5152 121.414 95.4443 123.941 98.1708 125.177C99.8053 125.918 101.06 126.285 104.708 127.09C111.948 128.686 118.781 130.604 122.95 132.209C127.999 134.153 133.262 136.815 134.495 138.048C136.439 139.993 137.381 144.593 137.875 154.565L137.991 156.906H72.5669H7.14333L7.14547 155.222C7.14744 153.576 7.44839 149.509 7.79896 146.391C8.30575 141.882 9.03169 139.583 10.372 138.243C13.6329 134.981 25.5982 130.34 37.4523 127.738C43.8557 126.333 45.3701 125.912 47.1348 125.05C51.543 122.897 55.7003 118.119 59.1112 111.287C60.4522 108.601 60.9229 107.252 60.7817 106.499C60.6378 105.732 59.6929 104.757 57.5273 103.141L55.704 101.78L62.9237 101.662C71.8589 101.516 74.2887 101.36 75.0539 100.888C75.8758 100.38 76.8877 99.2103 77.1374 98.4803C77.2585 98.1263 77.3604 97.2453 77.3638 96.5223C77.3717 94.8707 76.8477 93.6691 75.715 92.7407C74.5511 91.7868 73.9092 91.666 69.9791 91.6617C66.4363 91.6579 65.8541 91.7343 64.8921 92.329C63.7561 93.0312 62.5099 94.9374 62.5062 95.9786C62.5052 96.2218 62.4299 96.4668 62.3388 96.5232C62.2477 96.5795 59.6541 96.5726 56.5754 96.5077L50.9777 96.3896L49.7016 94.4842C46.3229 89.4396 43.8153 84.2899 41.1726 76.9694C38.7411 70.2345 37.5319 62.7816 37.5361 54.5583C37.5409 45.4483 39.0792 38.7964 42.5937 32.6878C48.0961 23.1239 57.8095 17.1695 69.4863 16.2022C71.0543 16.0722 74.5806 16.1063 76.2341 16.2671ZM30.5225 46.5091C30.7198 46.61 31.1954 46.9951 31.5795 47.3648L32.2776 48.037V63.8239V79.6107L31.4794 80.3971C30.4816 81.3802 30.0742 81.4794 27.0208 81.4829C22.8787 81.4875 21.7109 81.1153 19.7732 79.1733C18.3715 77.7685 17.7152 76.4633 17.4867 74.6262C17.2242 72.5158 17.2033 54.4021 17.4619 52.9801C17.7564 51.3602 18.4318 50.0368 19.6229 48.7457C20.7845 47.4866 21.7536 46.8545 22.977 46.5576C24.0733 46.2914 30.0221 46.2533 30.5225 46.5091ZM122.978 46.8614C124.715 47.7145 126.55 49.7563 127.262 51.6287C127.765 52.9514 127.93 57.0972 127.833 65.9606C127.727 75.5061 127.623 76.2289 126.071 78.193C124.403 80.3036 123.227 81.0483 121.133 81.3202C119.534 81.5279 115.632 81.5312 114.915 81.3255C114.604 81.2361 113.994 80.8138 113.561 80.3869L112.773 79.6107V63.8239V48.037L113.471 47.3668C113.855 46.9981 114.317 46.6118 114.498 46.5084C114.724 46.3793 115.955 46.3343 118.441 46.3642C122.013 46.4072 122.065 46.413 122.978 46.8614ZM38.1853 83.2132C39.2577 86.0793 41.8367 91.4056 43.5071 94.2039C44.2023 95.3689 44.7444 96.3488 44.7116 96.3817C44.6787 96.4147 43.5386 96.4453 42.1783 96.4499C40.3978 96.4558 39.4122 96.3827 38.6606 96.189C35.9788 95.4974 34.4385 93.9029 33.3441 90.6851C32.8906 89.3515 32.366 86.6879 32.4922 86.3589C32.5439 86.224 32.9811 85.822 33.4635 85.4654C35.1103 84.2487 36.2329 82.8093 36.8749 81.0915C36.9759 80.8212 37.1128 80.6782 37.1892 80.7629C37.2638 80.8453 37.7119 81.948 38.1853 83.2132Z"/>
</mask>
<path fill-rule="evenodd" clip-rule="evenodd" d="M68.4185 1.08271C63.9142 1.50794 61.8063 1.84363 58.644 2.63971C48.6077 5.16598 40.1718 9.89598 33.5919 16.6864C27.3219 23.157 23.687 30.43 22.4339 39.0119C22.2689 40.1417 22.0468 41.1711 21.9405 41.2993C21.8341 41.4275 21.2622 41.7265 20.6695 41.9638C17.6345 43.179 15.1449 45.5577 13.6398 48.6801C12.5134 51.0168 12.4138 51.5836 12.2201 56.7593C12.0445 61.4589 12.1433 71.2251 12.3999 74.5095C12.653 77.7502 13.9008 80.3892 16.3284 82.8169C19.0836 85.5724 21.6843 86.5679 26.1552 86.5788C27.4997 86.5819 27.4036 86.4674 27.6035 88.3068C27.8793 90.8451 28.9778 93.9808 30.2968 95.9949C31.7143 98.1599 34.3092 100.192 36.5442 100.888C37.7091 101.25 40.7827 101.527 43.924 101.551C45.1533 101.561 46.798 101.616 47.5792 101.674L48.9992 101.78L50.2643 103.229C51.3483 104.471 52.1497 105.212 54.7554 107.383L55.1689 107.727L54.1665 109.802C52.1896 113.892 49.2456 117.61 46.3451 119.681C44.7061 120.85 43.3196 121.324 38.5584 122.34C25.7342 125.078 14.9806 128.909 9.01066 132.867C3.94372 136.227 2.5316 141.008 2.11417 156.218L2 160.376L2.79953 161.188L3.59907 162H72.5254H141.452L142.226 161.214L143 160.428L143 158.708C142.999 155.85 142.685 149.421 142.418 146.801C141.828 141.016 140.587 137.178 138.62 135.052C134.635 130.748 121.906 125.658 107.188 122.484C103.139 121.611 100.809 120.955 99.7496 120.391C96.8394 118.841 92.9683 114.264 90.8184 109.831C90.3362 108.837 89.941 107.94 89.9402 107.837C89.9393 107.734 90.7413 106.98 91.7222 106.161C94.5631 103.791 97.1427 100.754 100.044 96.3636C103.185 91.61 105.396 87.1852 107.684 81.0772L107.869 80.5843L108.596 81.9881C109.53 83.7926 110.657 84.9371 112.28 85.7319L113.512 86.3351L117.284 86.3877C122.159 86.4555 123.257 86.3124 125.176 85.3591C126.979 84.4633 128.256 83.4723 129.402 82.0791C131.322 79.7443 132.359 77.3468 132.642 74.594C133.143 69.7059 132.979 53.9009 132.401 51.4502C131.408 47.2355 128.349 43.5821 124.501 42.0147C123.624 41.6573 123.209 41.3907 123.056 41.0852C122.938 40.8496 122.713 39.8065 122.557 38.7673C121.695 33.0445 119.597 27.6106 116.381 22.7727C112.951 17.613 108.072 12.8969 102.588 9.43986C100.38 8.04815 95.9696 5.84278 93.2581 4.77459C86.9341 2.28349 79.1663 0.92924 71.6219 1.00285C70.1762 1.01698 68.7347 1.05297 68.4185 1.08271ZM78.9322 5.24386C85.8037 6.06131 93.0463 8.5212 98.7158 11.9633C104.053 15.2037 108.998 19.8795 112.076 24.5981C114.467 28.2642 116.732 34.1618 117.453 38.603C117.593 39.4615 117.746 40.4043 117.794 40.6979L117.881 41.2319L116.354 41.2347C115.514 41.2364 114.309 41.3576 113.677 41.5044C113.044 41.6511 112.273 41.7792 111.964 41.7891L111.401 41.807L110.974 40.3282C109.958 36.8036 107.751 31.5529 106.339 29.2994C101.343 21.3241 94.4203 15.9255 85.5177 13.0616C83.1552 12.3015 80.7726 11.7379 78.7679 11.4648C76.6237 11.1728 67.6462 11.173 65.8722 11.4653C59.0943 12.5815 51.7763 15.8478 46.6306 20.0532C43.9377 22.2541 41.3549 25.1197 39.4637 28.0049C37.6138 30.8273 35.0988 36.5966 34.1506 40.1927C33.9165 41.0806 33.6663 41.8691 33.5945 41.9449C33.5227 42.0208 32.9198 41.9245 32.2548 41.7308C31.5855 41.5361 30.3119 41.3364 29.4028 41.2837C28.4993 41.2314 27.6677 41.1154 27.5547 41.0259C27.2629 40.7945 27.2996 39.9383 27.6901 37.8636C28.7636 32.1587 30.91 27.2527 34.3288 22.6895C39.8115 15.3716 47.8693 9.94363 57.6508 6.97882C59.9871 6.27064 63.7551 5.49707 66.0365 5.25734C66.94 5.16237 67.938 5.05458 68.2542 5.01761C69.3547 4.88945 77.382 5.05951 78.9322 5.24386ZM76.2341 16.2671C84.3244 17.0545 91.7975 20.4592 97.1943 25.816C100.14 28.7397 101.511 30.672 103.411 34.5774C106.313 40.5413 107.142 44.3236 107.301 52.3229C107.514 63.0275 106.542 69.6239 103.537 77.8731C100.627 85.8588 97.2671 92.2107 93.3423 97.1436C91.4666 99.5011 89.9633 101.024 87.4745 103.089C84.6993 105.391 84.189 105.956 84.189 106.728C84.189 108.319 87.4619 114.623 90.1956 118.297C92.5152 121.414 95.4443 123.941 98.1708 125.177C99.8053 125.918 101.06 126.285 104.708 127.09C111.948 128.686 118.781 130.604 122.95 132.209C127.999 134.153 133.262 136.815 134.495 138.048C136.439 139.993 137.381 144.593 137.875 154.565L137.991 156.906H72.5669H7.14333L7.14547 155.222C7.14744 153.576 7.44839 149.509 7.79896 146.391C8.30575 141.882 9.03169 139.583 10.372 138.243C13.6329 134.981 25.5982 130.34 37.4523 127.738C43.8557 126.333 45.3701 125.912 47.1348 125.05C51.543 122.897 55.7003 118.119 59.1112 111.287C60.4522 108.601 60.9229 107.252 60.7817 106.499C60.6378 105.732 59.6929 104.757 57.5273 103.141L55.704 101.78L62.9237 101.662C71.8589 101.516 74.2887 101.36 75.0539 100.888C75.8758 100.38 76.8877 99.2103 77.1374 98.4803C77.2585 98.1263 77.3604 97.2453 77.3638 96.5223C77.3717 94.8707 76.8477 93.6691 75.715 92.7407C74.5511 91.7868 73.9092 91.666 69.9791 91.6617C66.4363 91.6579 65.8541 91.7343 64.8921 92.329C63.7561 93.0312 62.5099 94.9374 62.5062 95.9786C62.5052 96.2218 62.4299 96.4668 62.3388 96.5232C62.2477 96.5795 59.6541 96.5726 56.5754 96.5077L50.9777 96.3896L49.7016 94.4842C46.3229 89.4396 43.8153 84.2899 41.1726 76.9694C38.7411 70.2345 37.5319 62.7816 37.5361 54.5583C37.5409 45.4483 39.0792 38.7964 42.5937 32.6878C48.0961 23.1239 57.8095 17.1695 69.4863 16.2022C71.0543 16.0722 74.5806 16.1063 76.2341 16.2671ZM30.5225 46.5091C30.7198 46.61 31.1954 46.9951 31.5795 47.3648L32.2776 48.037V63.8239V79.6107L31.4794 80.3971C30.4816 81.3802 30.0742 81.4794 27.0208 81.4829C22.8787 81.4875 21.7109 81.1153 19.7732 79.1733C18.3715 77.7685 17.7152 76.4633 17.4867 74.6262C17.2242 72.5158 17.2033 54.4021 17.4619 52.9801C17.7564 51.3602 18.4318 50.0368 19.6229 48.7457C20.7845 47.4866 21.7536 46.8545 22.977 46.5576C24.0733 46.2914 30.0221 46.2533 30.5225 46.5091ZM122.978 46.8614C124.715 47.7145 126.55 49.7563 127.262 51.6287C127.765 52.9514 127.93 57.0972 127.833 65.9606C127.727 75.5061 127.623 76.2289 126.071 78.193C124.403 80.3036 123.227 81.0483 121.133 81.3202C119.534 81.5279 115.632 81.5312 114.915 81.3255C114.604 81.2361 113.994 80.8138 113.561 80.3869L112.773 79.6107V63.8239V48.037L113.471 47.3668C113.855 46.9981 114.317 46.6118 114.498 46.5084C114.724 46.3793 115.955 46.3343 118.441 46.3642C122.013 46.4072 122.065 46.413 122.978 46.8614ZM38.1853 83.2132C39.2577 86.0793 41.8367 91.4056 43.5071 94.2039C44.2023 95.3689 44.7444 96.3488 44.7116 96.3817C44.6787 96.4147 43.5386 96.4453 42.1783 96.4499C40.3978 96.4558 39.4122 96.3827 38.6606 96.189C35.9788 95.4974 34.4385 93.9029 33.3441 90.6851C32.8906 89.3515 32.366 86.6879 32.4922 86.3589C32.5439 86.224 32.9811 85.822 33.4635 85.4654C35.1103 84.2487 36.2329 82.8093 36.8749 81.0915C36.9759 80.8212 37.1128 80.6782 37.1892 80.7629C37.2638 80.8453 37.7119 81.948 38.1853 83.2132Z" fill="#2E6C77"/>
<path fill-rule="evenodd" clip-rule="evenodd" d="M68.4185 1.08271C63.9142 1.50794 61.8063 1.84363 58.644 2.63971C48.6077 5.16598 40.1718 9.89598 33.5919 16.6864C27.3219 23.157 23.687 30.43 22.4339 39.0119C22.2689 40.1417 22.0468 41.1711 21.9405 41.2993C21.8341 41.4275 21.2622 41.7265 20.6695 41.9638C17.6345 43.179 15.1449 45.5577 13.6398 48.6801C12.5134 51.0168 12.4138 51.5836 12.2201 56.7593C12.0445 61.4589 12.1433 71.2251 12.3999 74.5095C12.653 77.7502 13.9008 80.3892 16.3284 82.8169C19.0836 85.5724 21.6843 86.5679 26.1552 86.5788C27.4997 86.5819 27.4036 86.4674 27.6035 88.3068C27.8793 90.8451 28.9778 93.9808 30.2968 95.9949C31.7143 98.1599 34.3092 100.192 36.5442 100.888C37.7091 101.25 40.7827 101.527 43.924 101.551C45.1533 101.561 46.798 101.616 47.5792 101.674L48.9992 101.78L50.2643 103.229C51.3483 104.471 52.1497 105.212 54.7554 107.383L55.1689 107.727L54.1665 109.802C52.1896 113.892 49.2456 117.61 46.3451 119.681C44.7061 120.85 43.3196 121.324 38.5584 122.34C25.7342 125.078 14.9806 128.909 9.01066 132.867C3.94372 136.227 2.5316 141.008 2.11417 156.218L2 160.376L2.79953 161.188L3.59907 162H72.5254H141.452L142.226 161.214L143 160.428L143 158.708C142.999 155.85 142.685 149.421 142.418 146.801C141.828 141.016 140.587 137.178 138.62 135.052C134.635 130.748 121.906 125.658 107.188 122.484C103.139 121.611 100.809 120.955 99.7496 120.391C96.8394 118.841 92.9683 114.264 90.8184 109.831C90.3362 108.837 89.941 107.94 89.9402 107.837C89.9393 107.734 90.7413 106.98 91.7222 106.161C94.5631 103.791 97.1427 100.754 100.044 96.3636C103.185 91.61 105.396 87.1852 107.684 81.0772L107.869 80.5843L108.596 81.9881C109.53 83.7926 110.657 84.9371 112.28 85.7319L113.512 86.3351L117.284 86.3877C122.159 86.4555 123.257 86.3124 125.176 85.3591C126.979 84.4633 128.256 83.4723 129.402 82.0791C131.322 79.7443 132.359 77.3468 132.642 74.594C133.143 69.7059 132.979 53.9009 132.401 51.4502C131.408 47.2355 128.349 43.5821 124.501 42.0147C123.624 41.6573 123.209 41.3907 123.056 41.0852C122.938 40.8496 122.713 39.8065 122.557 38.7673C121.695 33.0445 119.597 27.6106 116.381 22.7727C112.951 17.613 108.072 12.8969 102.588 9.43986C100.38 8.04815 95.9696 5.84278 93.2581 4.77459C86.9341 2.28349 79.1663 0.92924 71.6219 1.00285C70.1762 1.01698 68.7347 1.05297 68.4185 1.08271ZM78.9322 5.24386C85.8037 6.06131 93.0463 8.5212 98.7158 11.9633C104.053 15.2037 108.998 19.8795 112.076 24.5981C114.467 28.2642 116.732 34.1618 117.453 38.603C117.593 39.4615 117.746 40.4043 117.794 40.6979L117.881 41.2319L116.354 41.2347C115.514 41.2364 114.309 41.3576 113.677 41.5044C113.044 41.6511 112.273 41.7792 111.964 41.7891L111.401 41.807L110.974 40.3282C109.958 36.8036 107.751 31.5529 106.339 29.2994C101.343 21.3241 94.4203 15.9255 85.5177 13.0616C83.1552 12.3015 80.7726 11.7379 78.7679 11.4648C76.6237 11.1728 67.6462 11.173 65.8722 11.4653C59.0943 12.5815 51.7763 15.8478 46.6306 20.0532C43.9377 22.2541 41.3549 25.1197 39.4637 28.0049C37.6138 30.8273 35.0988 36.5966 34.1506 40.1927C33.9165 41.0806 33.6663 41.8691 33.5945 41.9449C33.5227 42.0208 32.9198 41.9245 32.2548 41.7308C31.5855 41.5361 30.3119 41.3364 29.4028 41.2837C28.4993 41.2314 27.6677 41.1154 27.5547 41.0259C27.2629 40.7945 27.2996 39.9383 27.6901 37.8636C28.7636 32.1587 30.91 27.2527 34.3288 22.6895C39.8115 15.3716 47.8693 9.94363 57.6508 6.97882C59.9871 6.27064 63.7551 5.49707 66.0365 5.25734C66.94 5.16237 67.938 5.05458 68.2542 5.01761C69.3547 4.88945 77.382 5.05951 78.9322 5.24386ZM76.2341 16.2671C84.3244 17.0545 91.7975 20.4592 97.1943 25.816C100.14 28.7397 101.511 30.672 103.411 34.5774C106.313 40.5413 107.142 44.3236 107.301 52.3229C107.514 63.0275 106.542 69.6239 103.537 77.8731C100.627 85.8588 97.2671 92.2107 93.3423 97.1436C91.4666 99.5011 89.9633 101.024 87.4745 103.089C84.6993 105.391 84.189 105.956 84.189 106.728C84.189 108.319 87.4619 114.623 90.1956 118.297C92.5152 121.414 95.4443 123.941 98.1708 125.177C99.8053 125.918 101.06 126.285 104.708 127.09C111.948 128.686 118.781 130.604 122.95 132.209C127.999 134.153 133.262 136.815 134.495 138.048C136.439 139.993 137.381 144.593 137.875 154.565L137.991 156.906H72.5669H7.14333L7.14547 155.222C7.14744 153.576 7.44839 149.509 7.79896 146.391C8.30575 141.882 9.03169 139.583 10.372 138.243C13.6329 134.981 25.5982 130.34 37.4523 127.738C43.8557 126.333 45.3701 125.912 47.1348 125.05C51.543 122.897 55.7003 118.119 59.1112 111.287C60.4522 108.601 60.9229 107.252 60.7817 106.499C60.6378 105.732 59.6929 104.757 57.5273 103.141L55.704 101.78L62.9237 101.662C71.8589 101.516 74.2887 101.36 75.0539 100.888C75.8758 100.38 76.8877 99.2103 77.1374 98.4803C77.2585 98.1263 77.3604 97.2453 77.3638 96.5223C77.3717 94.8707 76.8477 93.6691 75.715 92.7407C74.5511 91.7868 73.9092 91.666 69.9791 91.6617C66.4363 91.6579 65.8541 91.7343 64.8921 92.329C63.7561 93.0312 62.5099 94.9374 62.5062 95.9786C62.5052 96.2218 62.4299 96.4668 62.3388 96.5232C62.2477 96.5795 59.6541 96.5726 56.5754 96.5077L50.9777 96.3896L49.7016 94.4842C46.3229 89.4396 43.8153 84.2899 41.1726 76.9694C38.7411 70.2345 37.5319 62.7816 37.5361 54.5583C37.5409 45.4483 39.0792 38.7964 42.5937 32.6878C48.0961 23.1239 57.8095 17.1695 69.4863 16.2022C71.0543 16.0722 74.5806 16.1063 76.2341 16.2671ZM30.5225 46.5091C30.7198 46.61 31.1954 46.9951 31.5795 47.3648L32.2776 48.037V63.8239V79.6107L31.4794 80.3971C30.4816 81.3802 30.0742 81.4794 27.0208 81.4829C22.8787 81.4875 21.7109 81.1153 19.7732 79.1733C18.3715 77.7685 17.7152 76.4633 17.4867 74.6262C17.2242 72.5158 17.2033 54.4021 17.4619 52.9801C17.7564 51.3602 18.4318 50.0368 19.6229 48.7457C20.7845 47.4866 21.7536 46.8545 22.977 46.5576C24.0733 46.2914 30.0221 46.2533 30.5225 46.5091ZM122.978 46.8614C124.715 47.7145 126.55 49.7563 127.262 51.6287C127.765 52.9514 127.93 57.0972 127.833 65.9606C127.727 75.5061 127.623 76.2289 126.071 78.193C124.403 80.3036 123.227 81.0483 121.133 81.3202C119.534 81.5279 115.632 81.5312 114.915 81.3255C114.604 81.2361 113.994 80.8138 113.561 80.3869L112.773 79.6107V63.8239V48.037L113.471 47.3668C113.855 46.9981 114.317 46.6118 114.498 46.5084C114.724 46.3793 115.955 46.3343 118.441 46.3642C122.013 46.4072 122.065 46.413 122.978 46.8614ZM38.1853 83.2132C39.2577 86.0793 41.8367 91.4056 43.5071 94.2039C44.2023 95.3689 44.7444 96.3488 44.7116 96.3817C44.6787 96.4147 43.5386 96.4453 42.1783 96.4499C40.3978 96.4558 39.4122 96.3827 38.6606 96.189C35.9788 95.4974 34.4385 93.9029 33.3441 90.6851C32.8906 89.3515 32.366 86.6879 32.4922 86.3589C32.5439 86.224 32.9811 85.822 33.4635 85.4654C35.1103 84.2487 36.2329 82.8093 36.8749 81.0915C36.9759 80.8212 37.1128 80.6782 37.1892 80.7629C37.2638 80.8453 37.7119 81.948 38.1853 83.2132Z" stroke="#2E6C77" stroke-width="2" mask="url(#path-1-outside-1_283_81)"/>
</svg>
