<svg width="138" height="138" viewBox="0 0 138 138" fill="none" xmlns="http://www.w3.org/2000/svg">
<path fill-rule="evenodd" clip-rule="evenodd" d="M40.7544 0.683734L40.0712 1.36719V9.58564V17.8038L23.3028 17.8837L6.53434 17.9637L5.14277 18.6533C3.36852 19.5325 1.70086 21.2013 0.822223 22.9768L0.133118 24.3693V64.6135V104.858L0.761272 106.12C1.10666 106.814 1.75485 107.825 2.20155 108.367C3.21572 109.598 5.83493 111.013 7.57801 111.27L8.90001 111.466V113.662V115.859H7.33199C4.91622 115.859 3.64934 116.359 2.07185 117.938C0.0549114 119.957 -0.375362 121.781 0.291478 125.486C1.26335 130.885 5.4837 135.556 11.1265 137.479C12.6027 137.981 14.67 138 69.0158 138C123.362 138 125.429 137.981 126.905 137.479C133.201 135.334 137.351 130.214 137.943 123.858C138.178 121.345 137.702 119.786 136.185 118.097C134.76 116.511 133.176 115.859 130.752 115.859H129.132V113.662V111.466L130.454 111.27C132.101 111.027 134.778 109.629 135.702 108.531C136.085 108.076 136.736 107.063 137.148 106.28L137.898 104.858V64.6135V24.3693L136.944 22.6078C135.913 20.705 134.741 19.581 132.758 18.5923L131.497 17.9637L114.729 17.8837L97.9605 17.8038V9.58564V1.36719L97.2772 0.683734L96.5942 0H69.0158H41.4374L40.7544 0.683734ZM93.5074 26.7366V49.0172H69.0158H44.5242V26.7366V4.4561H69.0158H93.5074V26.7366ZM65.2989 9.35336C59.8451 10.6746 55.1538 15.4159 53.858 20.9167C53.2432 23.5268 53.3014 28.3712 53.9791 31.0231C55.6108 37.4079 60.5784 42.3789 66.9588 44.0118C68.8001 44.4831 70.0472 44.561 75.7399 44.561H82.3749V42.333V40.1049H76.2372C69.1633 40.1049 67.2154 39.7947 64.6582 38.2612C60.2336 35.6076 57.9375 31.437 57.8994 25.9844C57.8905 24.7283 58.0241 23.0364 58.1961 22.2245C59.4195 16.4544 65.147 12.5587 70.858 13.6117C75.4268 14.4542 78.8929 17.7796 79.8355 22.2245C80.2402 24.134 80.2394 29.0173 79.8339 29.9074C79.1297 31.4543 76.714 31.4543 76.0098 29.9074C75.8089 29.4663 75.6953 27.1611 75.6953 23.5207V17.8244H73.4688H71.2423V19.0081V20.1917L69.0854 20.1973C66.6991 20.2034 65.8567 20.5284 64.334 22.0307C62.8406 23.5043 62.4866 24.4058 62.4866 26.7366C62.4866 29.0477 62.8523 29.9952 64.3059 31.4498C64.7857 31.9302 65.5611 32.5212 66.0289 32.7632C67.2558 33.3979 69.7656 33.5453 71.1032 33.0607L72.2164 32.6577L73.5056 33.855C75.0099 35.2525 76.5871 35.7756 78.6558 35.5636C80.3693 35.3879 81.403 34.8894 82.6245 33.6497C84.2908 31.9583 84.4441 31.4306 84.5505 27.0151C84.6228 24.0098 84.5338 22.4861 84.2023 21.0587C82.2466 12.6381 73.6678 7.32611 65.2989 9.35336ZM40.0712 24.5086V26.7366H25.1688H10.2662L9.58327 27.4204L8.90001 28.1038V64.6135V101.123L9.58327 101.807L10.2662 102.49H69.0158H127.765L128.448 101.807L129.132 101.123V64.6135V28.1038L128.448 27.4204L127.765 26.7366H112.863H97.9605V24.5086V22.2805H113.905H129.849L131.09 22.9072C131.998 23.365 132.501 23.8686 132.958 24.7765L133.585 26.0192V64.6135V103.208L132.958 104.451C132.501 105.358 131.998 105.862 131.09 106.32L129.849 106.947H69.0158H8.18307L6.94123 106.32C6.03393 105.862 5.53074 105.358 5.07319 104.451L4.44698 103.208V64.6135V26.0192L5.07319 24.7765C5.53074 23.8686 6.03393 23.365 6.94123 22.9072L8.18307 22.2805H24.1271H40.0712V24.5086ZM69.9579 24.8233C71.5707 25.5585 71.4878 28.0077 69.8268 28.6962C68.0768 29.4214 66.3304 27.6824 67.0537 25.9348C67.5644 24.701 68.72 24.2588 69.9579 24.8233ZM40.0712 40.1049V49.0172H36.3014C32.6697 49.0172 32.5063 49.0422 31.8484 49.7009L31.1651 50.3843V71.2977V92.211L31.8484 92.8945L32.5314 93.5782H69.0158H105.5L106.183 92.8945L106.867 92.211V71.2977V50.3843L106.183 49.7009C105.525 49.0422 105.362 49.0172 101.73 49.0172H97.9605V40.1049V31.1927H111.32H124.679V64.6135V98.0343H69.0158H13.353V64.6135V31.1927H26.7121H40.0712V40.1049ZM96.5205 53.6145C96.4428 53.6924 90.2606 57.5865 82.7823 62.2682C71.3325 69.4361 69.0951 70.7387 68.6136 70.5156C68.0746 70.2658 41.7338 53.8275 41.4858 53.5861C41.4221 53.5239 53.8107 53.4733 69.0158 53.4733C84.2209 53.4733 96.5981 53.5368 96.5205 53.6145ZM48.6293 63.5045C55.0968 67.547 60.3881 70.9381 60.3881 71.0401C60.3881 71.142 56.9125 73.4583 52.6649 76.188C48.417 78.9173 42.844 82.5023 40.2799 84.1547L35.6181 87.1583V71.2587V55.3587L36.2443 55.7567C36.5889 55.9756 42.1619 59.462 48.6293 63.5045ZM102.348 79.1803L102.274 87.0628L90.0285 79.1864C83.2933 74.8542 77.7827 71.1852 77.7827 71.0328C77.7827 70.8805 83.2933 67.3103 90.0285 63.099L102.274 55.442L102.348 63.37C102.389 67.7303 102.389 74.8447 102.348 79.1803ZM66.7765 74.7862C67.6112 75.3185 68.6106 75.7538 68.9974 75.7538C69.3843 75.7538 70.426 75.3057 71.3127 74.7578C72.1997 74.2103 73.0299 73.8028 73.158 73.8527C73.286 73.9026 78.6505 77.3273 85.0787 81.4632L96.7665 88.9828L82.8912 89.055C75.2598 89.0948 62.7746 89.0948 55.1463 89.055L41.2768 88.9828L52.9894 81.4141C59.4312 77.2516 64.8272 73.8396 64.9803 73.8321C65.1333 73.8246 65.9416 74.254 66.7765 74.7862ZM51.2065 122.195C51.211 125.333 52.4987 127.466 55.1001 128.647C56.3016 129.192 56.8682 129.215 69.0158 129.218L81.6791 129.221L83.0707 128.565C85.605 127.369 86.8118 125.32 86.8218 122.195L86.8279 120.315L109.163 120.319C126.608 120.322 131.65 120.4 132.193 120.675C133.326 121.249 133.612 122.181 133.283 124.227C132.907 126.563 131.923 128.481 130.197 130.241C128.508 131.963 126.502 132.999 124.097 133.389C121.622 133.791 16.4092 133.791 13.9347 133.389C11.5295 132.999 9.52343 131.963 7.83434 130.241C6.14108 128.514 5.15641 126.62 4.73504 124.279C4.37212 122.264 4.6791 121.262 5.83855 120.675C6.3821 120.4 11.4235 120.322 28.869 120.319L51.2037 120.315L51.2065 122.195ZM82.3749 121.555C82.3749 123.112 81.9502 124.064 81.0788 124.462C80.617 124.672 76.7666 124.771 69.0158 124.771C61.265 124.771 57.4146 124.672 56.9529 124.462C56.0814 124.064 55.6567 123.112 55.6567 121.555V120.315H69.0158H82.3749V121.555Z" fill="#2E6C77"/>
</svg>
