<svg width="163" height="163" viewBox="0 0 163 163" fill="none" xmlns="http://www.w3.org/2000/svg">
<mask id="path-1-outside-1_283_97" maskUnits="userSpaceOnUse" x="0" y="0" width="163" height="164" fill="black">
<rect fill="white" width="163" height="164"/>
<path fill-rule="evenodd" clip-rule="evenodd" d="M81.0304 1.34247C79.3121 1.8406 77.045 3.6064 76.0514 5.2203L75.0991 6.76784L75.0123 22.9031L74.9255 39.038L41.3709 39.1236L7.81624 39.2091L6.01658 40.0931C3.82109 41.1714 2.1409 43.0608 1.52089 45.149C0.826369 47.489 0.826369 99.7999 1.52089 102.14C2.14153 104.229 3.82203 106.119 6.01658 107.193C7.57478 107.956 8.26993 108.09 11.1961 108.191L14.576 108.307V113.595V118.884L15.4044 119.535C17.0629 120.84 17.3943 120.631 23.8428 114.212L29.8451 108.237H39.1886H48.5318L48.5349 125.769L48.5381 143.301L49.2716 144.874C49.675 145.739 50.6088 146.991 51.347 147.656C54.0075 150.055 51.9859 149.895 80.9143 149.993L106.851 150.08L112.845 156.047C119.284 162.456 119.616 162.666 121.274 161.361L122.103 160.709V155.425V150.142L125.64 149.999C128.673 149.877 129.407 149.738 130.792 149.029C131.681 148.574 132.911 147.613 133.526 146.894C135.714 144.337 135.622 145.72 135.622 115.47C135.622 85.0449 135.728 86.5613 133.41 83.9263C132.706 83.1266 131.482 82.2187 130.525 81.786L128.862 81.0347L108.497 80.9451L88.1322 80.8558L88.2183 75.4417L88.3041 70.028L110.615 69.9471L132.925 69.8663L138.911 75.8074C142.203 79.0749 145.208 81.8429 145.589 81.958C146.398 82.2033 148.031 81.4542 148.318 80.7061C148.425 80.4262 148.513 77.8736 148.513 75.0338V69.8707H151.775C156.76 69.8707 159.112 68.7279 160.948 65.4127L161.875 63.7384L161.96 36.087C162.057 4.80141 162.185 6.54739 159.594 3.77747C157.307 1.33177 156.001 1 148.658 1C142.958 1 142.496 1.04308 141.91 1.62896C141.494 2.04533 141.282 2.67711 141.282 3.4979C141.282 5.5766 141.738 5.71686 148.504 5.71843C153.727 5.71937 154.433 5.7829 155.336 6.33355C157.44 7.61662 157.335 5.99391 157.243 35.9256L157.159 63.0006L155.985 64.0771L154.81 65.1535H150.223H145.635L144.716 66.0728C143.813 66.9753 143.797 67.0533 143.797 70.3924V73.7926L139.788 69.8217C137.583 67.6376 135.47 65.6938 135.093 65.502C134.609 65.2564 127.579 65.1535 111.277 65.1535H88.1469L88.14 55.4833C88.1334 46.4399 88.0916 45.7213 87.4933 44.398C86.3099 41.7793 84.0505 39.9421 81.2853 39.3487L79.658 38.9997V23.7434C79.658 9.92803 79.7086 8.40156 80.1944 7.57888C81.3316 5.65333 80.4226 5.71717 106.768 5.71717H130.796L131.48 4.98947C132.35 4.06302 132.376 2.4705 131.535 1.62896C130.917 1.01038 130.506 1.00031 106.461 1.0283C92.8316 1.04403 81.5799 1.18303 81.0304 1.34247ZM117.446 12.2426C117.095 12.5451 115.43 15.411 113.746 18.6108C109.621 26.451 108.819 27.4592 107.971 25.8743C107.795 25.5453 107.013 24.967 106.233 24.5893C104.978 23.9821 104.402 23.9148 101.251 24.0085C98.0677 24.1028 97.5659 24.1975 96.5498 24.895C95.9238 25.3243 95.0859 26.2441 94.6875 26.9391L93.9634 28.2024V41.5677V54.933L94.8237 56.3966C96.1127 58.5898 97.5602 59.1785 101.666 59.1785C105.469 59.1785 107.229 58.5495 108.37 56.7824C108.851 56.0381 109.195 55.7918 109.527 55.9551C110.109 56.2425 132.14 56.4598 133.94 56.1959C135.53 55.9629 137.736 54.5364 138.678 53.132C139.1 52.503 140.32 48.5519 141.766 43.1347C143.669 35.9995 144.13 33.8454 144.03 32.5453C143.869 30.4405 142.713 28.6734 140.738 27.5121C139.275 26.6517 139.095 26.6262 133.421 26.4727L127.605 26.3155L127.442 22.07C127.291 18.1214 127.215 17.7076 126.358 16.1503C125.851 15.2295 124.911 14.0603 124.269 13.5521C122.041 11.7863 118.716 11.1482 117.446 12.2426ZM121.434 17.3831C122.529 18.4032 122.732 19.313 122.732 23.2037C122.732 27.3605 123.18 28.6527 125.14 30.1496C126.295 31.032 126.301 31.0327 132.4 31.1899C137.978 31.3336 138.543 31.3997 138.95 31.9575C139.195 32.2934 139.395 32.8113 139.395 33.1092C139.395 33.4067 138.409 37.3773 137.203 41.9331C135.345 48.9551 134.887 50.3234 134.199 50.9234C133.39 51.6282 133.341 51.631 122.446 51.631C115.314 51.631 111.162 51.5108 110.517 51.2857L109.527 50.9404V41.096V31.2515L110.439 30.9333C112.458 30.2295 113.834 28.4612 116.992 22.5116C118.679 19.3334 120.209 16.7311 120.393 16.7286C120.576 16.7261 121.045 17.0205 121.434 17.3831ZM104.433 29.0515C104.975 29.5933 104.975 53.5421 104.433 54.0839C103.929 54.588 99.4036 54.588 98.8996 54.0839C98.4051 53.5892 98.3563 30.2012 98.8477 29.2823C99.1266 28.7612 99.5228 28.6741 101.615 28.6741C103.094 28.6741 104.205 28.8228 104.433 29.0515ZM81.03 44.2027C81.6007 44.4411 82.3744 45.0263 82.7492 45.5031C83.4296 46.3682 83.4308 46.4006 83.4308 63.6236V80.8774H75.7279C71.4913 80.8774 68.025 80.8089 68.025 80.7249C68.025 80.641 68.456 79.8717 68.983 79.0154C71.3269 75.2046 72.6819 69.1858 72.1088 65.1296C71.1068 58.0375 65.687 52.5307 58.722 51.5269C54.2917 50.8885 49.6756 52.2757 46.4124 55.2261L44.7643 56.7161L43.1555 55.3082C36.8114 49.7573 27.7301 50.0539 21.7793 56.0057C18.2762 59.5099 16.834 63.5639 17.1818 68.9307C17.4789 73.5212 19.785 79.0623 22.9058 82.6857C24.2521 84.2483 25.5374 84.4675 26.7391 83.3386C27.8272 82.3159 27.6493 81.2545 26.0119 79.0038C19.7731 70.428 20.6276 60.8678 27.9552 57.2598C32.9725 54.7893 38.4988 56.2526 41.7633 60.9163C43.965 64.0614 45.4053 64.2346 47.1157 61.5603C49.4885 57.8501 52.2544 56.257 56.3919 56.2167C58.6928 56.1944 59.3266 56.3132 60.9508 57.0718C68.8041 60.7383 69.7385 70.5198 63.0787 79.3453L61.9802 80.801L58.4787 80.9558C54.5171 81.1306 53.2844 81.5372 51.3052 83.3219C49.6068 84.8534 48.5387 87.1519 48.5349 89.2853L48.5318 90.9316L46.6545 91.8798L44.7769 92.8276L43.0052 92.0439C42.0305 91.6128 39.9275 90.4807 38.3312 89.5281C36.7353 88.5752 35.084 87.796 34.6621 87.796C32.9986 87.796 31.7777 89.5967 32.5116 90.9678C32.9945 91.87 36.525 94.0877 40.8131 96.1822L44.4549 97.9608L46.5036 97.1479L48.5519 96.335L48.4633 99.8487L48.3746 103.363L38.1564 103.446L27.9382 103.529L23.6151 107.844L19.2921 112.16V108.668C19.2921 105.652 19.2065 105.068 18.6626 104.377C18.0448 103.591 17.9445 103.574 13.2243 103.47C7.82567 103.349 7.0274 103.085 6.2178 101.147C5.56824 99.592 5.55283 47.7346 6.20145 46.1817C6.63502 45.1436 7.64678 44.2845 8.77266 43.9983C9.11128 43.9124 25.2743 43.8256 44.6904 43.8055C74.0414 43.7753 80.1676 43.842 81.03 44.2027ZM128.38 86.0053C129.002 86.2198 129.777 86.8387 130.188 87.4494L130.906 88.518L130.905 115.438C130.904 141.884 130.893 142.376 130.269 143.399C129.287 145.011 128.079 145.345 123.248 145.345C117.536 145.345 117.598 145.295 117.387 150.198L117.229 153.849L112.989 149.598L108.749 145.345H82.7178C54.464 145.345 55.3343 145.398 53.9295 143.611L53.2479 142.745V115.452V88.1586L54.06 87.1934C54.5068 86.6626 55.3201 86.0984 55.8678 85.9396C57.4578 85.4792 127.036 85.5424 128.38 86.0053ZM68.6563 108.336C66.8544 108.91 64.3977 111.559 63.81 113.562C63.1841 115.696 63.1825 116.503 63.8015 118.587C65.0413 122.764 69.6671 125.346 73.7714 124.152C77.3867 123.101 79.6061 120.477 79.8919 116.916C80.3063 111.752 76.8129 107.877 71.8148 107.955C70.6814 107.972 69.2599 108.144 68.6563 108.336ZM88.2249 108.717C85.4113 110.14 83.7453 112.885 83.7453 116.099C83.7453 119.387 85.4345 122.097 88.389 123.547C92.5574 125.594 97.3216 123.976 99.547 119.758C100.483 117.984 100.5 114.633 99.5844 112.64C98.2161 109.662 95.8423 108.161 92.2342 107.992C90.1783 107.896 89.6646 107.989 88.2249 108.717ZM108.741 108.672C106.819 109.581 105.682 110.753 104.811 112.722C102.971 116.885 104.959 122.007 109.127 123.839C110.657 124.512 114.034 124.537 115.544 123.886C118.574 122.58 120.635 119.473 120.62 116.235C120.596 111.378 117.164 107.929 112.356 107.929C110.861 107.929 109.891 108.128 108.741 108.672ZM74.1873 113.709C75.0126 114.534 75.2563 115.04 75.2563 115.926C75.2563 117.949 74.3147 119.125 72.2323 119.704C70.7078 120.127 68.4746 118.555 68.151 116.83C67.7253 114.561 69.3593 112.64 71.7145 112.64C72.892 112.64 73.2909 112.812 74.1873 113.709ZM94.193 113.258C95.8643 114.573 96.0995 117.201 94.6661 118.543C92.0912 120.956 88.4613 119.425 88.4613 115.926C88.4613 115.04 88.705 114.534 89.5303 113.709C90.4267 112.812 90.8257 112.64 92.0031 112.64C92.9228 112.64 93.678 112.853 94.193 113.258ZM114.576 113.282C116.166 114.415 116.375 117.126 114.991 118.656C114.233 119.494 112.571 119.881 111.27 119.522C109.71 119.091 108.898 117.914 108.898 116.081C108.898 114.819 109.054 114.418 109.865 113.607C110.66 112.812 111.086 112.64 112.253 112.64C113.18 112.64 113.988 112.863 114.576 113.282Z"/>
</mask>
<path fill-rule="evenodd" clip-rule="evenodd" d="M81.0304 1.34247C79.3121 1.8406 77.045 3.6064 76.0514 5.2203L75.0991 6.76784L75.0123 22.9031L74.9255 39.038L41.3709 39.1236L7.81624 39.2091L6.01658 40.0931C3.82109 41.1714 2.1409 43.0608 1.52089 45.149C0.826369 47.489 0.826369 99.7999 1.52089 102.14C2.14153 104.229 3.82203 106.119 6.01658 107.193C7.57478 107.956 8.26993 108.09 11.1961 108.191L14.576 108.307V113.595V118.884L15.4044 119.535C17.0629 120.84 17.3943 120.631 23.8428 114.212L29.8451 108.237H39.1886H48.5318L48.5349 125.769L48.5381 143.301L49.2716 144.874C49.675 145.739 50.6088 146.991 51.347 147.656C54.0075 150.055 51.9859 149.895 80.9143 149.993L106.851 150.08L112.845 156.047C119.284 162.456 119.616 162.666 121.274 161.361L122.103 160.709V155.425V150.142L125.64 149.999C128.673 149.877 129.407 149.738 130.792 149.029C131.681 148.574 132.911 147.613 133.526 146.894C135.714 144.337 135.622 145.72 135.622 115.47C135.622 85.0449 135.728 86.5613 133.41 83.9263C132.706 83.1266 131.482 82.2187 130.525 81.786L128.862 81.0347L108.497 80.9451L88.1322 80.8558L88.2183 75.4417L88.3041 70.028L110.615 69.9471L132.925 69.8663L138.911 75.8074C142.203 79.0749 145.208 81.8429 145.589 81.958C146.398 82.2033 148.031 81.4542 148.318 80.7061C148.425 80.4262 148.513 77.8736 148.513 75.0338V69.8707H151.775C156.76 69.8707 159.112 68.7279 160.948 65.4127L161.875 63.7384L161.96 36.087C162.057 4.80141 162.185 6.54739 159.594 3.77747C157.307 1.33177 156.001 1 148.658 1C142.958 1 142.496 1.04308 141.91 1.62896C141.494 2.04533 141.282 2.67711 141.282 3.4979C141.282 5.5766 141.738 5.71686 148.504 5.71843C153.727 5.71937 154.433 5.7829 155.336 6.33355C157.44 7.61662 157.335 5.99391 157.243 35.9256L157.159 63.0006L155.985 64.0771L154.81 65.1535H150.223H145.635L144.716 66.0728C143.813 66.9753 143.797 67.0533 143.797 70.3924V73.7926L139.788 69.8217C137.583 67.6376 135.47 65.6938 135.093 65.502C134.609 65.2564 127.579 65.1535 111.277 65.1535H88.1469L88.14 55.4833C88.1334 46.4399 88.0916 45.7213 87.4933 44.398C86.3099 41.7793 84.0505 39.9421 81.2853 39.3487L79.658 38.9997V23.7434C79.658 9.92803 79.7086 8.40156 80.1944 7.57888C81.3316 5.65333 80.4226 5.71717 106.768 5.71717H130.796L131.48 4.98947C132.35 4.06302 132.376 2.4705 131.535 1.62896C130.917 1.01038 130.506 1.00031 106.461 1.0283C92.8316 1.04403 81.5799 1.18303 81.0304 1.34247ZM117.446 12.2426C117.095 12.5451 115.43 15.411 113.746 18.6108C109.621 26.451 108.819 27.4592 107.971 25.8743C107.795 25.5453 107.013 24.967 106.233 24.5893C104.978 23.9821 104.402 23.9148 101.251 24.0085C98.0677 24.1028 97.5659 24.1975 96.5498 24.895C95.9238 25.3243 95.0859 26.2441 94.6875 26.9391L93.9634 28.2024V41.5677V54.933L94.8237 56.3966C96.1127 58.5898 97.5602 59.1785 101.666 59.1785C105.469 59.1785 107.229 58.5495 108.37 56.7824C108.851 56.0381 109.195 55.7918 109.527 55.9551C110.109 56.2425 132.14 56.4598 133.94 56.1959C135.53 55.9629 137.736 54.5364 138.678 53.132C139.1 52.503 140.32 48.5519 141.766 43.1347C143.669 35.9995 144.13 33.8454 144.03 32.5453C143.869 30.4405 142.713 28.6734 140.738 27.5121C139.275 26.6517 139.095 26.6262 133.421 26.4727L127.605 26.3155L127.442 22.07C127.291 18.1214 127.215 17.7076 126.358 16.1503C125.851 15.2295 124.911 14.0603 124.269 13.5521C122.041 11.7863 118.716 11.1482 117.446 12.2426ZM121.434 17.3831C122.529 18.4032 122.732 19.313 122.732 23.2037C122.732 27.3605 123.18 28.6527 125.14 30.1496C126.295 31.032 126.301 31.0327 132.4 31.1899C137.978 31.3336 138.543 31.3997 138.95 31.9575C139.195 32.2934 139.395 32.8113 139.395 33.1092C139.395 33.4067 138.409 37.3773 137.203 41.9331C135.345 48.9551 134.887 50.3234 134.199 50.9234C133.39 51.6282 133.341 51.631 122.446 51.631C115.314 51.631 111.162 51.5108 110.517 51.2857L109.527 50.9404V41.096V31.2515L110.439 30.9333C112.458 30.2295 113.834 28.4612 116.992 22.5116C118.679 19.3334 120.209 16.7311 120.393 16.7286C120.576 16.7261 121.045 17.0205 121.434 17.3831ZM104.433 29.0515C104.975 29.5933 104.975 53.5421 104.433 54.0839C103.929 54.588 99.4036 54.588 98.8996 54.0839C98.4051 53.5892 98.3563 30.2012 98.8477 29.2823C99.1266 28.7612 99.5228 28.6741 101.615 28.6741C103.094 28.6741 104.205 28.8228 104.433 29.0515ZM81.03 44.2027C81.6007 44.4411 82.3744 45.0263 82.7492 45.5031C83.4296 46.3682 83.4308 46.4006 83.4308 63.6236V80.8774H75.7279C71.4913 80.8774 68.025 80.8089 68.025 80.7249C68.025 80.641 68.456 79.8717 68.983 79.0154C71.3269 75.2046 72.6819 69.1858 72.1088 65.1296C71.1068 58.0375 65.687 52.5307 58.722 51.5269C54.2917 50.8885 49.6756 52.2757 46.4124 55.2261L44.7643 56.7161L43.1555 55.3082C36.8114 49.7573 27.7301 50.0539 21.7793 56.0057C18.2762 59.5099 16.834 63.5639 17.1818 68.9307C17.4789 73.5212 19.785 79.0623 22.9058 82.6857C24.2521 84.2483 25.5374 84.4675 26.7391 83.3386C27.8272 82.3159 27.6493 81.2545 26.0119 79.0038C19.7731 70.428 20.6276 60.8678 27.9552 57.2598C32.9725 54.7893 38.4988 56.2526 41.7633 60.9163C43.965 64.0614 45.4053 64.2346 47.1157 61.5603C49.4885 57.8501 52.2544 56.257 56.3919 56.2167C58.6928 56.1944 59.3266 56.3132 60.9508 57.0718C68.8041 60.7383 69.7385 70.5198 63.0787 79.3453L61.9802 80.801L58.4787 80.9558C54.5171 81.1306 53.2844 81.5372 51.3052 83.3219C49.6068 84.8534 48.5387 87.1519 48.5349 89.2853L48.5318 90.9316L46.6545 91.8798L44.7769 92.8276L43.0052 92.0439C42.0305 91.6128 39.9275 90.4807 38.3312 89.5281C36.7353 88.5752 35.084 87.796 34.6621 87.796C32.9986 87.796 31.7777 89.5967 32.5116 90.9678C32.9945 91.87 36.525 94.0877 40.8131 96.1822L44.4549 97.9608L46.5036 97.1479L48.5519 96.335L48.4633 99.8487L48.3746 103.363L38.1564 103.446L27.9382 103.529L23.6151 107.844L19.2921 112.16V108.668C19.2921 105.652 19.2065 105.068 18.6626 104.377C18.0448 103.591 17.9445 103.574 13.2243 103.47C7.82567 103.349 7.0274 103.085 6.2178 101.147C5.56824 99.592 5.55283 47.7346 6.20145 46.1817C6.63502 45.1436 7.64678 44.2845 8.77266 43.9983C9.11128 43.9124 25.2743 43.8256 44.6904 43.8055C74.0414 43.7753 80.1676 43.842 81.03 44.2027ZM128.38 86.0053C129.002 86.2198 129.777 86.8387 130.188 87.4494L130.906 88.518L130.905 115.438C130.904 141.884 130.893 142.376 130.269 143.399C129.287 145.011 128.079 145.345 123.248 145.345C117.536 145.345 117.598 145.295 117.387 150.198L117.229 153.849L112.989 149.598L108.749 145.345H82.7178C54.464 145.345 55.3343 145.398 53.9295 143.611L53.2479 142.745V115.452V88.1586L54.06 87.1934C54.5068 86.6626 55.3201 86.0984 55.8678 85.9396C57.4578 85.4792 127.036 85.5424 128.38 86.0053ZM68.6563 108.336C66.8544 108.91 64.3977 111.559 63.81 113.562C63.1841 115.696 63.1825 116.503 63.8015 118.587C65.0413 122.764 69.6671 125.346 73.7714 124.152C77.3867 123.101 79.6061 120.477 79.8919 116.916C80.3063 111.752 76.8129 107.877 71.8148 107.955C70.6814 107.972 69.2599 108.144 68.6563 108.336ZM88.2249 108.717C85.4113 110.14 83.7453 112.885 83.7453 116.099C83.7453 119.387 85.4345 122.097 88.389 123.547C92.5574 125.594 97.3216 123.976 99.547 119.758C100.483 117.984 100.5 114.633 99.5844 112.64C98.2161 109.662 95.8423 108.161 92.2342 107.992C90.1783 107.896 89.6646 107.989 88.2249 108.717ZM108.741 108.672C106.819 109.581 105.682 110.753 104.811 112.722C102.971 116.885 104.959 122.007 109.127 123.839C110.657 124.512 114.034 124.537 115.544 123.886C118.574 122.58 120.635 119.473 120.62 116.235C120.596 111.378 117.164 107.929 112.356 107.929C110.861 107.929 109.891 108.128 108.741 108.672ZM74.1873 113.709C75.0126 114.534 75.2563 115.04 75.2563 115.926C75.2563 117.949 74.3147 119.125 72.2323 119.704C70.7078 120.127 68.4746 118.555 68.151 116.83C67.7253 114.561 69.3593 112.64 71.7145 112.64C72.892 112.64 73.2909 112.812 74.1873 113.709ZM94.193 113.258C95.8643 114.573 96.0995 117.201 94.6661 118.543C92.0912 120.956 88.4613 119.425 88.4613 115.926C88.4613 115.04 88.705 114.534 89.5303 113.709C90.4267 112.812 90.8257 112.64 92.0031 112.64C92.9228 112.64 93.678 112.853 94.193 113.258ZM114.576 113.282C116.166 114.415 116.375 117.126 114.991 118.656C114.233 119.494 112.571 119.881 111.27 119.522C109.71 119.091 108.898 117.914 108.898 116.081C108.898 114.819 109.054 114.418 109.865 113.607C110.66 112.812 111.086 112.64 112.253 112.64C113.18 112.64 113.988 112.863 114.576 113.282Z" fill="#2E6C77"/>
<path fill-rule="evenodd" clip-rule="evenodd" d="M81.0304 1.34247C79.3121 1.8406 77.045 3.6064 76.0514 5.2203L75.0991 6.76784L75.0123 22.9031L74.9255 39.038L41.3709 39.1236L7.81624 39.2091L6.01658 40.0931C3.82109 41.1714 2.1409 43.0608 1.52089 45.149C0.826369 47.489 0.826369 99.7999 1.52089 102.14C2.14153 104.229 3.82203 106.119 6.01658 107.193C7.57478 107.956 8.26993 108.09 11.1961 108.191L14.576 108.307V113.595V118.884L15.4044 119.535C17.0629 120.84 17.3943 120.631 23.8428 114.212L29.8451 108.237H39.1886H48.5318L48.5349 125.769L48.5381 143.301L49.2716 144.874C49.675 145.739 50.6088 146.991 51.347 147.656C54.0075 150.055 51.9859 149.895 80.9143 149.993L106.851 150.08L112.845 156.047C119.284 162.456 119.616 162.666 121.274 161.361L122.103 160.709V155.425V150.142L125.64 149.999C128.673 149.877 129.407 149.738 130.792 149.029C131.681 148.574 132.911 147.613 133.526 146.894C135.714 144.337 135.622 145.72 135.622 115.47C135.622 85.0449 135.728 86.5613 133.41 83.9263C132.706 83.1266 131.482 82.2187 130.525 81.786L128.862 81.0347L108.497 80.9451L88.1322 80.8558L88.2183 75.4417L88.3041 70.028L110.615 69.9471L132.925 69.8663L138.911 75.8074C142.203 79.0749 145.208 81.8429 145.589 81.958C146.398 82.2033 148.031 81.4542 148.318 80.7061C148.425 80.4262 148.513 77.8736 148.513 75.0338V69.8707H151.775C156.76 69.8707 159.112 68.7279 160.948 65.4127L161.875 63.7384L161.96 36.087C162.057 4.80141 162.185 6.54739 159.594 3.77747C157.307 1.33177 156.001 1 148.658 1C142.958 1 142.496 1.04308 141.91 1.62896C141.494 2.04533 141.282 2.67711 141.282 3.4979C141.282 5.5766 141.738 5.71686 148.504 5.71843C153.727 5.71937 154.433 5.7829 155.336 6.33355C157.44 7.61662 157.335 5.99391 157.243 35.9256L157.159 63.0006L155.985 64.0771L154.81 65.1535H150.223H145.635L144.716 66.0728C143.813 66.9753 143.797 67.0533 143.797 70.3924V73.7926L139.788 69.8217C137.583 67.6376 135.47 65.6938 135.093 65.502C134.609 65.2564 127.579 65.1535 111.277 65.1535H88.1469L88.14 55.4833C88.1334 46.4399 88.0916 45.7213 87.4933 44.398C86.3099 41.7793 84.0505 39.9421 81.2853 39.3487L79.658 38.9997V23.7434C79.658 9.92803 79.7086 8.40156 80.1944 7.57888C81.3316 5.65333 80.4226 5.71717 106.768 5.71717H130.796L131.48 4.98947C132.35 4.06302 132.376 2.4705 131.535 1.62896C130.917 1.01038 130.506 1.00031 106.461 1.0283C92.8316 1.04403 81.5799 1.18303 81.0304 1.34247ZM117.446 12.2426C117.095 12.5451 115.43 15.411 113.746 18.6108C109.621 26.451 108.819 27.4592 107.971 25.8743C107.795 25.5453 107.013 24.967 106.233 24.5893C104.978 23.9821 104.402 23.9148 101.251 24.0085C98.0677 24.1028 97.5659 24.1975 96.5498 24.895C95.9238 25.3243 95.0859 26.2441 94.6875 26.9391L93.9634 28.2024V41.5677V54.933L94.8237 56.3966C96.1127 58.5898 97.5602 59.1785 101.666 59.1785C105.469 59.1785 107.229 58.5495 108.37 56.7824C108.851 56.0381 109.195 55.7918 109.527 55.9551C110.109 56.2425 132.14 56.4598 133.94 56.1959C135.53 55.9629 137.736 54.5364 138.678 53.132C139.1 52.503 140.32 48.5519 141.766 43.1347C143.669 35.9995 144.13 33.8454 144.03 32.5453C143.869 30.4405 142.713 28.6734 140.738 27.5121C139.275 26.6517 139.095 26.6262 133.421 26.4727L127.605 26.3155L127.442 22.07C127.291 18.1214 127.215 17.7076 126.358 16.1503C125.851 15.2295 124.911 14.0603 124.269 13.5521C122.041 11.7863 118.716 11.1482 117.446 12.2426ZM121.434 17.3831C122.529 18.4032 122.732 19.313 122.732 23.2037C122.732 27.3605 123.18 28.6527 125.14 30.1496C126.295 31.032 126.301 31.0327 132.4 31.1899C137.978 31.3336 138.543 31.3997 138.95 31.9575C139.195 32.2934 139.395 32.8113 139.395 33.1092C139.395 33.4067 138.409 37.3773 137.203 41.9331C135.345 48.9551 134.887 50.3234 134.199 50.9234C133.39 51.6282 133.341 51.631 122.446 51.631C115.314 51.631 111.162 51.5108 110.517 51.2857L109.527 50.9404V41.096V31.2515L110.439 30.9333C112.458 30.2295 113.834 28.4612 116.992 22.5116C118.679 19.3334 120.209 16.7311 120.393 16.7286C120.576 16.7261 121.045 17.0205 121.434 17.3831ZM104.433 29.0515C104.975 29.5933 104.975 53.5421 104.433 54.0839C103.929 54.588 99.4036 54.588 98.8996 54.0839C98.4051 53.5892 98.3563 30.2012 98.8477 29.2823C99.1266 28.7612 99.5228 28.6741 101.615 28.6741C103.094 28.6741 104.205 28.8228 104.433 29.0515ZM81.03 44.2027C81.6007 44.4411 82.3744 45.0263 82.7492 45.5031C83.4296 46.3682 83.4308 46.4006 83.4308 63.6236V80.8774H75.7279C71.4913 80.8774 68.025 80.8089 68.025 80.7249C68.025 80.641 68.456 79.8717 68.983 79.0154C71.3269 75.2046 72.6819 69.1858 72.1088 65.1296C71.1068 58.0375 65.687 52.5307 58.722 51.5269C54.2917 50.8885 49.6756 52.2757 46.4124 55.2261L44.7643 56.7161L43.1555 55.3082C36.8114 49.7573 27.7301 50.0539 21.7793 56.0057C18.2762 59.5099 16.834 63.5639 17.1818 68.9307C17.4789 73.5212 19.785 79.0623 22.9058 82.6857C24.2521 84.2483 25.5374 84.4675 26.7391 83.3386C27.8272 82.3159 27.6493 81.2545 26.0119 79.0038C19.7731 70.428 20.6276 60.8678 27.9552 57.2598C32.9725 54.7893 38.4988 56.2526 41.7633 60.9163C43.965 64.0614 45.4053 64.2346 47.1157 61.5603C49.4885 57.8501 52.2544 56.257 56.3919 56.2167C58.6928 56.1944 59.3266 56.3132 60.9508 57.0718C68.8041 60.7383 69.7385 70.5198 63.0787 79.3453L61.9802 80.801L58.4787 80.9558C54.5171 81.1306 53.2844 81.5372 51.3052 83.3219C49.6068 84.8534 48.5387 87.1519 48.5349 89.2853L48.5318 90.9316L46.6545 91.8798L44.7769 92.8276L43.0052 92.0439C42.0305 91.6128 39.9275 90.4807 38.3312 89.5281C36.7353 88.5752 35.084 87.796 34.6621 87.796C32.9986 87.796 31.7777 89.5967 32.5116 90.9678C32.9945 91.87 36.525 94.0877 40.8131 96.1822L44.4549 97.9608L46.5036 97.1479L48.5519 96.335L48.4633 99.8487L48.3746 103.363L38.1564 103.446L27.9382 103.529L23.6151 107.844L19.2921 112.16V108.668C19.2921 105.652 19.2065 105.068 18.6626 104.377C18.0448 103.591 17.9445 103.574 13.2243 103.47C7.82567 103.349 7.0274 103.085 6.2178 101.147C5.56824 99.592 5.55283 47.7346 6.20145 46.1817C6.63502 45.1436 7.64678 44.2845 8.77266 43.9983C9.11128 43.9124 25.2743 43.8256 44.6904 43.8055C74.0414 43.7753 80.1676 43.842 81.03 44.2027ZM128.38 86.0053C129.002 86.2198 129.777 86.8387 130.188 87.4494L130.906 88.518L130.905 115.438C130.904 141.884 130.893 142.376 130.269 143.399C129.287 145.011 128.079 145.345 123.248 145.345C117.536 145.345 117.598 145.295 117.387 150.198L117.229 153.849L112.989 149.598L108.749 145.345H82.7178C54.464 145.345 55.3343 145.398 53.9295 143.611L53.2479 142.745V115.452V88.1586L54.06 87.1934C54.5068 86.6626 55.3201 86.0984 55.8678 85.9396C57.4578 85.4792 127.036 85.5424 128.38 86.0053ZM68.6563 108.336C66.8544 108.91 64.3977 111.559 63.81 113.562C63.1841 115.696 63.1825 116.503 63.8015 118.587C65.0413 122.764 69.6671 125.346 73.7714 124.152C77.3867 123.101 79.6061 120.477 79.8919 116.916C80.3063 111.752 76.8129 107.877 71.8148 107.955C70.6814 107.972 69.2599 108.144 68.6563 108.336ZM88.2249 108.717C85.4113 110.14 83.7453 112.885 83.7453 116.099C83.7453 119.387 85.4345 122.097 88.389 123.547C92.5574 125.594 97.3216 123.976 99.547 119.758C100.483 117.984 100.5 114.633 99.5844 112.64C98.2161 109.662 95.8423 108.161 92.2342 107.992C90.1783 107.896 89.6646 107.989 88.2249 108.717ZM108.741 108.672C106.819 109.581 105.682 110.753 104.811 112.722C102.971 116.885 104.959 122.007 109.127 123.839C110.657 124.512 114.034 124.537 115.544 123.886C118.574 122.58 120.635 119.473 120.62 116.235C120.596 111.378 117.164 107.929 112.356 107.929C110.861 107.929 109.891 108.128 108.741 108.672ZM74.1873 113.709C75.0126 114.534 75.2563 115.04 75.2563 115.926C75.2563 117.949 74.3147 119.125 72.2323 119.704C70.7078 120.127 68.4746 118.555 68.151 116.83C67.7253 114.561 69.3593 112.64 71.7145 112.64C72.892 112.64 73.2909 112.812 74.1873 113.709ZM94.193 113.258C95.8643 114.573 96.0995 117.201 94.6661 118.543C92.0912 120.956 88.4613 119.425 88.4613 115.926C88.4613 115.04 88.705 114.534 89.5303 113.709C90.4267 112.812 90.8257 112.64 92.0031 112.64C92.9228 112.64 93.678 112.853 94.193 113.258ZM114.576 113.282C116.166 114.415 116.375 117.126 114.991 118.656C114.233 119.494 112.571 119.881 111.27 119.522C109.71 119.091 108.898 117.914 108.898 116.081C108.898 114.819 109.054 114.418 109.865 113.607C110.66 112.812 111.086 112.64 112.253 112.64C113.18 112.64 113.988 112.863 114.576 113.282Z" stroke="#2E6C77" stroke-width="2" mask="url(#path-1-outside-1_283_97)"/>
</svg>
