<svg width="161" height="161" viewBox="0 0 161 161" fill="none" xmlns="http://www.w3.org/2000/svg">
<path fill-rule="evenodd" clip-rule="evenodd" d="M80.0304 0.342467C78.3121 0.8406 76.045 2.6064 75.0514 4.2203L74.0991 5.76784L74.0123 21.9031L73.9255 38.038L40.3709 38.1236L6.81624 38.2091L5.01658 39.0931C2.82109 40.1714 1.1409 42.0608 0.520892 44.149C-0.173631 46.489 -0.173631 98.7999 0.520892 101.14C1.14153 103.229 2.82203 105.119 5.01658 106.193C6.57478 106.956 7.26993 107.09 10.1961 107.191L13.576 107.307V112.595V117.884L14.4044 118.535C16.0629 119.84 16.3943 119.631 22.8428 113.212L28.8451 107.237H38.1886H47.5318L47.5349 124.769L47.5381 142.301L48.2716 143.874C48.675 144.739 49.6088 145.991 50.347 146.656C53.0075 149.055 50.9859 148.895 79.9143 148.993L105.851 149.08L111.845 155.047C118.284 161.456 118.616 161.666 120.274 160.361L121.103 159.709V154.425V149.142L124.64 148.999C127.673 148.877 128.407 148.738 129.792 148.029C130.681 147.574 131.911 146.613 132.526 145.894C134.714 143.337 134.622 144.72 134.622 114.47C134.622 84.0449 134.728 85.5613 132.41 82.9263C131.706 82.1266 130.482 81.2187 129.525 80.786L127.862 80.0347L107.497 79.9451L87.1322 79.8558L87.2183 74.4417L87.3041 69.028L109.615 68.9471L131.925 68.8663L137.911 74.8074C141.203 78.0749 144.208 80.8429 144.589 80.958C145.398 81.2033 147.031 80.4542 147.318 79.7061C147.425 79.4262 147.513 76.8736 147.513 74.0338V68.8707H150.775C155.76 68.8707 158.112 67.7279 159.948 64.4127L160.875 62.7384L160.96 35.087C161.057 3.80141 161.185 5.54739 158.594 2.77747C156.307 0.331774 155.001 0 147.658 0C141.958 0 141.496 0.0430835 140.91 0.628956C140.494 1.04533 140.282 1.67711 140.282 2.4979C140.282 4.5766 140.738 4.71686 147.504 4.71843C152.727 4.71937 153.433 4.7829 154.336 5.33355C156.44 6.61662 156.335 4.99391 156.243 34.9256L156.159 62.0006L154.985 63.0771L153.81 64.1535H149.223H144.635L143.716 65.0728C142.813 65.9753 142.797 66.0533 142.797 69.3924V72.7926L138.788 68.8217C136.583 66.6376 134.47 64.6938 134.093 64.502C133.609 64.2564 126.579 64.1535 110.277 64.1535H87.1469L87.14 54.4833C87.1334 45.4399 87.0916 44.7213 86.4933 43.398C85.3099 40.7793 83.0505 38.9421 80.2853 38.3487L78.658 37.9997V22.7434C78.658 8.92803 78.7086 7.40156 79.1944 6.57888C80.3316 4.65333 79.4226 4.71717 105.768 4.71717H129.796L130.48 3.98947C131.35 3.06302 131.376 1.4705 130.535 0.628956C129.917 0.0103778 129.506 0.000314478 105.461 0.028303C91.8316 0.0440269 80.5799 0.183026 80.0304 0.342467ZM116.446 11.2426C116.095 11.5451 114.43 14.411 112.746 17.6108C108.621 25.451 107.819 26.4592 106.971 24.8743C106.795 24.5453 106.013 23.967 105.233 23.5893C103.978 22.9821 103.402 22.9148 100.251 23.0085C97.0677 23.1028 96.5659 23.1975 95.5498 23.895C94.9238 24.3243 94.0859 25.2441 93.6875 25.9391L92.9634 27.2024V40.5677V53.933L93.8237 55.3966C95.1127 57.5898 96.5602 58.1785 100.666 58.1785C104.469 58.1785 106.229 57.5495 107.37 55.7824C107.851 55.0381 108.195 54.7918 108.527 54.9551C109.109 55.2425 131.14 55.4598 132.94 55.1959C134.53 54.9629 136.736 53.5364 137.678 52.132C138.1 51.503 139.32 47.5519 140.766 42.1347C142.669 34.9995 143.13 32.8454 143.03 31.5453C142.869 29.4405 141.713 27.6734 139.738 26.5121C138.275 25.6517 138.095 25.6262 132.421 25.4727L126.605 25.3155L126.442 21.07C126.291 17.1214 126.215 16.7076 125.358 15.1503C124.851 14.2295 123.911 13.0603 123.269 12.5521C121.041 10.7863 117.716 10.1482 116.446 11.2426ZM120.434 16.3831C121.529 17.4032 121.732 18.313 121.732 22.2037C121.732 26.3605 122.18 27.6527 124.14 29.1496C125.295 30.032 125.301 30.0327 131.4 30.1899C136.978 30.3336 137.543 30.3997 137.95 30.9575C138.195 31.2934 138.395 31.8114 138.395 32.1092C138.395 32.4067 137.409 36.3773 136.203 40.9331C134.345 47.9551 133.887 49.3234 133.199 49.9234C132.39 50.6282 132.341 50.631 121.446 50.631C114.314 50.631 110.162 50.5108 109.517 50.2857L108.527 49.9404V40.096V30.2515L109.439 29.9333C111.458 29.2295 112.834 27.4612 115.992 21.5116C117.679 18.3334 119.209 15.7311 119.393 15.7286C119.576 15.7261 120.045 16.0205 120.434 16.3831ZM103.433 28.0515C103.975 28.5933 103.975 52.5421 103.433 53.0839C102.929 53.588 98.4036 53.588 97.8996 53.0839C97.4051 52.5892 97.3563 29.2012 97.8477 28.2823C98.1266 27.7612 98.5228 27.6741 100.615 27.6741C102.094 27.6741 103.205 27.8228 103.433 28.0515ZM80.03 43.2027C80.6007 43.4411 81.3744 44.0263 81.7492 44.5031C82.4296 45.3682 82.4308 45.4006 82.4308 62.6236V79.8774H74.7279C70.4913 79.8774 67.025 79.8089 67.025 79.7249C67.025 79.641 67.456 78.8718 67.983 78.0154C70.3269 74.2046 71.6819 68.1858 71.1088 64.1296C70.1068 57.0375 64.687 51.5307 57.722 50.5269C53.2917 49.8885 48.6756 51.2757 45.4124 54.2261L43.7643 55.7161L42.1555 54.3082C35.8114 48.7573 26.7301 49.0539 20.7793 55.0057C17.2762 58.5099 15.834 62.5639 16.1818 67.9307C16.4789 72.5212 18.785 78.0623 21.9058 81.6857C23.2521 83.2483 24.5374 83.4675 25.7391 82.3386C26.8272 81.3159 26.6493 80.2545 25.0119 78.0038C18.7731 69.428 19.6276 59.8678 26.9552 56.2598C31.9725 53.7893 37.4988 55.2526 40.7633 59.9163C42.9651 63.0614 44.4053 63.2346 46.1157 60.5603C48.4885 56.8501 51.2544 55.257 55.3919 55.2167C57.6928 55.1944 58.3266 55.3132 59.9508 56.0718C67.8041 59.7383 68.7385 69.5198 62.0787 78.3453L60.9802 79.801L57.4787 79.9558C53.5171 80.1306 52.2844 80.5372 50.3052 82.3219C48.6068 83.8534 47.5387 86.1519 47.5349 88.2853L47.5318 89.9316L45.6545 90.8798L43.7769 91.8276L42.0052 91.0439C41.0305 90.6128 38.9275 89.4807 37.3312 88.5281C35.7353 87.5752 34.084 86.796 33.6621 86.796C31.9986 86.796 30.7777 88.5967 31.5116 89.9678C31.9945 90.87 35.525 93.0877 39.8131 95.1822L43.4549 96.9608L45.5036 96.1479L47.5519 95.335L47.4633 98.8487L47.3746 102.363L37.1564 102.446L26.9382 102.529L22.6151 106.844L18.2921 111.16V107.668C18.2921 104.652 18.2065 104.068 17.6626 103.377C17.0448 102.591 16.9445 102.574 12.2243 102.47C6.82567 102.349 6.0274 102.085 5.2178 100.147C4.56824 98.592 4.55283 46.7346 5.20145 45.1817C5.63502 44.1436 6.64678 43.2845 7.77266 42.9983C8.11128 42.9124 24.2743 42.8256 43.6904 42.8055C73.0414 42.7753 79.1676 42.842 80.03 43.2027ZM127.38 85.0053C128.002 85.2198 128.777 85.8387 129.188 86.4494L129.906 87.518L129.905 114.438C129.904 140.884 129.893 141.376 129.269 142.399C128.287 144.011 127.079 144.345 122.248 144.345C116.536 144.345 116.598 144.295 116.387 149.198L116.229 152.849L111.989 148.598L107.749 144.345H81.7178C53.464 144.345 54.3343 144.398 52.9295 142.611L52.2479 141.745V114.452V87.1586L53.06 86.1934C53.5068 85.6626 54.3201 85.0984 54.8678 84.9396C56.4578 84.4792 126.036 84.5424 127.38 85.0053ZM67.6563 107.336C65.8544 107.91 63.3977 110.559 62.81 112.562C62.1841 114.696 62.1825 115.503 62.8015 117.587C64.0413 121.764 68.6671 124.346 72.7714 123.152C76.3867 122.101 78.6061 119.477 78.8919 115.916C79.3063 110.752 75.8129 106.877 70.8148 106.955C69.6814 106.972 68.2599 107.144 67.6563 107.336ZM87.2249 107.717C84.4113 109.14 82.7453 111.885 82.7453 115.099C82.7453 118.387 84.4346 121.097 87.389 122.547C91.5574 124.594 96.3216 122.976 98.547 118.758C99.4827 116.984 99.5003 113.633 98.5844 111.64C97.2161 108.662 94.8423 107.161 91.2342 106.992C89.1783 106.896 88.6646 106.989 87.2249 107.717ZM107.741 107.672C105.819 108.581 104.682 109.753 103.811 111.722C101.971 115.885 103.959 121.007 108.127 122.839C109.657 123.512 113.034 123.537 114.544 122.886C117.574 121.58 119.635 118.473 119.62 115.235C119.596 110.378 116.164 106.929 111.356 106.929C109.861 106.929 108.891 107.128 107.741 107.672ZM73.1873 112.709C74.0126 113.534 74.2563 114.04 74.2563 114.926C74.2563 116.949 73.3147 118.125 71.2323 118.704C69.7078 119.127 67.4746 117.555 67.151 115.83C66.7253 113.561 68.3593 111.64 70.7145 111.64C71.892 111.64 72.2909 111.812 73.1873 112.709ZM93.193 112.258C94.8643 113.573 95.0995 116.201 93.6661 117.543C91.0912 119.956 87.4613 118.425 87.4613 114.926C87.4613 114.04 87.705 113.534 88.5303 112.709C89.4267 111.812 89.8257 111.64 91.0031 111.64C91.9228 111.64 92.678 111.853 93.193 112.258ZM113.576 112.282C115.166 113.415 115.375 116.126 113.991 117.656C113.233 118.494 111.571 118.881 110.27 118.522C108.71 118.091 107.898 116.914 107.898 115.081C107.898 113.819 108.054 113.418 108.865 112.607C109.66 111.812 110.086 111.64 111.253 111.64C112.18 111.64 112.988 111.863 113.576 112.282Z" fill="#2E6C77"/>
</svg>
