<svg width="520" height="616" viewBox="0 0 520 616" fill="none" xmlns="http://www.w3.org/2000/svg">
<path fill-rule="evenodd" clip-rule="evenodd" d="M513.003 229.79C515.453 229.076 518.845 225.514 519.539 222.927C519.934 221.451 520.067 194.856 519.969 136.487L519.829 52.181L518.554 50.1228C517.854 48.9904 516.301 47.4132 515.104 46.6178L512.927 45.1711L474.626 45.0222L436.326 44.874V37.5836C436.326 30.5623 436.277 30.2447 435.008 28.97L433.69 27.6462H414.846H396.002L394.685 28.97C393.415 30.2447 393.366 30.5613 393.366 37.5976V44.9015H389.07H384.774V37.5976C384.774 30.5613 384.726 30.2447 383.456 28.97L382.138 27.6462H350.407H318.675L317.357 28.97C316.088 30.2437 316.039 30.565 316.039 37.5372V44.7812L314.025 45.1565C311.174 45.6871 308.681 47.3781 307.008 49.9163L305.568 52.1023V137.648V223.195L307.008 225.381C307.8 226.583 309.371 228.143 310.499 228.846L312.549 230.126L411.893 230.215C473.599 230.27 511.906 230.109 513.003 229.79ZM313.061 222.601L311.743 221.278V137.648V54.0192L313.061 52.696L314.379 51.3722H412.698H511.017L512.335 52.696L513.653 54.0192V137.648V221.278L512.335 222.601L511.017 223.925H412.698H314.379L313.061 222.601ZM439.778 212.832C440.286 212.322 440.622 211.053 440.622 209.643V207.301L446.842 207.12C452.256 206.963 453.16 206.804 453.823 205.892C454.868 204.455 454.776 202.698 453.602 201.63C452.811 200.912 451.449 200.738 446.621 200.738H440.622V198.15C440.622 196.726 440.332 195.27 439.977 194.914C439.043 193.976 339.098 193.976 338.163 194.914C337.809 195.27 337.519 196.726 337.519 198.15V200.738H331.427C326.206 200.738 325.207 200.879 324.446 201.724C323.356 202.933 323.308 204.503 324.318 205.892C324.981 206.804 325.884 206.963 331.299 207.12L337.519 207.301V209.643C337.519 214.022 333.142 213.679 389.07 213.679C433.685 213.679 439.023 213.59 439.778 212.832ZM497.543 211.143C499.328 210.514 499.691 209.193 499.691 203.331C499.691 198.639 499.841 197.503 500.459 197.503C500.88 197.503 501.605 197.121 502.07 196.655C502.798 195.924 502.913 193.656 502.913 180.047C502.913 163.685 502.821 162.992 500.658 162.992C499.784 162.992 499.691 162.406 499.691 156.875C499.691 150.168 499.19 148.972 496.376 148.972C493.785 148.972 493.247 150.346 493.247 156.968V162.992H490.025H486.803V156.875C486.803 150.168 486.302 148.972 483.488 148.972C480.897 148.972 480.359 150.346 480.359 156.968V162.992H477.137H473.916V156.875C473.916 150.168 473.414 148.972 470.6 148.972C468.009 148.972 467.472 150.346 467.472 156.968C467.472 162.41 467.378 162.992 466.505 162.992C464.341 162.992 464.25 163.685 464.25 180.047C464.25 193.656 464.365 195.924 465.093 196.655C465.558 197.121 466.283 197.503 466.704 197.503C467.322 197.503 467.472 198.639 467.472 203.331C467.472 210.021 467.941 211.163 470.694 211.163C473.446 211.163 473.916 210.021 473.916 203.331V197.503H477.137H480.359V203.331C480.359 210.021 480.829 211.163 483.581 211.163C486.334 211.163 486.803 210.021 486.803 203.331V197.503H490.025H493.247V203.331C493.247 207.177 493.476 209.451 493.919 210.017C494.704 211.02 496.398 211.546 497.543 211.143ZM343.963 203.973V200.738H389.07H434.178V203.973V207.209H389.07H343.963V203.973ZM470.694 180.247V169.463H483.581H496.469V180.247V191.032H483.581H470.694V180.247ZM439.778 189.106C440.286 188.596 440.622 187.327 440.622 185.917V183.575L446.842 183.394C452.256 183.237 453.16 183.078 453.823 182.166C454.868 180.729 454.776 178.972 453.602 177.904C452.811 177.186 451.449 177.012 446.621 177.012H440.622V174.424C440.622 173 440.332 171.544 439.977 171.188C439.043 170.25 339.098 170.25 338.163 171.188C337.809 171.544 337.519 173 337.519 174.424V177.012H331.427C326.206 177.012 325.207 177.153 324.446 177.998C323.356 179.207 323.308 180.777 324.318 182.166C324.981 183.078 325.884 183.237 331.299 183.394L337.519 183.575V185.917C337.519 190.296 333.142 189.953 389.07 189.953C433.685 189.953 439.023 189.864 439.778 189.106ZM343.963 180.247V177.012H389.07H434.178V180.247V183.483H389.07H343.963V180.247ZM439.778 165.38C440.286 164.87 440.622 163.601 440.622 162.191V159.849L446.842 159.668C452.256 159.511 453.16 159.352 453.823 158.44C454.868 157.003 454.776 155.246 453.602 154.178C452.811 153.46 451.449 153.286 446.621 153.286H440.622V150.698C440.622 149.274 440.332 147.818 439.977 147.462C439.043 146.524 339.098 146.524 338.163 147.462C337.809 147.818 337.519 149.274 337.519 150.698V153.286H331.427C326.206 153.286 325.207 153.427 324.446 154.272C323.356 155.481 323.308 157.051 324.318 158.44C324.981 159.352 325.884 159.511 331.299 159.668L337.519 159.849V162.191C337.519 166.57 333.142 166.227 389.07 166.227C433.685 166.227 439.023 166.138 439.778 165.38ZM343.963 156.521V153.286H389.07H434.178V156.521V159.757H389.07H343.963V156.521ZM382.626 135.492C383.541 134.573 383.7 133.694 383.7 129.56C383.7 125.246 383.808 124.707 384.667 124.707C385.904 124.707 386.922 123.685 386.922 122.442C386.922 121.579 387.459 121.472 391.755 121.472C395.872 121.472 396.747 121.312 397.662 120.393C398.253 119.8 398.736 118.829 398.736 118.236C398.736 117.643 398.253 116.673 397.662 116.079C396.747 115.161 395.872 115.001 391.755 115.001H386.922V111.766V108.53H391.755C395.872 108.53 396.747 108.371 397.662 107.452C398.253 106.859 398.736 105.888 398.736 105.295C398.736 104.702 398.253 103.731 397.662 103.138C396.747 102.219 395.872 102.059 391.755 102.059H386.922V98.8241V95.5888H391.755C395.872 95.5888 396.747 95.4292 397.662 94.5103C398.253 93.9172 398.736 92.9466 398.736 92.3534C398.736 91.7603 398.253 90.7896 397.662 90.1965C396.747 89.2777 395.872 89.118 391.755 89.118H386.922V85.8827V82.6473H391.755C395.872 82.6473 396.747 82.4877 397.662 81.5689C398.253 80.9757 398.736 80.0051 398.736 79.412C398.736 78.8188 398.253 77.8482 397.662 77.2551C396.747 76.3362 395.872 76.1766 391.755 76.1766C387.459 76.1766 386.922 76.0688 386.922 75.206C386.922 73.9636 385.904 72.9412 384.667 72.9412C383.808 72.9412 383.7 72.402 383.7 68.0882C383.7 63.954 383.541 63.0756 382.626 62.1567C382.036 61.5636 381.069 61.0783 380.478 61.0783C379.888 61.0783 378.921 61.5636 378.33 62.1567C377.415 63.0756 377.256 63.954 377.256 68.0882V72.9412H374.034H370.812V68.0882C370.812 63.954 370.654 63.0756 369.738 62.1567C369.148 61.5636 368.181 61.0783 367.591 61.0783C367 61.0783 366.033 61.5636 365.443 62.1567C364.527 63.0756 364.369 63.954 364.369 68.0882V72.9412H361.147H357.925V68.0882C357.925 63.954 357.766 63.0756 356.851 62.1567C356.26 61.5636 355.293 61.0783 354.703 61.0783C354.112 61.0783 353.145 61.5636 352.555 62.1567C351.64 63.0756 351.481 63.954 351.481 68.0882V72.9412H348.259H345.037V68.0882C345.037 63.954 344.878 63.0756 343.963 62.1567C343.372 61.5636 342.405 61.0783 341.815 61.0783C341.224 61.0783 340.257 61.5636 339.667 62.1567C338.752 63.0756 338.593 63.954 338.593 68.0882C338.593 72.402 338.485 72.9412 337.626 72.9412C337.095 72.9412 336.37 73.2324 336.015 73.5883C335.661 73.9442 335.371 74.6722 335.371 75.206C335.371 76.0688 334.834 76.1766 330.538 76.1766C326.421 76.1766 325.546 76.3362 324.631 77.2551C324.04 77.8482 323.557 78.8188 323.557 79.412C323.557 80.0051 324.04 80.9757 324.631 81.5689C325.546 82.4877 326.421 82.6473 330.538 82.6473H335.371V85.8827V89.118H330.538C326.421 89.118 325.546 89.2777 324.631 90.1965C324.04 90.7896 323.557 91.7603 323.557 92.3534C323.557 92.9466 324.04 93.9172 324.631 94.5103C325.546 95.4292 326.421 95.5888 330.538 95.5888H335.371V98.8241V102.059H330.538C326.421 102.059 325.546 102.219 324.631 103.138C324.04 103.731 323.557 104.702 323.557 105.295C323.557 105.888 324.04 106.859 324.631 107.452C325.546 108.371 326.421 108.53 330.538 108.53H335.371V111.766V115.001H330.538C326.421 115.001 325.546 115.161 324.631 116.079C324.04 116.673 323.557 117.643 323.557 118.236C323.557 118.829 324.04 119.8 324.631 120.393C325.546 121.312 326.421 121.472 330.538 121.472C334.834 121.472 335.371 121.579 335.371 122.442C335.371 123.685 336.389 124.707 337.626 124.707C338.485 124.707 338.593 125.246 338.593 129.56C338.593 133.694 338.752 134.573 339.667 135.492C340.257 136.085 341.224 136.57 341.815 136.57C342.405 136.57 343.372 136.085 343.963 135.492C344.878 134.573 345.037 133.694 345.037 129.56V124.707H348.259H351.481V129.56C351.481 133.694 351.64 134.573 352.555 135.492C353.145 136.085 354.112 136.57 354.703 136.57C355.293 136.57 356.26 136.085 356.851 135.492C357.766 134.573 357.925 133.694 357.925 129.56V124.707H361.147H364.369V129.56C364.369 133.694 364.527 134.573 365.443 135.492C366.033 136.085 367 136.57 367.591 136.57C368.181 136.57 369.148 136.085 369.738 135.492C370.654 134.573 370.812 133.694 370.812 129.56V124.707H374.034H377.256V129.56C377.256 133.694 377.415 134.573 378.33 135.492C378.921 136.085 379.888 136.57 380.478 136.57C381.069 136.57 382.036 136.085 382.626 135.492ZM501.839 131.178C502.43 130.585 502.913 129.614 502.913 129.021C502.913 128.428 502.43 127.457 501.839 126.864C500.783 125.803 500.049 125.785 456.732 125.785C413.414 125.785 412.68 125.803 411.624 126.864C411.033 127.457 410.55 128.428 410.55 129.021C410.55 129.614 411.033 130.585 411.624 131.178C412.68 132.238 413.414 132.256 456.732 132.256C500.049 132.256 500.783 132.238 501.839 131.178ZM341.815 98.8241V79.412H361.147H380.478V98.8241V118.236H361.147H341.815V98.8241ZM466.666 115.585C467.257 115.329 468.344 114.467 469.083 113.669L470.425 112.219L470.58 94.4133C470.742 75.866 470.659 75.0982 468.48 75.0982C467.555 75.0982 467.472 74.6096 467.472 69.1667C467.472 63.954 467.342 63.1047 466.398 62.1567C465.807 61.5636 464.84 61.0783 464.25 61.0783C463.659 61.0783 462.692 61.5636 462.102 62.1567C461.158 63.1047 461.028 63.954 461.028 69.1667V75.0982H459.148H457.269V69.1667C457.269 63.954 457.139 63.1047 456.195 62.1567C454.854 60.8108 452.88 60.7704 451.713 62.0645C450.998 62.8583 450.825 64.2257 450.825 69.0745C450.825 75.0577 450.816 75.0982 449.548 75.0982C447.064 75.0982 447.014 75.5085 447.179 94.4467L447.334 112.285L449.088 114.048L450.842 115.81L458.217 115.931C462.273 115.997 466.075 115.842 466.666 115.585ZM453.51 95.5888V81.5689H458.88H464.25V95.5888V109.609H458.88H453.51V95.5888ZM416.994 107.452C417.585 106.859 418.068 105.888 418.068 105.295C418.068 104.702 417.585 103.731 416.994 103.138C416.403 102.545 415.437 102.059 414.846 102.059C414.255 102.059 413.289 102.545 412.698 103.138C412.107 103.731 411.624 104.702 411.624 105.295C411.624 105.888 412.107 106.859 412.698 107.452C413.289 108.045 414.255 108.53 414.846 108.53C415.437 108.53 416.403 108.045 416.994 107.452ZM498.886 106.958C499.476 106.701 500.564 105.839 501.302 105.042L502.645 103.592L502.805 90.1065C502.973 76.0499 502.84 75.0982 500.7 75.0982C499.775 75.0982 499.691 74.6096 499.691 69.1667C499.691 63.954 499.561 63.1047 498.617 62.1567C498.027 61.5636 497.06 61.0783 496.469 61.0783C495.879 61.0783 494.912 61.5636 494.321 62.1567C493.377 63.1047 493.247 63.954 493.247 69.1667V75.0982H491.368H489.488V69.1667C489.488 63.954 489.358 63.1047 488.414 62.1567C487.074 60.8108 485.1 60.7704 483.933 62.0645C483.218 62.8583 483.044 64.2257 483.044 69.0745C483.044 75.0577 483.036 75.0982 481.767 75.0982C479.326 75.0982 479.222 75.7549 479.393 90.1399L479.554 103.658L481.308 105.42L483.062 107.182L490.437 107.303C494.493 107.37 498.295 107.214 498.886 106.958ZM485.729 91.275V81.5689H491.099H496.469V91.275V100.981H491.099H485.729V91.275ZM416.994 88.0396C417.585 87.4464 418.068 86.4758 418.068 85.8827C418.068 85.2895 417.585 84.3189 416.994 83.7258C416.403 83.1326 415.437 82.6473 414.846 82.6473C414.255 82.6473 413.289 83.1326 412.698 83.7258C412.107 84.3189 411.624 85.2895 411.624 85.8827C411.624 86.4758 412.107 87.4464 412.698 88.0396C413.289 88.6327 414.255 89.118 414.846 89.118C415.437 89.118 416.403 88.6327 416.994 88.0396ZM416.994 68.6274C417.585 68.0343 418.068 67.0637 418.068 66.4705C418.068 65.8774 417.585 64.9068 416.994 64.3136C416.403 63.7205 415.437 63.2352 414.846 63.2352C414.255 63.2352 413.289 63.7205 412.698 64.3136C412.107 64.9068 411.624 65.8774 411.624 66.4705C411.624 67.0637 412.107 68.0343 412.698 68.6274C413.289 69.2206 414.255 69.7059 414.846 69.7059C415.437 69.7059 416.403 69.2206 416.994 68.6274ZM399.81 39.5092V34.1169H402.495H405.18V36.8131C405.18 38.7904 405.466 39.7966 406.254 40.5876C408.748 43.0918 411.624 41.0703 411.624 36.8131V34.1169H414.846H418.068V36.8131C418.068 38.7904 418.354 39.7966 419.142 40.5876C421.636 43.0918 424.512 41.0703 424.512 36.8131V34.1169H427.197H429.882V39.5092V44.9015H414.846H399.81V39.5092ZM322.483 39.5092V34.1169H325.168H327.853V36.8131C327.853 38.7904 328.139 39.7966 328.927 40.5876C331.421 43.0918 334.297 41.0703 334.297 36.8131V34.1169H337.519H340.741V36.8131C340.741 38.7904 341.027 39.7966 341.815 40.5876C344.309 43.0918 347.185 41.0703 347.185 36.8131V34.1169H350.407H353.629V36.8131C353.629 38.7904 353.915 39.7966 354.703 40.5876C357.196 43.0918 360.073 41.0703 360.073 36.8131V34.1169H363.295H366.517V36.8131C366.517 38.7904 366.803 39.7966 367.591 40.5876C370.084 43.0918 372.96 41.0703 372.96 36.8131V34.1169H375.645H378.33V39.5092V44.9015H350.407H322.483V39.5092Z" fill="#F3F3F3"/>
<path fill-rule="evenodd" clip-rule="evenodd" d="M85.1394 354.531C106.166 340.207 132.166 334.273 157.063 338.116C180.369 341.713 202.015 353.525 217.368 371.023C235.481 391.666 244.646 420.446 241.702 447.435L241.082 453.118L247.342 451.905L253.602 450.692L263.097 442.374L272.592 434.056L275.349 437.204L278.107 440.352L267.741 449.432L257.375 458.513L248.735 460.157C234.802 462.807 230.921 464.674 222.027 473.001C215.547 479.068 215.016 479.818 209.331 490.941L205.539 498.359L193.642 508.781C182.415 518.616 181.69 519.333 180.771 521.496C178.128 527.723 183.853 534.258 190.373 532.457C192.686 531.818 193.388 531.256 209.606 517.049L226.439 502.303L229.196 505.451L231.953 508.599L213.849 524.459C197.282 538.971 195.488 540.432 192.735 541.656C190.93 542.459 179.151 545.105 163.282 548.272C148.738 551.176 136.05 553.904 135.088 554.337C133.788 554.921 133.025 555.621 132.121 557.061C128.821 562.313 131.995 569.188 137.971 569.737C141.015 570.017 206.928 556.949 213.072 554.847C220.371 552.35 226.217 549.129 232.213 544.3C236.924 540.505 239.713 537.623 256.853 518.831L276.18 497.641L292.397 486.252C301.316 479.989 308.686 474.869 308.775 474.876C309.035 474.895 313.342 481.163 313.32 481.49C313.309 481.653 306.221 486.759 297.569 492.835L281.838 503.884L262.6 524.886C252.019 536.437 241.676 547.365 239.615 549.169C232.283 555.587 222.682 560.838 213.455 563.476C210.692 564.266 196.019 567.388 180.851 570.413C165.682 573.438 150.605 576.45 147.347 577.107C139.665 578.655 136.337 578.645 132.557 577.062C128.222 575.246 124.342 570.889 123.081 566.421C121.508 560.849 122.816 554.863 126.562 550.491C129.82 546.688 131.92 546.015 154.818 541.427C166.684 539.049 176.492 537.018 176.612 536.912C176.732 536.807 176.098 535.807 175.203 534.69L173.575 532.659L169.453 533.878C146.953 540.53 121.243 538.601 99.6017 528.638C65.9174 513.129 43.6085 480.376 41.443 443.252C39.4138 408.457 56.2953 374.18 85.1394 354.531ZM70.6391 378.952C66.4828 384.199 63.0303 389.426 60.318 394.578L57.8194 399.325L61.346 396.588C66.1672 392.846 67.431 392.657 74.661 394.604C81.6621 396.488 83.3969 397.684 84.5643 401.43C85.2212 403.538 85.0799 404.835 83.5843 410.388C81.4898 418.166 81.3361 418.338 72.1952 423.104L65.85 426.412L62.7109 434.007C59.0493 442.863 57.6687 444.492 53.2321 445.19C51.8071 445.415 50.4773 445.742 50.277 445.918C49.5234 446.578 52.0811 460.382 53.0634 460.956C53.3216 461.107 56.435 460.649 59.9825 459.937L66.4324 458.644L72.1778 451.106L77.9233 443.568L79.7426 436.987C80.743 433.367 81.8981 429.782 82.3093 429.019C82.7202 428.257 85.803 425.227 89.1593 422.287C97.2981 415.157 97.4227 415.126 107.115 417.772C113.632 419.551 114.573 419.956 116.003 421.605C118.148 424.079 124.131 435.94 124.295 438.044C124.508 440.768 123.565 442.669 118.441 449.842L113.585 456.641L108.195 458.961L102.804 461.282L102.574 465.065L102.343 468.847L107.222 474.416C109.905 477.479 112.345 480.645 112.645 481.452C112.944 482.259 113.516 487.209 113.916 492.451L114.643 501.983L119.709 507.765C125.761 514.675 125.849 514.907 125.385 522.79L125.054 528.406L134.936 529.035C146.466 529.77 154.086 529.12 164.261 526.533L171.578 524.674L171.909 522.176C172.092 520.803 172.722 518.599 173.31 517.278C174.307 515.038 175.223 514.114 187.017 503.448C198.992 492.619 199.715 491.886 200.771 489.512L201.886 487.005L199.463 484.24L197.041 481.475L190.104 483.302C179.853 486.001 179.172 485.893 174.117 480.74L170.661 477.218L166.598 478.945C160.496 481.538 158.538 481.262 152.303 476.925C144.731 471.659 143.016 468.574 144.999 463.783C145.606 462.314 146.695 460.896 148.286 459.503L150.664 457.419L149.845 451.201C148.742 442.82 149.006 442.182 156.178 435.899L161.595 431.154L162.173 423.409C162.786 415.188 163.398 413.604 166.723 411.637C168.317 410.693 186.699 407.243 189.742 407.316C192.951 407.393 194.427 408.477 200.031 414.874C204.46 419.93 205.304 421.116 205.754 422.922C206.571 426.2 205.538 435.966 203.963 439.85L202.585 443.249L207.51 448.871C212.226 454.255 212.528 454.718 214.637 459.792C215.848 462.706 216.94 465.206 217.064 465.347C217.188 465.488 219.204 464.119 221.543 462.305C223.883 460.491 227.165 458.32 228.836 457.48L231.874 455.953L232.394 453.585C233.406 448.968 233.97 434.049 233.358 428.083C231.282 407.858 222.293 388.238 208.58 374C203.091 368.3 200.389 365.877 199.952 366.26C199.79 366.401 199.835 369.359 200.052 372.832L200.445 379.147L195.793 390.542C191.428 401.234 191.014 402.029 189.078 403.423C186.888 404.999 184.721 405.413 181.845 404.805C180.344 404.488 179.455 403.757 175.879 399.9C170.171 393.742 169.927 392.742 172.136 384.601L173.78 378.543L171.495 375.935L169.21 373.326L161.277 377.978L153.344 382.629L143.383 385.198L133.422 387.768L123.551 385.649L113.68 383.53L106.579 387.177C102.565 389.239 98.7501 390.863 97.8029 390.914C96.881 390.964 94.025 390.453 91.4554 389.78C87.4729 388.735 86.4708 388.245 84.6585 386.457C82.0677 383.901 81.3803 381.07 82.6084 378.015C83.0483 376.921 85.96 372.92 89.0791 369.125C94.5788 362.433 94.7379 362.176 94.3481 360.592C94.0284 359.292 93.8094 359.011 93.2715 359.211C89.6632 360.557 75.2573 373.122 70.6391 378.952ZM102.499 358.935C102.969 361.321 103.034 363.642 102.662 364.743C102.297 365.825 99.7565 369.376 96.4701 373.397C93.4045 377.148 90.8866 380.37 90.874 380.557C90.8614 380.744 92.2672 381.27 93.9978 381.726C96.4298 382.366 97.5577 382.349 98.9638 381.649C99.9645 381.15 103.137 379.528 106.015 378.044C109.847 376.067 111.827 375.349 113.419 375.357C114.613 375.364 119.479 376.227 124.231 377.276L132.871 379.183L141.411 376.997C149.734 374.866 150.166 374.688 158.497 369.95C165.955 365.708 167.318 365.098 169.199 365.162C172.498 365.273 174.265 366.367 177.957 370.582C182.599 375.88 182.854 377.19 180.752 384.932L179.108 390.99L181.642 393.883L184.177 396.776L188.065 387.267L191.954 377.757L191.415 368.508L190.876 359.259L187.503 357.347C181.97 354.21 169.418 349.31 163.067 347.807C155.41 345.996 140.324 345.024 132.591 345.845C129.259 346.198 123.777 347.162 120.409 347.986C113.893 349.579 103.991 353.053 102.571 354.244C101.93 354.78 101.912 355.957 102.499 358.935ZM51.5107 419.254C51.0024 421.693 50.3293 426.727 50.0151 430.441L49.4435 437.194L50.9213 437.083C52.3558 436.977 52.4879 436.756 55.4551 429.494C59.0794 420.624 59.2939 420.392 68.091 415.804L74.3231 412.555L75.5058 408.206L76.6888 403.858L72.5176 402.732L68.3461 401.607L60.9029 407.922C56.809 411.396 53.229 414.369 52.9473 414.529C52.6656 414.689 52.0191 416.815 51.5107 419.254ZM88.0448 438.602C85.8891 446.693 85.5864 447.281 79.4008 455.387C70.9459 466.469 71.6059 465.969 62.9616 467.837C59.1941 468.651 55.9421 469.466 55.7347 469.648C55.3285 470.004 57.0883 474.394 59.651 479.417C62.7056 485.404 65.6568 489.892 70.3931 495.749C81.3699 509.325 96.5687 519.674 113.398 525.032L116.681 526.077L116.943 521.856L117.204 517.636L112.325 512.066C109.641 509.002 107.2 505.836 106.901 505.029C106.602 504.222 106.029 499.272 105.63 494.03L104.902 484.498L99.9628 478.86C93.932 471.975 93.4588 470.7 94.2311 463.412C94.9831 456.322 95.7027 455.378 102.763 452.221L108.272 449.758L112.142 444.253L116.013 438.748L113.024 433.003L110.036 427.258L104.739 425.831L99.4437 424.404L94.4756 428.758L89.5076 433.111L88.0448 438.602ZM169.282 434.432C168.733 435.775 167.329 437.257 163.084 440.976L157.596 445.784L158.404 451.716C159.435 459.287 159.109 460.714 155.56 464.154C152.63 466.994 152.627 467.033 155.19 468.753C156.055 469.334 157.602 470.38 158.628 471.078C160.467 472.328 160.552 472.321 164.575 470.627C171.524 467.701 174.331 468.28 178.994 473.603L181.76 476.761L188.995 474.876C198.587 472.376 200.438 472.623 204.19 476.906L206.024 478.999L208.213 475.766C209.418 473.987 210.407 472.296 210.411 472.008C210.415 471.72 209.211 468.629 207.736 465.141C205.101 458.909 204.967 458.698 200.165 453.216C197.476 450.147 195.029 446.971 194.727 446.159C193.894 443.923 194.142 441.66 195.612 438.074C196.373 436.22 197.108 432.7 197.323 429.883L197.701 424.944L193.553 420.215L189.405 415.485L180.212 417.112L171.019 418.739L170.506 425.718C170.224 429.556 169.673 433.477 169.282 434.432Z" fill="#F3F3F3"/>
<path fill-rule="evenodd" clip-rule="evenodd" d="M220.019 0.723597C217.931 1.63352 215.359 4.69224 215.014 6.67657C214.794 7.94462 202.173 228.724 202.173 231.311C202.173 231.704 201.095 231.904 198.982 231.904H195.792L192.634 223.982C173.189 175.194 160.018 124.097 155.665 80.5572C154.593 69.8323 154.632 67.3249 155.885 66.5422C156.432 66.2007 157.337 65.0237 157.897 63.9262C158.821 62.1159 158.915 60.9781 158.915 51.6324C158.915 45.5582 158.695 40.7526 158.378 39.9176C157.616 37.9041 155.961 36.2513 153.633 35.1769C151.729 34.2981 149.385 34.2478 109.822 34.2373C79.974 34.2292 67.5339 34.3892 66.3126 34.7966C63.9812 35.5747 61.4169 38.1018 60.7817 40.2481C60.4648 41.3195 60.3204 46.2383 60.418 52.661L60.579 63.2994L62.2137 65.332C64.1779 67.7746 64.2574 69.2353 63.0728 81.0602C58.7888 123.831 46.0957 173.389 27.0472 221.718L23.0322 231.904H19.5892C15.3847 231.904 14.7192 232.138 13.7816 233.952C12.6901 236.063 12.8772 237.346 14.516 238.985L15.9863 240.455H141.813H267.64L269.11 238.985C270.749 237.346 270.936 236.063 269.844 233.952C268.939 232.202 268.208 231.904 264.814 231.904H262.147L261.839 228.257C261.669 226.251 258.808 175.946 255.481 116.466C252.154 56.9868 249.205 7.48337 248.927 6.45826C248.28 4.07406 246.185 1.58523 244.087 0.708507C241.805 -0.244672 222.214 -0.2326 220.019 0.723597ZM240.903 11.277C240.903 12.7638 241.045 14.6878 241.218 15.5524L241.532 17.1243H232.164H222.795V15.9408C222.795 15.2894 222.941 13.3654 223.118 11.6653L223.442 8.57337H232.172H240.903V11.277ZM242.083 31.7902C242.264 35.1532 242.412 39.0012 242.412 40.3411V42.7772H231.8H221.187L221.502 36.8669C221.675 33.6161 221.939 29.7686 222.09 28.316L222.365 25.6753H232.06H241.755L242.083 31.7902ZM150.364 51.3281V59.879H109.621H68.8784V51.3281V42.7772H109.621H150.364V51.3281ZM243.078 51.7053C243.201 51.9126 243.465 55.8782 243.665 60.5168L244.029 68.9516L232.029 68.8163L220.029 68.6815L220.152 64.1545C220.22 61.6647 220.41 57.7599 220.575 55.4778L220.874 51.3281H231.865C237.91 51.3281 242.956 51.4981 243.078 51.7053ZM146.517 75.0947C147.218 88.1193 149.866 106.68 153.698 125.413C160.201 157.207 170.018 189.983 182.858 222.772C184.628 227.293 186.077 231.197 186.077 231.448C186.077 231.699 182.91 231.904 179.035 231.904H171.993L171.985 227.251C171.977 222.056 171.419 220.426 169.3 219.41C167.642 218.614 165.816 218.967 164.435 220.348C163.572 221.211 163.442 222.034 163.442 226.623V231.904H159.166H154.891V227.612C154.891 222.521 154.048 220.06 152.042 219.298C150.485 218.706 149.087 218.933 147.597 220.02C146.73 220.652 146.557 221.504 146.34 226.203L146.088 231.652H141.813H137.537L137.286 226.203C137.069 221.504 136.896 220.652 136.029 220.02C134.539 218.933 133.141 218.706 131.584 219.298C129.578 220.06 128.735 222.521 128.735 227.612V231.904H124.46H120.184V226.718C120.184 222.202 120.052 221.389 119.164 220.436C117.795 218.967 116.03 218.592 114.326 219.41C112.207 220.426 111.649 222.056 111.641 227.251L111.633 231.904H107.358H103.082V226.667V221.431L101.482 220.084C99.5396 218.449 97.3958 218.645 95.663 220.614C94.6515 221.764 94.5313 222.431 94.5313 226.902V231.904H90.2558H85.9803V226.835C85.9803 221.904 85.9406 221.727 84.51 220.296C83.6238 219.41 82.5096 218.826 81.7048 218.826C80.9 218.826 79.7859 219.41 78.8996 220.296C77.4691 221.727 77.4294 221.904 77.4294 226.835V231.904H73.1539H68.8784V226.835C68.8784 221.904 68.8387 221.727 67.4081 220.296C65.5003 218.388 63.7056 218.388 61.7977 220.296C60.3672 221.727 60.3275 221.904 60.3275 226.835V231.904H56.052H51.7765L51.769 227.251C51.7609 222.056 51.2026 220.426 49.084 219.41C47.3793 218.592 45.6143 218.967 44.2456 220.436C43.3579 221.389 43.2256 222.202 43.2256 226.718V231.904H37.9441C35.0393 231.904 32.6626 231.699 32.6626 231.448C32.6626 231.197 34.1113 227.293 35.8818 222.772C54.7206 174.664 67.4489 124.746 71.6318 82.5692C72.0538 78.3114 72.3994 73.5017 72.3994 71.8806V68.933H109.293H146.187L146.517 75.0947ZM78.6642 78.7188C77.0652 80.3173 77.0571 82.528 78.6431 84.372C79.8498 85.7748 79.8951 85.7834 85.9803 85.7834C92.0656 85.7834 92.1108 85.7748 93.3175 84.372C94.9035 82.528 94.8954 80.3173 93.2964 78.7188C92.1219 77.5438 91.7668 77.4839 85.9803 77.4839C80.1938 77.4839 79.8387 77.5438 78.6642 78.7188ZM104.604 78.4774C102.445 80.6362 102.917 83.8946 105.589 85.2764C106.924 85.9665 109.32 86.055 123.26 85.9293L139.386 85.7834L140.6 84.372C142.185 82.5275 142.177 80.3173 140.578 78.7188L139.344 77.4839H122.47C106.34 77.4839 105.553 77.5277 104.604 78.4774ZM244.605 78.8672C244.749 79.6277 245.015 83.4756 245.195 87.4181L245.524 94.5858H231.856H218.189L218.468 91.4421C218.622 89.7133 218.888 85.8649 219.059 82.8912L219.371 77.4839H231.858H244.344L244.605 78.8672ZM246.133 106.281C246.286 108.01 246.553 111.858 246.724 114.831L247.036 120.239H231.875H216.714L216.97 118.604C217.111 117.705 217.371 113.857 217.547 110.053L217.869 103.137H231.861H245.853L246.133 106.281ZM98.5552 112.627C89.3232 114.649 80.9503 119.59 80.9503 123.015C80.9503 124.196 81.652 125.285 91.136 138.826L96.9326 147.102L96.1419 148.76L95.3511 150.418H81.1963C67.1546 150.418 67.0334 150.428 66.0229 151.55C64.452 153.296 64.3127 154.185 64.8574 158.995C66.127 170.203 71.7042 180.628 80.1234 187.53C83.9059 190.631 86.0517 191.157 87.941 189.447C88.4938 188.947 92.2839 183.746 96.3627 177.889L103.779 167.241H107.463H111.146L118.934 178.386C127.484 190.619 128.22 191.307 131.354 189.998C133.698 189.018 139.381 183.631 142.122 179.789C146.942 173.035 150.341 163.135 150.357 155.803C150.363 153.374 150.158 152.682 149.129 151.653L147.895 150.418H133.78H119.665L118.851 148.712L118.038 147.007L125.901 135.783C132.617 126.197 133.765 124.287 133.765 122.695C133.765 121.212 133.431 120.548 132.13 119.445C130.031 117.665 122.318 114.015 118.424 112.958C113.644 111.662 103.718 111.496 98.5552 112.627ZM117.921 121.951C120.134 122.667 122.278 123.468 122.684 123.73C123.467 124.235 123.244 124.598 114.538 136.963L111.085 141.868H107.451H103.817L97.6297 133.017C94.2264 128.149 91.5143 124.11 91.6033 124.042C92.3372 123.475 97.9305 121.563 100.567 120.978C105.419 119.901 112.879 120.319 117.921 121.951ZM247.658 133.694C247.828 136.391 248.095 140.239 248.251 142.245L248.534 145.892H232.144H215.754V143.456C215.754 142.116 215.901 138.268 216.082 134.905L216.411 128.79H231.88H247.348L247.658 133.694ZM110.308 151.461C111.268 152.216 111.633 152.968 111.633 154.186C111.633 156.579 111.213 157.392 109.524 158.265C106.566 159.794 103.384 157.897 103.384 154.604C103.384 151.097 107.481 149.237 110.308 151.461ZM249.164 160.604C249.343 163.993 249.615 167.841 249.77 169.155L250.052 171.544H232.091H214.131L214.475 163.874C214.665 159.655 214.932 155.807 215.069 155.323C215.3 154.507 216.547 154.442 232.079 154.442H248.84L249.164 160.604ZM96.2797 160.455L97.0478 161.941L90.9514 170.64C87.5984 175.425 84.7475 179.454 84.6157 179.592C84.4844 179.731 83.2048 178.587 81.7722 177.052C78.0551 173.066 74.8434 166.56 73.6523 160.604L73.3254 158.969H84.4185H95.5116L96.2797 160.455ZM141.304 159.85C141.291 161.681 139.764 166.392 138.082 169.784C136.358 173.262 132.044 179.089 130.924 179.454C130.606 179.558 127.762 175.953 124.603 171.443C117.446 161.225 117.966 162.191 118.688 160.448L119.3 158.969H130.305C140.453 158.969 141.309 159.038 141.304 159.85ZM250.538 184.874C250.718 187.364 250.923 191.212 250.993 193.425L251.119 197.449L231.876 197.58L212.632 197.712L212.958 190.79C213.137 186.983 213.408 183.016 213.558 181.976L213.832 180.083L232.02 180.215L250.209 180.347L250.538 184.874ZM252.391 217.694C252.723 223.988 252.99 229.76 252.984 230.521L252.975 231.904H231.797H210.619L210.915 228.006C211.077 225.862 211.335 221.391 211.487 218.072C211.639 214.752 211.891 210.734 212.047 209.143L212.331 206.251H232.06H251.789L252.391 217.694ZM27.3585 250.241C25.6785 251.92 25.6785 254.642 27.3585 256.322L28.5929 257.557H64.1019C101.703 257.557 101.897 257.545 102.77 255.271C103.441 253.521 103.063 251.455 101.847 250.241L100.613 249.006H64.6029H28.5929L27.3585 250.241ZM117.395 250.241C116.18 251.455 115.801 253.521 116.472 255.271C117.376 257.627 115.212 257.557 187.332 257.557H255.033L256.267 256.322C257.947 254.642 257.947 251.92 256.267 250.241L255.033 249.006H186.831H118.629L117.395 250.241Z" fill="#F3F3F3"/>
<path fill-rule="evenodd" clip-rule="evenodd" d="M447.414 114.622C444.847 117.792 435.075 128.227 424.316 139.288C420.135 143.586 410.592 153.466 403.108 161.242C395.625 169.019 388.198 176.728 386.604 178.373C385.011 180.018 382.533 182.604 381.099 184.12L378.491 186.875L401.092 186.671L423.692 186.468L423.861 204.269C423.977 216.452 423.838 222.071 423.42 222.071C423.085 222.071 421.705 221.562 420.354 220.94C409.719 216.045 400.74 214.024 388.053 213.673C377.201 213.372 368.971 214.339 360.742 216.884C358.567 217.556 356.644 218.076 356.47 218.038C356.295 218 355.441 218.34 354.573 218.792C353.704 219.244 352.341 219.878 351.545 220.201C350.748 220.523 349.189 221.19 348.08 221.683C346.972 222.175 346.03 222.529 345.987 222.469C345.877 222.314 345.176 166.546 345.173 157.627L345.17 150.205L318.948 150.39L292.726 150.576L292.947 186.955C293.163 222.434 293.141 223.319 292.078 222.73C286.778 219.798 279.441 217.493 267.807 215.107C260.166 213.54 235.904 214.457 234.728 216.359C234.557 216.635 233.865 216.86 233.189 216.86C232.513 216.86 231.16 217.115 230.181 217.427C224.241 219.316 220.523 220.653 217.98 221.813C216.392 222.537 214.939 223.035 214.751 222.919C214.564 222.803 214.429 214.815 214.452 205.167L214.493 187.626L236.988 187.336L259.482 187.047L256.98 184.682C252.566 180.51 193.746 121.16 190.532 117.636L187.433 114.238L185.546 116.198C184.508 117.276 180.836 121.154 177.385 124.815C168.91 133.807 151.799 151.722 142.857 160.964C135.673 168.39 128.843 175.559 121.327 183.567C119.238 185.791 117.644 187.797 117.784 188.024C117.924 188.25 118.879 188.328 119.907 188.197C122.119 187.914 161.498 187.746 161.753 188.018C161.848 188.121 162.1 214.255 162.311 246.095C162.679 301.594 162.779 307.427 163.535 317.879C164.214 327.279 168.178 341.878 171.929 348.795C172.869 350.53 173.639 352.131 173.639 352.353C173.639 353.053 178.84 361.432 179.736 362.174C180.207 362.565 180.595 363.179 180.599 363.538C180.622 366.282 196.856 382.185 204.816 387.263C208.778 389.791 209.576 390.234 215.652 393.284C223.757 397.353 235.14 400.73 244.338 401.796C247.032 402.108 262.278 402.166 264.33 401.872C269.701 401.102 271.666 400.732 274.182 400.016C275.775 399.562 277.079 399.217 277.079 399.25C277.079 399.408 280.698 398.487 281.715 398.07C282.353 397.808 283.787 397.269 284.902 396.87C286.832 396.181 288.309 395.604 292.076 394.064C292.994 393.689 293.812 393.457 293.895 393.549C293.977 393.64 294.186 401.595 294.359 411.227L294.672 428.738H272.112C259.705 428.738 249.553 428.939 249.553 429.185C249.553 429.431 261.222 441.283 275.486 455.523C289.748 469.763 305.977 486.112 311.549 491.855L321.681 502.296L325.457 498.313C327.534 496.122 332.885 490.452 337.347 485.711C341.809 480.971 353.297 469.014 362.875 459.139C389.475 431.717 391.804 429.28 392.032 428.639C392.176 428.236 385.033 428.109 369.866 428.246L347.488 428.449L347.472 423.818C347.463 421.27 347.299 413.219 347.108 405.926C346.816 394.794 346.888 392.715 347.559 392.976C347.998 393.146 350.313 394.071 352.704 395.032C358.808 397.485 362.473 398.569 369.799 400.088C378.472 401.887 394.107 401.77 402.54 399.843C413.039 397.445 418.101 395.727 425.72 391.978C430.424 389.664 438.269 384.711 440.51 382.64C441.155 382.045 443.685 379.786 446.134 377.621C452.791 371.736 457.104 366.311 464.74 354.217C465.59 352.871 466.285 351.593 466.285 351.379C466.285 351.164 467.068 349.334 468.024 347.312C468.98 345.291 469.762 343.299 469.762 342.885C469.762 342.473 469.999 341.887 470.288 341.585C471.319 340.505 474.673 327.678 475.275 322.51C475.423 321.236 475.708 318.892 475.907 317.3C476.347 313.775 476.277 264.347 475.767 219.321C475.448 191.202 475.514 186.177 476.199 186.165C476.643 186.158 486.757 186.164 498.674 186.179C519.214 186.204 520.3 186.153 519.536 185.195C518.686 184.129 507.766 172.951 486.756 151.642C479.8 144.586 468.893 133.408 462.519 126.8C456.144 120.193 450.584 114.438 450.163 114.012C449.104 112.94 448.706 113.029 447.414 114.622ZM392.979 267.884C400.145 269.449 405.913 272.535 412.306 278.224C414.56 280.23 418.266 285.23 419.856 288.412C423.463 295.63 424.174 298.687 424.225 307.169C424.276 315.663 423.375 319.761 420.089 325.983C416.292 333.173 409.483 340.126 402.619 343.821C396.598 347.063 386.956 348.413 378.93 347.139C374.302 346.403 367.523 343.607 363.73 340.868C359.911 338.111 353.494 330.996 351.515 327.325C347.518 319.911 346.789 316.988 346.706 308.037C346.624 299.129 347.209 296.254 350.538 289.223C353.951 282.011 361.605 274.268 368.35 271.203C372.62 269.263 373.367 268.982 376.463 268.143C381.735 266.715 387.231 266.629 392.979 267.884ZM266.109 269.727C268.363 270.503 270.829 271.494 271.588 271.931C277.267 275.192 283.26 280.357 285.927 284.289C286.796 285.57 287.641 286.748 287.804 286.907C288.521 287.606 291.259 293.865 292.236 297.038C293.067 299.737 293.299 302.319 293.277 308.616C293.247 317.34 292.564 320.286 288.966 327.219C284.54 335.747 276.415 342.796 266.648 346.581C260.526 348.954 248.667 349.008 242.599 346.691C242.121 346.509 241.358 346.285 240.903 346.193C239.184 345.849 234.055 342.74 230.336 339.789C222.138 333.283 217.296 324.952 215.724 314.65C213.874 302.513 216.489 292.345 223.958 282.634C225.701 280.368 227.468 278.311 227.884 278.064C228.301 277.818 229.865 276.682 231.361 275.542C236.273 271.796 241.677 269.434 247.815 268.351C252.602 267.506 261.626 268.185 266.109 269.727Z" fill="#2E6C77"/>
</svg>
