<svg width="19" height="11" viewBox="0 0 19 11" fill="none" xmlns="http://www.w3.org/2000/svg">
<path d="M18.4669 10.4879C18.1292 10.8159 17.6723 11 17.1962 11C16.72 11 16.2632 10.8159 15.9255 10.4879L9.45494 4.25413L3.0745 10.4879C2.7368 10.8159 2.27999 11 1.80382 11C1.32766 11 0.870841 10.8159 0.533142 10.4879C0.364207 10.3242 0.23012 10.1295 0.138615 9.91487C0.0471107 9.70028 0 9.47011 0 9.23764C0 9.00518 0.0471107 8.77501 0.138615 8.56042C0.23012 8.34583 0.364207 8.15107 0.533142 7.98736L8.17525 0.520889C8.3428 0.355837 8.54215 0.224833 8.76178 0.13543C8.98142 0.0460291 9.217 0 9.45494 0C9.69288 0 9.92846 0.0460291 10.1481 0.13543C10.3677 0.224833 10.5671 0.355837 10.7346 0.520889L18.4669 7.98736C18.6358 8.15107 18.7699 8.34583 18.8614 8.56042C18.9529 8.77501 19 9.00518 19 9.23764C19 9.47011 18.9529 9.70028 18.8614 9.91487C18.7699 10.1295 18.6358 10.3242 18.4669 10.4879Z" fill="#181818"/>
</svg>
