<svg width="19" height="11" viewBox="0 0 19 11" fill="none" xmlns="http://www.w3.org/2000/svg">
<path d="M18.4669 0.512074C18.1292 0.184094 17.6723 0 17.1962 0C16.72 0 16.2632 0.184094 15.9255 0.512074L9.45494 6.74587L3.0745 0.512074C2.7368 0.184094 2.27999 0 1.80382 0C1.32766 0 0.870841 0.184094 0.533142 0.512074C0.364207 0.675778 0.23012 0.870542 0.138615 1.08513C0.0471107 1.29972 0 1.52989 0 1.76236C0 1.99482 0.0471107 2.22499 0.138615 2.43958C0.23012 2.65417 0.364207 2.84893 0.533142 3.01264L8.17525 10.4791C8.3428 10.6442 8.54215 10.7752 8.76178 10.8646C8.98142 10.954 9.217 11 9.45494 11C9.69288 11 9.92846 10.954 10.1481 10.8646C10.3677 10.7752 10.5671 10.6442 10.7346 10.4791L18.4669 3.01264C18.6358 2.84893 18.7699 2.65417 18.8614 2.43958C18.9529 2.22499 19 1.99482 19 1.76236C19 1.52989 18.9529 1.29972 18.8614 1.08513C18.7699 0.870542 18.6358 0.675778 18.4669 0.512074Z" fill="#181818"/>
</svg>
