<svg width="11" height="7" viewBox="0 0 11 7" fill="none" xmlns="http://www.w3.org/2000/svg">
<path d="M10.2458 0.288223C10.0585 0.103618 9.80501 0 9.54082 0C9.27664 0 9.02319 0.103618 8.83582 0.288223L5.24581 3.79694L1.7058 0.288223C1.51844 0.103618 1.26499 0 1.0008 0C0.736615 0 0.483162 0.103618 0.295799 0.288223C0.20207 0.380365 0.127676 0.489988 0.0769069 0.610771C0.0261381 0.731553 0 0.861104 0 0.99195C0 1.1228 0.0261381 1.25235 0.0769069 1.37313C0.127676 1.49391 0.20207 1.60353 0.295799 1.69568L4.53581 5.89821C4.62877 5.99111 4.73938 6.06485 4.86123 6.11517C4.98309 6.16549 5.1138 6.1914 5.24581 6.1914C5.37782 6.1914 5.50853 6.16549 5.63039 6.11517C5.75225 6.06485 5.86285 5.99111 5.95581 5.89821L10.2458 1.69568C10.3396 1.60353 10.4139 1.49391 10.4647 1.37313C10.5155 1.25235 10.5416 1.1228 10.5416 0.99195C10.5416 0.861104 10.5155 0.731553 10.4647 0.610771C10.4139 0.489988 10.3396 0.380365 10.2458 0.288223Z" fill="#181818"/>
</svg>
