<svg width="64" height="64" viewBox="0 0 64 64" fill="none" xmlns="http://www.w3.org/2000/svg">
<path fill-rule="evenodd" clip-rule="evenodd" d="M0.561929 0.667C-1.28307 2.511 1.00393 5.586 13.6319 18.237L27.3679 32L13.5319 45.863C3.78693 55.626 -0.198071 60.28 0.0569291 61.601C0.947929 66.23 4.12593 64.243 18.0319 50.363L31.8949 36.527L45.8009 50.406C55.7529 60.339 60.1669 64.11 61.3239 63.666C65.5729 62.035 64.2139 59.846 50.3009 45.906L36.4219 32L50.2669 18.129C61.7949 6.578 63.9979 3.901 63.4359 2.129C63.0639 0.958 62.0089 0 61.0909 0C60.1719 0 53.2279 6.181 45.6579 13.737L31.8949 27.473L18.1319 13.737C5.48093 1.109 2.40593 -1.178 0.561929 0.667Z" fill="black"/>
</svg>
