<svg width="220" height="78" viewBox="0 0 220 78" fill="none" xmlns="http://www.w3.org/2000/svg">
<path fill-rule="evenodd" clip-rule="evenodd" d="M7.22844 7.32875C3.20989 11.3295 -0.0426687 14.638 0.000423294 14.681C0.0436264 14.724 2.14325 14.7592 4.66613 14.7592H9.25332L9.28897 28.22C9.32462 41.6576 9.32507 41.6826 9.57062 42.7507C11.2392 50.0082 16.444 55.4673 23.4082 57.2645C27.3222 58.2746 31.4467 58.0048 35.2623 56.4894C35.7891 56.2801 36.2515 56.109 36.2897 56.109C36.3279 56.109 36.3592 57.7254 36.3592 59.701V63.293L31.6943 63.3218L27.0293 63.3507L34.3878 70.6753L41.7464 78L49.1313 70.6477L56.5163 63.2954H51.8242H47.1322V59.7022C47.1322 57.7259 47.1635 56.109 47.2017 56.109C47.2399 56.109 47.7023 56.2801 48.229 56.4894C50.7356 57.4849 52.4938 57.8125 55.3508 57.8159C57.1694 57.8181 57.7182 57.7782 58.7753 57.5667C66.7934 55.9626 72.6457 50.0116 74.0178 42.0677C74.2282 40.8498 74.2372 40.2559 74.233 27.9562C74.2305 20.8942 74.2595 15.0358 74.2974 14.9377C74.3591 14.7774 74.8347 14.7592 78.9633 14.7592C81.4917 14.7592 83.5605 14.7217 83.5605 14.676C83.5605 14.6302 80.2619 11.3094 76.2304 7.29635L68.9003 0L61.5702 7.29635C57.5387 11.3094 54.2402 14.6302 54.2402 14.676C54.2402 14.7217 56.3142 14.7592 58.8492 14.7592H63.4583V18.3539V21.9486L63.0418 21.7648C61.9291 21.2737 59.7119 20.5996 58.516 20.389C56.798 20.0864 54.0166 20.0595 52.4632 20.3306C50.5958 20.6565 48.9321 21.1617 47.271 21.9071C47.1607 21.9565 47.1322 20.467 47.1322 14.6605V7.35163H41.7457H36.3592V14.6501V21.9486L35.9427 21.764C34.8835 21.2942 32.5684 20.5929 31.3871 20.3839C29.5594 20.0604 26.8232 20.0623 24.9753 20.3885C23.7792 20.5996 21.5612 21.2741 20.4496 21.7648L20.0331 21.9486V18.3539V14.7592H24.7251H29.4172L22.0322 7.40691C17.9705 3.36315 14.6219 0.054617 14.5911 0.054617C14.5602 0.054617 11.247 3.32799 7.22844 7.32875ZM168.346 17.4543C168.314 17.538 168.303 17.8491 168.322 18.1454L168.356 18.6841L170.383 18.7143L172.41 18.7444V18.0233V17.3021H170.407C168.809 17.3021 168.393 17.3328 168.346 17.4543ZM109.142 19.8404C108.307 20.0386 107.675 20.6514 107.441 21.4904C107.293 22.0194 107.293 29.1689 107.441 29.698C107.612 30.3114 108.008 30.8177 108.554 31.1213C109.013 31.3768 109.158 31.3968 110.549 31.3975C112.235 31.3984 112.615 31.2865 113.209 30.6138C113.787 29.9584 113.825 29.6447 113.825 25.5389C113.825 22.1773 113.804 21.725 113.624 21.2617C113.35 20.5536 112.722 20.0112 112 19.8569C111.363 19.721 109.687 19.7112 109.142 19.8404ZM116.889 19.8475C116.216 19.9884 115.62 20.4073 115.382 20.9064C115.092 21.5141 115.001 22.573 114.998 25.373C114.993 29.6572 115.199 30.5926 116.267 31.1191C116.758 31.3612 116.954 31.3908 117.989 31.3782C118.84 31.3678 119.359 31.3002 119.905 31.1281C120.697 30.8792 120.729 30.8324 120.534 30.2266C120.468 30.0199 120.397 29.7943 120.376 29.7252C120.35 29.6366 120.116 29.661 119.583 29.8081C118.745 30.0394 117.372 30.0842 116.952 29.8939C116.803 29.8263 116.626 29.6499 116.558 29.5017C116.402 29.1612 116.387 22.1961 116.541 21.7923C116.712 21.3453 117.193 21.1717 118.261 21.1717C118.926 21.1717 119.376 21.2349 119.768 21.3833L120.328 21.595L120.603 21.0545L120.878 20.514L120.626 20.3496C119.877 19.8611 118.017 19.6113 116.889 19.8475ZM130.755 19.8782C130.037 20.0811 129.599 20.4291 129.3 21.0343C129.042 21.5548 129.04 21.5887 129.04 25.5942C129.04 30.0451 129.042 30.0564 129.759 30.7698C130.265 31.2741 130.757 31.3975 132.261 31.3975C133.767 31.3975 134.219 31.283 134.748 30.7683C135.483 30.0533 135.482 30.0604 135.482 25.5912V21.5526L135.198 21.0039C135 20.6203 134.758 20.3584 134.393 20.1342C133.909 19.8364 133.778 19.8106 132.567 19.7741C131.718 19.7486 131.084 19.785 130.755 19.8782ZM146.458 19.843C145.84 19.9737 145.38 20.2208 145.105 20.5684C144.62 21.1823 144.589 21.4753 144.589 25.4836C144.589 29.8375 144.65 30.2597 145.364 30.8839C145.844 31.3037 146.303 31.4039 147.632 31.3794C148.626 31.3611 150.198 31.0041 150.198 30.7967C150.198 30.7546 150.122 30.466 150.029 30.1556L149.861 29.5911L149.113 29.8038C148.191 30.0662 146.692 30.0937 146.349 29.8543C145.946 29.5729 145.866 28.8827 145.873 25.7387C145.883 21.2655 145.888 21.2507 147.565 21.1895C148.365 21.1603 148.734 21.1998 149.234 21.3679L149.876 21.5836L150.145 21.0564L150.413 20.5293L150.166 20.3727C149.347 19.8522 147.596 19.6021 146.458 19.843ZM180.824 19.8416C180.535 19.894 180.044 20.021 179.733 20.1239C179.123 20.3255 179.115 20.3509 179.41 21.1241C179.506 21.3748 179.566 21.4069 179.825 21.3426C179.992 21.3012 180.754 21.2403 181.517 21.2073C182.796 21.1521 182.928 21.165 183.183 21.3709C183.447 21.5832 183.461 21.652 183.461 22.7375C183.461 23.3661 183.422 24.0187 183.374 24.1877C183.261 24.5904 182.806 24.781 181.684 24.8954L180.795 24.9861L180.762 25.5665L180.728 26.147L181.539 26.1476C182.549 26.1484 183.139 26.3055 183.319 26.6217C183.407 26.7775 183.457 27.3383 183.459 28.1739C183.461 29.4712 183.458 29.4844 183.149 29.7494C182.866 29.9916 182.738 30.0166 181.777 30.0166C181.177 30.0166 180.427 29.9419 180.049 29.8446C179.682 29.7499 179.363 29.6918 179.339 29.7152C179.316 29.7386 179.226 29.9909 179.14 30.2759C178.96 30.8716 178.935 30.8439 179.962 31.1849C180.622 31.4038 182.541 31.4753 183.324 31.3103C183.944 31.1796 184.482 30.6544 184.681 29.9861C184.878 29.3265 184.909 27.1943 184.73 26.5557C184.666 26.3244 184.476 25.9826 184.309 25.7961L184.004 25.457L184.305 25.1576C184.723 24.7415 184.848 24.1866 184.843 22.7749C184.837 21.0319 184.592 20.4624 183.671 20.052C183.137 19.8138 181.603 19.7005 180.824 19.8416ZM203.285 19.8307C202.349 20.0362 201.837 20.5109 201.564 21.4281C201.321 22.2414 201.321 28.9469 201.564 29.7602C201.774 30.4643 202.072 30.843 202.657 31.1473C203.054 31.3537 203.306 31.3882 204.451 31.3931C206.129 31.4 206.525 31.3151 207.061 30.8325C207.863 30.112 207.894 29.9128 207.894 25.5942C207.894 22.6661 207.859 21.6813 207.744 21.3557C207.546 20.7979 206.994 20.1841 206.508 19.9799C206.066 19.7945 203.906 19.6945 203.285 19.8307ZM96.8879 25.5389V31.2328H97.6085H98.3292L98.3581 26.8933L98.3872 22.5537L99.5979 26.8656C100.264 29.2371 100.823 31.1947 100.839 31.2159C100.885 31.2722 102.013 31.2537 102.071 31.1955C102.099 31.1682 102.67 29.1896 103.341 26.7987C104.012 24.4077 104.584 22.4289 104.612 22.4013C104.639 22.3736 104.662 24.3448 104.662 26.7817V31.2123L105.283 31.2501C105.624 31.271 105.924 31.2674 105.949 31.2419C105.974 31.2166 105.995 28.642 105.995 25.5204V19.845H104.992C104.054 19.845 103.983 19.8611 103.893 20.0938C103.841 20.2306 103.282 22.1207 102.652 24.2939C102.022 26.4672 101.473 28.2085 101.434 28.1635C101.394 28.1186 100.852 26.3156 100.229 24.1569C99.6058 21.9982 99.0706 20.145 99.0396 20.0385C98.991 19.8719 98.8377 19.845 97.9356 19.845H96.8879V25.5389ZM122.099 25.5389V31.2328H122.765H123.432V28.6346C123.432 26.4281 123.456 26.0364 123.594 26.0364C123.683 26.0364 124.584 27.1919 125.596 28.6042C126.608 30.0165 127.497 31.1988 127.572 31.2317C127.646 31.2645 128.014 31.2657 128.388 31.2344L129.069 31.1775L127.034 28.3582C125.914 26.8076 124.995 25.4866 124.992 25.4228C124.989 25.3589 125.765 24.1648 126.716 22.7693C127.667 21.3737 128.494 20.145 128.553 20.0385C128.65 19.8627 128.59 19.845 127.901 19.845H127.142L125.446 22.2773C124.513 23.6151 123.678 24.7097 123.591 24.7097C123.458 24.7097 123.432 24.314 123.432 22.2773V19.845H122.765H122.099V25.5389ZM136.897 25.5454L136.926 31.2668L139.425 31.2459C141.765 31.2264 141.954 31.2094 142.413 30.9788C143.047 30.6598 143.307 30.1577 143.442 28.9904C143.628 27.3909 143.4 26.0306 142.856 25.4895C142.67 25.3038 142.562 25.1519 142.616 25.1519C142.671 25.1519 142.837 24.9405 142.986 24.682C143.236 24.248 143.256 24.0985 143.256 22.7196C143.256 20.9575 143.131 20.5891 142.392 20.1672C141.941 19.9102 141.829 19.8988 139.396 19.8621L136.868 19.824L136.897 25.5454ZM151.604 19.9188C151.564 19.9592 151.53 22.5215 151.53 25.6126V31.2328H152.252H152.974V28.6346C152.974 26.5453 153.003 26.0364 153.122 26.0364C153.203 26.0364 154.108 27.2056 155.132 28.6346C156.568 30.6387 157.048 31.2332 157.233 31.2348C157.364 31.2359 158.122 31.2656 158.916 31.3009C160.039 31.3507 160.399 31.3319 160.536 31.216C160.633 31.134 161.428 29.2012 162.301 26.9209C163.175 24.6406 163.955 22.6505 164.036 22.4985C164.16 22.2655 164.183 22.9398 164.187 26.7917L164.191 31.3612L164.83 31.3182L165.469 31.2752L165.497 25.5601L165.526 19.845H164.553H163.58L163.095 21.1441C162.575 22.5385 160.295 28.3789 160.127 28.7451C160.064 28.8831 160.016 27.2516 159.998 24.4056L159.969 19.845H159.304H158.64L158.612 25.5051L158.583 31.165L156.758 28.6284C155.754 27.2332 154.818 25.9387 154.677 25.7517L154.421 25.4117L156.156 22.8771C157.111 21.4831 157.965 20.2306 158.056 20.0938L158.22 19.845H157.439H156.658L154.963 22.2773C154.031 23.6151 153.202 24.7097 153.121 24.7097C153.004 24.7097 152.974 24.2228 152.974 22.2773V19.845H152.326C151.97 19.845 151.645 19.8782 151.604 19.9188ZM166.968 25.5985V31.352L167.936 31.32L168.905 31.288L169.101 30.7905C169.21 30.5169 169.976 28.5555 170.804 26.432C171.632 24.3083 172.355 22.4924 172.412 22.3965C172.476 22.2878 172.516 23.9404 172.518 26.7769L172.521 31.3318L173.187 31.3286L173.854 31.3254V25.5852V19.845H172.875H171.897L170.251 24.1292C169.345 26.4856 168.538 28.5378 168.457 28.6899C168.332 28.9236 168.309 28.2617 168.305 24.4056L168.301 19.845H167.634H166.968V25.5985ZM188.442 20.149C188.4 20.3162 187.755 22.8661 187.008 25.8153C186.261 28.7645 185.672 31.2147 185.7 31.2604C185.728 31.3061 186.046 31.3433 186.408 31.3433C186.999 31.3433 187.072 31.318 187.124 31.0946C187.155 30.9577 187.269 30.4229 187.376 29.906L187.571 28.9663L189.372 28.9359C191.166 28.9057 191.174 28.9066 191.232 29.157C191.264 29.2953 191.378 29.8314 191.485 30.3483L191.679 31.288L192.373 31.321C192.755 31.339 193.068 31.3141 193.069 31.2657C193.07 31.2172 192.437 28.6277 191.661 25.5112L190.251 19.845H189.385C188.532 19.845 188.517 19.8498 188.442 20.149ZM193.678 19.9726C193.646 20.0544 193.634 22.6339 193.649 25.7047L193.678 31.288H196.011C197.293 31.288 198.531 31.2482 198.762 31.1997C198.992 31.1511 199.354 30.9598 199.566 30.7747C200.101 30.3068 200.287 29.6138 200.287 28.0818C200.287 26.6358 200.09 25.8281 199.657 25.4887C199.392 25.2811 199.381 25.2431 199.535 25.068C200.006 24.5334 200.106 24.1317 200.109 22.772C200.112 21.5782 200.084 21.3863 199.838 20.8925C199.382 19.9751 199.146 19.9081 196.206 19.8623C194.21 19.8311 193.724 19.8523 193.678 19.9726ZM211.672 19.9786C211.644 20.0571 211.118 22.1364 210.502 24.5991C209.887 27.0619 209.333 29.2635 209.273 29.4914C209.167 29.8922 209.146 29.906 208.667 29.906H208.172V30.6247V31.3433H212.559H216.946V30.6247V29.906H216.458H215.97L215.785 29.1598C215.683 28.7494 215.115 26.498 214.523 24.1569L213.447 19.9003L212.585 19.868C211.956 19.8445 211.709 19.8744 211.672 19.9786ZM111.988 21.28C112.1 21.3395 112.246 21.5459 112.314 21.7387C112.477 22.2045 112.482 28.9684 112.32 29.4321C112.154 29.9048 111.806 30.0166 110.5 30.0166C109.17 30.0166 108.936 29.9044 108.769 29.1874C108.712 28.9442 108.666 27.3272 108.666 25.5942C108.666 23.8611 108.712 22.2442 108.769 22.0009C108.937 21.2758 109.163 21.1717 110.568 21.1717C111.237 21.1717 111.876 21.2205 111.988 21.28ZM133.751 21.3652C134.108 21.6572 134.203 22.5451 134.203 25.5942C134.203 27.084 134.155 28.6014 134.096 28.9663C133.937 29.9387 133.801 30.0166 132.261 30.0166C130.721 30.0166 130.585 29.9387 130.427 28.9663C130.367 28.6014 130.319 27.084 130.319 25.5942C130.319 24.1044 130.367 22.5869 130.427 22.2221C130.585 21.2497 130.721 21.1717 132.261 21.1717C133.29 21.1717 133.556 21.2063 133.751 21.3652ZM205.988 21.2754C206.501 21.4696 206.56 21.9163 206.561 25.5942C206.562 29.1379 206.499 29.6729 206.06 29.9069C205.947 29.9672 205.307 30.0166 204.638 30.0166C203.233 30.0166 203.007 29.9126 202.838 29.1874C202.782 28.9442 202.735 27.3272 202.735 25.5942C202.735 23.8611 202.782 22.2442 202.838 22.0009C203.005 21.2842 203.24 21.1717 204.568 21.1717C205.198 21.1717 205.837 21.2184 205.988 21.2754ZM141.712 21.5149C141.893 21.714 141.924 21.923 141.924 22.9617C141.924 24.1548 141.918 24.1803 141.612 24.4427C141.315 24.6974 141.229 24.7097 139.752 24.7097H138.203V22.996V21.2823H139.852C141.387 21.2823 141.515 21.2983 141.712 21.5149ZM198.461 21.4392C198.653 21.5797 198.676 21.7374 198.676 22.9416C198.676 24.7422 198.714 24.7097 196.609 24.7097H195.067V22.996V21.2823H196.656C197.853 21.2823 198.298 21.321 198.461 21.4392ZM190.178 24.8997C190.546 26.3725 190.846 27.6038 190.846 27.6361C190.846 27.6684 190.178 27.6948 189.361 27.6948H187.876L188.611 24.7609C189.09 22.8485 189.374 21.8958 189.428 22.0245C189.473 22.1332 189.81 23.4271 190.178 24.8997ZM213.501 25.6585C213.989 27.721 214.415 29.5204 214.448 29.6573L214.507 29.906H212.554C210.745 29.906 210.605 29.8918 210.66 29.7126C210.766 29.3688 212.503 22.0067 212.503 21.9008C212.503 21.5377 212.715 22.3334 213.501 25.6585ZM141.782 26.3435C142.019 26.5798 142.035 26.6847 142.035 28.0393C142.035 29.9659 142.104 29.906 139.857 29.906H138.203V28.045C138.203 27.0213 138.24 26.1472 138.285 26.1024C138.33 26.0576 139.078 26.0369 139.948 26.0563C141.421 26.0893 141.547 26.1089 141.782 26.3435ZM198.336 26.1922C198.542 26.278 198.75 26.4641 198.8 26.6068C198.849 26.7491 198.882 27.4374 198.873 28.1364C198.858 29.3616 198.847 29.4163 198.566 29.6566C198.293 29.8906 198.175 29.906 196.671 29.906H195.067V27.9712V26.0364H196.514C197.508 26.0364 198.079 26.0853 198.336 26.1922ZM29.9513 31.0762C30.3908 31.1726 31.2211 31.4762 31.7963 31.751C32.6931 32.1795 32.9857 32.3945 33.851 33.2619C34.9539 34.3675 35.4566 35.1227 35.8624 36.2842C37.2299 40.1988 35.4703 44.4731 31.7501 46.2727C30.5691 46.844 29.5602 47.0705 28.1961 47.0705C21.284 47.0705 17.5408 39.1402 21.9337 33.8029C23.1041 32.3808 24.8205 31.3954 26.8634 30.9727C27.4249 30.8565 29.2237 30.9168 29.9513 31.0762ZM57.0722 31.0686C58.6654 31.404 60.5398 32.5461 61.5837 33.8176C62.3448 34.7446 63.0688 36.2638 63.3005 37.4196C64.134 41.5797 61.5611 45.6838 57.3991 46.8333C56.2877 47.1404 54.55 47.1648 53.4072 46.8896C48.0383 45.5969 45.487 39.3772 48.4103 34.7081C49.48 32.9996 51.3557 31.6404 53.3517 31.1274C54.3728 30.8649 55.9839 30.8395 57.0722 31.0686ZM132.539 33.9582C131.245 34.1305 128.931 34.9073 129.015 35.141C129.04 35.211 129.231 35.7578 129.439 36.356L129.818 37.444L130.262 37.3795C130.506 37.3441 131.106 37.242 131.595 37.1524C132.632 36.9624 135.241 36.9291 135.732 37.0997C136.262 37.2833 136.371 37.6904 136.368 39.4712C136.366 40.7065 136.323 41.1292 136.16 41.5555C135.869 42.3148 135.561 42.4231 133.511 42.4866L131.872 42.5374V43.9515V45.3655L133.682 45.4027C135.771 45.4456 136.003 45.5255 136.205 46.2724C136.271 46.5177 136.331 47.5101 136.337 48.4777C136.354 51.0606 136.33 51.084 133.705 51.0668C132.076 51.0562 131.827 51.0268 130.709 50.7136C130.039 50.5256 129.486 50.3816 129.479 50.3935C129.473 50.4053 129.306 50.9824 129.108 51.6758C128.7 53.1086 128.636 52.9526 129.837 53.4538C131.233 54.0366 131.969 54.1651 133.927 54.1675C136.994 54.1714 138.218 53.6768 138.904 52.1563C139.33 51.2094 139.451 50.1687 139.401 47.888C139.351 45.6867 139.221 45.1274 138.54 44.1918L138.219 43.7498L138.477 43.5081C139.41 42.6355 139.779 39.744 139.301 37.0432C139.028 35.497 138.171 34.5787 136.593 34.1406C136.035 33.9857 133.267 33.8612 132.539 33.9582ZM198.287 34.1674C197.469 34.389 196.536 35.04 196.093 35.6982C195.894 35.9942 195.619 36.5907 195.482 37.0237C195.237 37.8007 195.233 37.8943 195.233 44.1131C195.233 50.3042 195.238 50.4287 195.478 51.1905C195.996 52.8287 197.002 53.7684 198.598 54.1053C199.36 54.266 202.768 54.266 203.53 54.1052C205.157 53.7614 206.19 52.7828 206.706 51.095C206.96 50.2665 207.041 39.097 206.804 37.7298C206.599 36.5491 206.261 35.8453 205.563 35.1471C204.607 34.1902 204.138 34.0679 201.286 34.0321C199.438 34.0088 198.76 34.0394 198.287 34.1674ZM96.9013 34.2289C96.1829 34.3515 95.3765 34.6922 95.018 35.0249C94.6899 35.3294 94.293 36.1092 94.1345 36.7608C93.8827 37.7959 93.7496 39.7011 93.8181 41.2938C93.9266 43.8229 94.3002 44.9366 95.3573 45.8827C96.2389 46.6718 96.5616 46.7416 99.5812 46.7953L102.219 46.8422V50.4252V54.0083H103.774H105.329V50.4151V46.8218H107.585C110.754 46.8218 111.498 46.6503 112.453 45.7003C113.412 44.7455 113.76 43.3715 113.765 40.5199C113.77 37.41 113.394 35.8069 112.461 34.9704C111.566 34.168 111.633 34.1747 104.162 34.1495C100.483 34.137 97.2312 34.1726 96.9013 34.2289ZM115.324 44.0578V54.0083H117.311C119.1 54.0083 119.306 53.989 119.377 53.8148C119.419 53.7085 120.574 50.7187 121.943 47.171C123.312 43.6233 124.48 40.6382 124.539 40.5373C124.609 40.4177 124.648 42.727 124.65 47.1812L124.653 54.0083H126.209H127.764L127.736 44.0855L127.708 34.1626H125.729H123.751L122.663 37.0372C122.065 38.6182 121.026 41.3049 120.354 43.0075C119.682 44.7101 118.988 46.4756 118.811 46.9307L118.489 47.7583L118.461 40.9328L118.432 34.1073H116.878H115.324V44.0578ZM141.091 44.0578V54.0083H142.578C143.832 54.0083 144.076 53.9809 144.133 53.8334C144.17 53.7372 144.2 50.0058 144.2 45.5413V37.4242H147.088H149.975V45.7162V54.0083H151.53H153.085V44.0578V34.1073H147.088H141.091V44.0578ZM154.64 44.0479V54.0083H156.195H157.75V50.4251V46.842L160.443 46.8025C162.965 46.7657 163.172 46.7471 163.692 46.5108C164.781 46.0156 165.547 45.0203 165.941 43.5863C166.205 42.6258 166.205 38.4302 165.941 37.1864C165.603 35.5972 165.025 34.8307 163.833 34.3945C163.3 34.1996 162.857 34.1759 158.944 34.1338L154.64 34.0876V44.0479ZM167.745 44.0578V54.0083H169.735H171.724L172.006 53.262C172.161 52.8516 172.492 51.9685 172.74 51.2996C172.989 50.6307 174.053 47.8962 175.106 45.2229L177.019 40.3623L177.048 47.1854L177.076 54.0083H178.631H180.186L180.157 44.0855L180.129 34.1626H178.149H176.169L173.54 40.9848L170.911 47.8069L170.882 40.9571L170.853 34.1073H169.299H167.745V44.0578ZM181.739 44.0567V54.0083H186.003C190.013 54.0083 190.312 53.9946 191.018 53.7776C191.995 53.4772 192.804 52.7131 193.166 51.7485C193.653 50.4543 193.749 46.8907 193.339 45.3224C193.104 44.4227 192.399 43.3756 191.753 42.9675C190.79 42.3592 190.267 42.2684 187.366 42.2067L184.719 42.1504L184.778 39.7044L184.836 37.2583L188.344 37.2291L191.852 37.2L191.821 35.6813L191.79 34.1626L186.765 34.1339L181.739 34.1051V44.0567ZM208.505 44.3895V54.34H210.06H211.615V50.7569V47.1739L214.253 47.1248C215.826 47.0955 217.055 47.0232 217.299 46.9457C218.419 46.5897 219.324 45.5901 219.751 44.2379C219.98 43.5129 220 43.2372 220 40.7963C220 37.7781 219.865 36.8967 219.246 35.8679C218.824 35.1657 218.066 34.7201 217.001 34.548C216.635 34.4888 214.573 34.44 212.42 34.4397L208.505 34.439V44.3895ZM203.085 37.187C203.608 37.391 203.722 37.7137 203.854 39.3688C204.007 41.3029 203.916 49.4114 203.732 50.1551C203.509 51.0596 203.454 51.0784 201.055 51.0784C198.595 51.0784 198.578 51.0715 198.397 49.9676C198.337 49.6057 198.289 46.9711 198.289 44.1131C198.289 41.2551 198.337 38.6206 198.397 38.2586C198.529 37.459 198.746 37.2209 199.463 37.0915C200.157 36.9663 202.69 37.0331 203.085 37.187ZM102.219 40.4646V43.7261H100.06C98.8733 43.7261 97.7761 43.6785 97.6224 43.6203C97.0417 43.4005 96.9467 42.9942 96.9097 40.5752C96.8711 38.0536 96.9384 37.5445 97.3369 37.3438C97.5281 37.2475 98.3006 37.2058 99.9143 37.2047L102.219 37.2031V40.4646ZM110.208 37.3003C110.612 37.4126 110.673 37.791 110.687 40.2435C110.707 43.7989 110.772 43.7261 107.59 43.7261H105.329V40.4646V37.2031L107.633 37.2141C108.901 37.2202 110.059 37.259 110.208 37.3003ZM162.827 37.4558C163.006 37.6341 163.025 37.9069 163.025 40.28C163.025 42.6244 163.004 42.9394 162.825 43.2108C162.715 43.378 162.499 43.5624 162.346 43.6206C162.192 43.6786 161.095 43.7261 159.908 43.7261H157.75V40.4586V37.1911L160.189 37.2247C162.356 37.2546 162.651 37.2804 162.827 37.4558ZM216.544 37.6403C216.938 37.7896 217.001 38.2161 217.001 40.741C217.001 42.6761 216.979 42.9422 216.779 43.3383C216.433 44.0257 216.284 44.0606 213.836 44.0299L211.67 44.0025L211.641 40.7686L211.611 37.5347H213.938C215.218 37.5347 216.39 37.5823 216.544 37.6403ZM189.725 45.4139C190.313 45.7148 190.432 46.0411 190.489 47.5199C190.555 49.2334 190.451 50.2744 190.181 50.607C189.985 50.849 189.901 50.8592 187.663 50.9126C186.39 50.943 185.211 50.9522 185.043 50.9329L184.738 50.8979V48.1596C184.738 46.6536 184.771 45.3882 184.812 45.3477C184.953 45.2072 189.439 45.2676 189.725 45.4139Z" fill="white"/>
</svg>
