<svg width="431" height="400" viewBox="0 0 431 400" fill="none" xmlns="http://www.w3.org/2000/svg">
<path fill-rule="evenodd" clip-rule="evenodd" d="M353.484 1.43092C350.73 4.86118 340.252 16.1544 328.715 28.1255C324.231 32.7775 313.998 43.4698 305.973 51.886C297.948 60.3028 289.984 68.6457 288.275 70.4263C286.566 72.2069 283.91 75.0056 282.372 76.6459L279.575 79.6275L303.81 79.4076L328.046 79.1877L328.227 98.4535C328.351 111.639 328.202 117.719 327.754 117.719C327.394 117.719 325.915 117.169 324.466 116.496C313.062 111.198 303.433 109.011 289.829 108.631C278.192 108.305 269.366 109.352 260.542 112.106C258.21 112.833 256.148 113.396 255.961 113.355C255.773 113.314 254.858 113.681 253.926 114.171C252.995 114.66 251.534 115.346 250.679 115.696C249.825 116.045 248.153 116.766 246.964 117.3C245.776 117.833 244.765 118.216 244.719 118.151C244.601 117.982 243.85 57.6269 243.847 47.9733L243.844 39.9406L215.725 40.1417L187.605 40.3428L187.843 79.7146C188.074 118.113 188.051 119.07 186.911 118.433C181.228 115.26 173.36 112.765 160.885 110.183C152.691 108.487 126.674 109.48 125.413 111.537C125.23 111.836 124.487 112.081 123.762 112.081C123.038 112.081 121.586 112.356 120.537 112.693C114.167 114.738 110.18 116.185 107.453 117.44C105.75 118.224 104.192 118.763 103.991 118.638C103.79 118.512 103.645 109.867 103.67 99.4252L103.714 80.4408L127.836 80.1275L151.957 79.8142L149.275 77.2548C144.541 72.7394 81.4663 8.50633 78.0199 4.69264L74.6966 1.01491L72.6732 3.13634C71.5603 4.30294 67.6217 8.49944 63.9212 12.4622C54.8336 22.1941 36.4844 41.5827 26.896 51.5853C19.1923 59.6218 11.8682 67.3814 3.80848 76.0475C1.56889 78.4553 -0.140625 80.6262 0.00913602 80.8712C0.159519 81.1162 1.18361 81.2007 2.28539 81.0585C4.65795 80.7528 46.8857 80.5704 47.1585 80.8649C47.261 80.9764 47.5307 109.261 47.7575 143.72C48.1521 203.786 48.259 210.099 49.0694 221.41C49.7983 231.584 54.0481 247.383 58.0706 254.87C59.0791 256.748 59.9044 258.481 59.9044 258.721C59.9044 259.479 65.4816 268.546 66.4423 269.35C66.9475 269.773 67.3639 270.437 67.3676 270.826C67.3931 273.796 84.8008 291.008 93.3372 296.503C97.5858 299.239 98.4415 299.718 104.957 303.019C113.648 307.423 125.854 311.078 135.717 312.231C138.606 312.569 154.956 312.632 157.156 312.313C162.915 311.481 165.023 311.08 167.72 310.305C169.429 309.814 170.827 309.441 170.827 309.476C170.827 309.647 174.708 308.651 175.799 308.199C176.482 307.916 178.02 307.332 179.216 306.901C181.286 306.155 182.869 305.53 186.909 303.863C187.893 303.457 188.771 303.206 188.86 303.306C188.948 303.405 189.171 312.014 189.357 322.438L189.693 341.391H165.501C152.196 341.391 141.31 341.608 141.31 341.874C141.31 342.14 153.823 354.967 169.118 370.379C184.413 385.79 201.815 403.485 207.791 409.7L218.655 421L222.705 416.689C224.932 414.319 230.67 408.182 235.455 403.051C240.239 397.921 252.558 384.979 262.829 374.292C291.353 344.614 293.85 341.977 294.096 341.283C294.25 340.847 286.59 340.71 270.326 340.858L246.329 341.077L246.312 336.065C246.303 333.308 246.127 324.595 245.922 316.702C245.609 304.653 245.686 302.403 246.405 302.685C246.876 302.87 249.359 303.871 251.922 304.911C258.468 307.566 262.399 308.74 270.254 310.384C279.555 312.33 296.32 312.204 305.364 310.118C316.622 307.522 322.05 305.663 330.221 301.606C335.264 299.101 343.677 293.74 346.08 291.5C346.771 290.855 349.485 288.411 352.111 286.068C359.249 279.699 363.874 273.827 372.062 260.738C372.974 259.281 373.72 257.899 373.72 257.666C373.72 257.434 374.559 255.453 375.584 253.265C376.609 251.077 377.448 248.922 377.448 248.474C377.448 248.028 377.702 247.394 378.012 247.066C379.117 245.898 382.714 232.015 383.36 226.422C383.519 225.044 383.824 222.506 384.037 220.784C384.509 216.969 384.434 163.474 383.887 114.743C383.546 84.3108 383.616 78.8726 384.35 78.86C384.826 78.8519 395.672 78.8588 408.451 78.8744C430.477 78.9014 431.642 78.8462 430.822 77.8093C429.911 76.6559 418.201 64.5582 395.671 41.4963C388.212 33.8601 376.516 21.7618 369.681 14.6106C362.845 7.4594 356.882 1.23169 356.431 0.769933C355.295 -0.389774 354.868 -0.293915 353.484 1.43092ZM295.111 167.302C302.796 168.996 308.981 172.336 315.836 178.493C318.253 180.664 322.227 186.076 323.932 189.519C327.8 197.331 328.563 200.639 328.617 209.819C328.671 219.012 327.705 223.447 324.182 230.181C320.11 237.963 312.809 245.488 305.448 249.487C298.991 252.995 288.652 254.456 280.046 253.077C275.082 252.282 267.813 249.255 263.746 246.291C259.651 243.307 252.77 235.607 250.647 231.634C246.361 223.61 245.579 220.446 245.491 210.759C245.403 201.118 246.03 198.007 249.599 190.397C253.259 182.591 261.468 174.211 268.7 170.894C273.28 168.795 274.08 168.49 277.4 167.582C283.054 166.037 288.947 165.944 295.111 167.302ZM159.064 169.297C161.481 170.137 164.125 171.209 164.939 171.682C171.029 175.211 177.455 180.801 180.315 185.057C181.247 186.443 182.153 187.718 182.328 187.891C183.096 188.646 186.033 195.42 187.08 198.855C187.972 201.776 188.22 204.57 188.197 211.386C188.165 220.827 187.432 224.016 183.574 231.519C178.828 240.749 170.115 248.377 159.642 252.474C153.076 255.042 140.36 255.1 133.853 252.593C133.34 252.396 132.522 252.153 132.034 252.054C130.19 251.681 124.691 248.317 120.703 245.123C111.911 238.081 106.719 229.065 105.034 217.915C103.05 204.781 105.854 193.776 113.864 183.266C115.733 180.813 117.628 178.587 118.074 178.32C118.52 178.053 120.198 176.824 121.802 175.59C127.07 171.536 132.864 168.979 139.446 167.807C144.579 166.893 154.257 167.628 159.064 169.297Z" fill="#E0E0E0" fill-opacity="0.2"/>
</svg>
