<svg width="200" height="71" viewBox="0 0 200 71" fill="none" xmlns="http://www.w3.org/2000/svg">
<path fill-rule="evenodd" clip-rule="evenodd" d="M6.57131 6.67104C2.91808 10.3127 -0.0387897 13.3244 0.000384813 13.3635C0.0396603 13.4027 1.94841 13.4347 4.24194 13.4347H8.41211L8.44452 25.6874C8.47693 37.9191 8.47733 37.9419 8.70057 38.9141C10.2175 45.5203 14.9491 50.4894 21.2801 52.1254C24.8384 53.0448 28.5879 52.7993 32.0567 51.4198C32.5356 51.2293 32.9559 51.0735 32.9906 51.0735C33.0253 51.0735 33.0538 52.5449 33.0538 54.3432V57.6128L28.813 57.6391L24.5721 57.6654L31.2617 64.3327L37.9512 71L44.6648 64.3075L51.3784 57.6151H47.1129H42.8474V54.3443C42.8474 52.5454 42.8759 51.0735 42.9107 51.0735C42.9454 51.0735 43.3657 51.2293 43.8446 51.4198C46.1233 52.326 47.7217 52.6242 50.3189 52.6273C51.9722 52.6293 52.4711 52.593 53.432 52.4005C60.7212 50.9403 66.0415 45.5234 67.2889 38.2924C67.4802 37.1838 67.4883 36.6432 67.4845 25.4473C67.4823 19.0191 67.5086 13.6865 67.5431 13.5971C67.5992 13.4513 68.0315 13.4347 71.7848 13.4347C74.0834 13.4347 75.9641 13.4005 75.9641 13.3589C75.9641 13.3172 72.9654 10.2944 69.3004 6.64155L62.6367 0L55.9729 6.64155C52.3079 10.2944 49.3092 13.3172 49.3092 13.3589C49.3092 13.4005 51.1948 13.4347 53.4993 13.4347H57.6894V16.7067V19.9789L57.3107 19.8115C56.2992 19.3645 54.2836 18.7509 53.1964 18.5592C51.6346 18.2837 49.106 18.2593 47.6938 18.506C45.9962 18.8027 44.4837 19.2625 42.9737 19.9411C42.8734 19.986 42.8474 18.6302 42.8474 13.3448V6.69187H37.9506H33.0538V13.3353V19.9789L32.6752 19.8108C31.7123 19.3832 29.6077 18.7449 28.5337 18.5546C26.8722 18.2601 24.3847 18.2618 22.7049 18.5588C21.6175 18.7509 19.6011 19.3649 18.5905 19.8115L18.2119 19.9789V16.7067V13.4347H22.4774H26.7429L20.0293 6.74219C16.3368 3.06133 13.2927 0.0497155 13.2646 0.0497155C13.2365 0.0497155 10.2245 3.02933 6.57131 6.67104ZM153.042 15.8879C153.013 15.9641 153.003 16.2472 153.02 16.5169L153.051 17.0073L154.894 17.0348L156.736 17.0622V16.4058V15.7494H154.916C153.463 15.7494 153.085 15.7773 153.042 15.8879ZM99.2204 18.0598C98.4607 18.2403 97.8861 18.7981 97.6732 19.5617C97.5391 20.0433 97.5391 26.5512 97.6732 27.0328C97.8288 27.5911 98.1889 28.052 98.6852 28.3284C99.103 28.561 99.2345 28.5792 100.499 28.5798C102.032 28.5806 102.378 28.4787 102.917 27.8665C103.443 27.2699 103.477 26.9843 103.477 23.2469C103.477 20.187 103.458 19.7753 103.295 19.3536C103.045 18.709 102.475 18.2153 101.818 18.0749C101.239 17.9511 99.7153 17.9423 99.2204 18.0598ZM106.262 18.0664C105.651 18.1946 105.109 18.5759 104.893 19.0302C104.629 19.5834 104.546 20.5472 104.544 23.096C104.539 26.9956 104.727 27.8471 105.697 28.3264C106.144 28.5468 106.322 28.5736 107.262 28.5622C108.037 28.5527 108.508 28.4912 109.005 28.3345C109.724 28.108 109.754 28.0654 109.577 27.5139C109.516 27.3258 109.451 27.1204 109.433 27.0575C109.409 26.9769 109.196 26.9991 108.712 27.133C107.95 27.3435 106.701 27.3843 106.32 27.2111C106.185 27.1496 106.024 26.989 105.962 26.8541C105.82 26.5442 105.806 20.2041 105.946 19.8366C106.102 19.4297 106.539 19.2717 107.51 19.2717C108.114 19.2717 108.524 19.3292 108.88 19.4643L109.389 19.657L109.639 19.165L109.889 18.673L109.66 18.5234C108.979 18.0787 107.288 17.8513 106.262 18.0664ZM118.868 18.0942C118.216 18.2789 117.817 18.5957 117.545 19.1466C117.311 19.6204 117.309 19.6512 117.309 23.2973C117.309 27.3488 117.311 27.359 117.962 28.0085C118.423 28.4675 118.87 28.5798 120.237 28.5798C121.606 28.5798 122.018 28.4755 122.498 28.007C123.166 27.3562 123.165 27.3627 123.165 23.2945V19.6184L122.907 19.1189C122.727 18.7697 122.507 18.5314 122.176 18.3273C121.736 18.0562 121.617 18.0327 120.515 17.9995C119.744 17.9763 119.168 18.0094 118.868 18.0942ZM133.143 18.0622C132.582 18.1812 132.163 18.4061 131.914 18.7225C131.472 19.2814 131.445 19.5481 131.445 23.1966C131.445 27.1598 131.5 27.5441 132.149 28.1123C132.586 28.4944 133.002 28.5856 134.211 28.5633C135.114 28.5467 136.543 28.2217 136.543 28.0329C136.543 27.9946 136.474 27.7319 136.39 27.4493L136.237 26.9354L135.558 27.1291C134.719 27.368 133.357 27.3929 133.045 27.1751C132.678 26.9189 132.605 26.2907 132.612 23.4288C132.621 19.357 132.626 19.3436 134.15 19.2879C134.877 19.2613 135.213 19.2973 135.667 19.4502L136.251 19.6466L136.495 19.1667L136.739 18.6869L136.515 18.5444C135.77 18.0706 134.178 17.8429 133.143 18.0622ZM164.386 18.0609C164.123 18.1086 163.676 18.2243 163.393 18.318C162.839 18.5014 162.831 18.5246 163.1 19.2283C163.187 19.4566 163.242 19.4858 163.478 19.4272C163.629 19.3896 164.321 19.3341 165.016 19.3041C166.178 19.2538 166.298 19.2656 166.53 19.453C166.77 19.6463 166.782 19.7089 166.782 20.697C166.782 21.2692 166.747 21.8632 166.704 22.017C166.601 22.3836 166.187 22.5571 165.167 22.6612L164.359 22.7437L164.329 23.2721L164.298 23.8004L165.035 23.8011C165.954 23.8018 166.49 23.9448 166.653 24.2326C166.734 24.3744 166.779 24.8848 166.781 25.6455C166.782 26.8264 166.78 26.8383 166.499 27.0796C166.242 27.3001 166.126 27.3228 165.252 27.3228C164.706 27.3228 164.024 27.2548 163.681 27.1662C163.348 27.0801 163.057 27.0271 163.036 27.0485C163.014 27.0698 162.933 27.2995 162.855 27.5588C162.691 28.101 162.668 28.0759 163.602 28.3862C164.201 28.5855 165.947 28.6506 166.658 28.5004C167.221 28.3814 167.711 27.9034 167.892 27.295C168.071 26.6946 168.099 24.7538 167.937 24.1725C167.878 23.962 167.706 23.6508 167.553 23.481L167.277 23.1724L167.55 22.8998C167.93 22.5211 168.044 22.016 168.04 20.731C168.034 19.1444 167.811 18.626 166.974 18.2524C166.488 18.0357 165.094 17.9325 164.386 18.0609ZM184.805 18.0511C183.954 18.238 183.488 18.6702 183.24 19.5051C183.019 20.2454 183.019 26.3491 183.24 27.0894C183.43 27.7303 183.702 28.0751 184.234 28.352C184.594 28.5399 184.824 28.5713 185.865 28.5758C187.39 28.5821 187.75 28.5048 188.238 28.0655C188.966 27.4097 188.995 27.2283 188.995 23.2973C188.995 20.6319 188.963 19.7356 188.858 19.4392C188.678 18.9314 188.177 18.3727 187.734 18.1868C187.333 18.0181 185.369 17.9271 184.805 18.0511ZM88.0799 23.2469V28.4298H88.735H89.3901L89.4165 24.4798L89.443 20.5297L90.5436 24.4546C91.1489 26.6133 91.6568 28.3952 91.6723 28.4144C91.7139 28.4658 92.7389 28.4488 92.792 28.3959C92.817 28.3711 93.3366 26.57 93.9465 24.3937C94.5565 22.2173 95.0763 20.4161 95.1016 20.3909C95.1268 20.3658 95.1475 22.16 95.1475 24.3782V28.4112L95.7114 28.4456C96.0217 28.4646 96.2943 28.4613 96.3172 28.4382C96.3402 28.4151 96.3591 26.0716 96.3591 23.2301V18.064H95.4472C94.5944 18.064 94.5296 18.0787 94.4486 18.2905C94.4011 18.4151 93.8931 20.1355 93.32 22.1136C92.7468 24.0919 92.2484 25.677 92.2124 25.636C92.1764 25.5951 91.6836 23.9539 91.1172 21.989C90.5507 20.024 90.0642 18.3371 90.036 18.2402C89.9918 18.0885 89.8525 18.064 89.0323 18.064H88.0799V23.2469ZM110.999 23.2469V28.4298H111.605H112.211V26.0648C112.211 24.0564 112.233 23.6998 112.358 23.6998C112.44 23.6998 113.259 24.7516 114.178 26.0371C115.098 27.3227 115.906 28.3989 115.974 28.4288C116.042 28.4587 116.376 28.4598 116.717 28.4313L117.336 28.3795L115.485 25.8132C114.467 24.4018 113.632 23.1993 113.629 23.1413C113.626 23.0831 114.332 21.9962 115.197 20.7259C116.061 19.4556 116.813 18.3371 116.866 18.2402C116.954 18.0801 116.9 18.064 116.273 18.064H115.584L114.042 20.2781C113.194 21.4958 112.435 22.4921 112.355 22.4921C112.234 22.4921 112.211 22.132 112.211 20.2781V18.064H111.605H110.999V23.2469ZM124.452 23.2529L124.478 28.4608L126.75 28.4418C128.877 28.424 129.05 28.4086 129.466 28.1987C130.043 27.9083 130.279 27.4512 130.402 26.3887C130.571 24.9327 130.363 23.6945 129.869 23.2019C129.7 23.033 129.602 22.8947 129.651 22.8947C129.701 22.8947 129.852 22.7023 129.987 22.467C130.214 22.0719 130.233 21.9358 130.233 20.6806C130.233 19.0767 130.119 18.7413 129.447 18.3573C129.037 18.1234 128.936 18.1131 126.723 18.0796L124.426 18.0449L124.452 23.2529ZM137.822 18.1312C137.785 18.168 137.755 20.5003 137.755 23.3141V28.4298H138.411H139.067V26.0648C139.067 24.163 139.094 23.6998 139.202 23.6998C139.276 23.6998 140.098 24.7641 141.029 26.0648C142.334 27.8891 142.771 28.4302 142.939 28.4316C143.059 28.4326 143.747 28.4597 144.469 28.4918C145.49 28.5372 145.817 28.5201 145.942 28.4145C146.03 28.34 146.752 26.5806 147.546 24.5049C148.341 22.4292 149.05 20.6177 149.124 20.4794C149.236 20.2673 149.257 20.8811 149.261 24.3873L149.265 28.5468L149.845 28.5076L150.426 28.4685L150.452 23.2663L150.478 18.064H149.593H148.709L148.268 19.2465C147.795 20.5158 145.722 25.832 145.57 26.1655C145.513 26.2911 145.469 24.8059 145.452 22.2154L145.426 18.064H144.822H144.218L144.192 23.2161L144.166 28.3681L142.507 26.0592C141.594 24.7892 140.743 23.6108 140.615 23.4407L140.383 23.1312L141.96 20.8241C142.828 19.5551 143.605 18.4151 143.687 18.2905L143.836 18.064H143.126H142.416L140.876 20.2781C140.028 21.4958 139.275 22.4921 139.201 22.4921C139.094 22.4921 139.067 22.0489 139.067 20.2781V18.064H138.478C138.154 18.064 137.859 18.0942 137.822 18.1312ZM151.789 23.3012V28.5383L152.669 28.5092L153.55 28.4801L153.729 28.0273C153.827 27.7782 154.523 25.9929 155.276 24.0599C156.029 22.1268 156.687 20.4738 156.738 20.3866C156.796 20.2877 156.832 21.7919 156.834 24.3739L156.837 28.52L157.443 28.5171L158.049 28.5142V23.2891V18.064H157.159H156.27L154.773 21.9638C153.95 24.1087 153.216 25.9768 153.143 26.1151C153.029 26.3279 153.008 25.7254 153.005 22.2154L153.001 18.064H152.395H151.789V23.3012ZM171.311 18.3408C171.273 18.493 170.686 20.814 170.007 23.4985C169.328 26.1831 168.793 28.4134 168.818 28.455C168.843 28.4965 169.133 28.5305 169.462 28.5305C169.999 28.5305 170.065 28.5074 170.112 28.304C170.141 28.1794 170.245 27.6926 170.342 27.2222L170.519 26.3667L172.157 26.3391C173.788 26.3116 173.795 26.3124 173.848 26.5403C173.877 26.6662 173.98 27.1542 174.077 27.6247L174.254 28.4801L174.885 28.5101C175.232 28.5265 175.517 28.5039 175.518 28.4598C175.519 28.4156 174.943 26.0586 174.237 23.2218L172.956 18.064H172.168C171.393 18.064 171.379 18.0684 171.311 18.3408ZM176.071 18.1802C176.042 18.2547 176.031 20.6027 176.045 23.3979L176.071 28.4801H178.191C179.358 28.4801 180.483 28.4439 180.692 28.3997C180.902 28.3555 181.231 28.1813 181.423 28.0129C181.91 27.587 182.079 26.9562 182.079 25.5616C182.079 24.2454 181.9 23.5102 181.506 23.2012C181.265 23.0122 181.255 22.9777 181.395 22.8183C181.823 22.3317 181.915 21.966 181.917 20.7284C181.92 19.6417 181.895 19.467 181.671 19.0175C181.256 18.1825 181.042 18.1215 178.369 18.0797C176.555 18.0514 176.113 18.0707 176.071 18.1802ZM192.429 18.1856C192.404 18.2571 191.925 20.1498 191.366 22.3915C190.806 24.6332 190.303 26.6372 190.248 26.8448C190.151 27.2096 190.133 27.2222 189.698 27.2222H189.247V27.8763V28.5305H193.235H197.223V27.8763V27.2222H196.78H196.336L196.168 26.5429C196.075 26.1693 195.559 24.12 195.021 21.989L194.043 18.1144L193.259 18.085C192.688 18.0635 192.463 18.0908 192.429 18.1856ZM101.807 19.3702C101.909 19.4244 102.042 19.6123 102.104 19.7878C102.252 20.2118 102.257 26.3686 102.109 26.7907C101.959 27.2211 101.642 27.3228 100.455 27.3228C99.2454 27.3228 99.0323 27.2207 98.8807 26.568C98.8292 26.3466 98.7871 24.8748 98.7871 23.2973C98.7871 21.7197 98.8292 20.2479 98.8807 20.0265C99.034 19.3664 99.2393 19.2717 100.517 19.2717C101.125 19.2717 101.706 19.3161 101.807 19.3702ZM121.592 19.4478C121.917 19.7136 122.003 20.5218 122.003 23.2973C122.003 24.6534 121.959 26.0346 121.905 26.3667C121.761 27.2519 121.637 27.3228 120.237 27.3228C118.837 27.3228 118.714 27.2519 118.57 26.3667C118.516 26.0346 118.472 24.6534 118.472 23.2973C118.472 21.9411 118.516 20.5599 118.57 20.2278C118.714 19.3427 118.837 19.2717 120.237 19.2717C121.173 19.2717 121.415 19.3032 121.592 19.4478ZM187.262 19.3661C187.728 19.5428 187.782 19.9494 187.783 23.2973C187.783 26.5229 187.727 27.0099 187.327 27.223C187.224 27.2778 186.642 27.3228 186.034 27.3228C184.757 27.3228 184.552 27.2281 184.398 26.568C184.347 26.3466 184.305 24.8748 184.305 23.2973C184.305 21.7197 184.347 20.2479 184.398 20.0265C184.55 19.3741 184.763 19.2717 185.97 19.2717C186.544 19.2717 187.125 19.3142 187.262 19.3661ZM128.829 19.5841C128.994 19.7653 129.021 19.9555 129.021 20.901C129.021 21.987 129.017 22.0103 128.738 22.2491C128.468 22.481 128.39 22.4921 127.047 22.4921H125.639V20.9322V19.3723H127.138C128.533 19.3723 128.65 19.3869 128.829 19.5841ZM180.419 19.5152C180.594 19.6431 180.615 19.7866 180.615 20.8827C180.615 22.5217 180.649 22.4921 178.736 22.4921H177.333V20.9322V19.3723H178.778C179.866 19.3723 180.271 19.4076 180.419 19.5152ZM172.889 22.6651C173.223 24.0058 173.497 25.1266 173.497 25.1559C173.497 25.1853 172.889 25.2094 172.147 25.2094H170.796L171.464 22.5387C171.9 20.798 172.158 19.9308 172.207 20.0479C172.248 20.1469 172.555 21.3246 172.889 22.6651ZM194.092 23.3558C194.536 25.2332 194.923 26.8711 194.952 26.9957L195.006 27.2222H193.23C191.586 27.2222 191.459 27.2092 191.509 27.046C191.606 26.7332 193.185 20.0317 193.185 19.9353C193.185 19.6048 193.377 20.3291 194.092 23.3558ZM128.893 23.9794C129.108 24.1944 129.122 24.29 129.122 25.523C129.122 27.2766 129.186 27.2222 127.142 27.2222H125.639V25.5281C125.639 24.5963 125.672 23.8006 125.713 23.7599C125.754 23.7191 126.435 23.7002 127.225 23.7179C128.564 23.7479 128.679 23.7658 128.893 23.9794ZM180.305 23.8416C180.493 23.9197 180.682 24.0891 180.727 24.219C180.772 24.3485 180.802 24.9751 180.794 25.6113C180.78 26.7266 180.77 26.7763 180.515 26.9951C180.266 27.2081 180.159 27.2222 178.792 27.2222H177.333V25.461V23.6998H178.649C179.552 23.6998 180.072 23.7443 180.305 23.8416ZM27.2284 28.2873C27.628 28.3751 28.3828 28.6514 28.9057 28.9015C29.721 29.2916 29.987 29.4873 30.7736 30.2768C31.7763 31.2832 32.2333 31.9707 32.6022 33.0279C33.8454 36.5912 32.2457 40.4819 28.8637 42.12C27.7901 42.64 26.8729 42.8462 25.6329 42.8462C19.3491 42.8462 15.9461 35.6276 19.9397 30.7693C21.0037 29.4749 22.5641 28.5779 24.4213 28.1931C24.9318 28.0874 26.567 28.1422 27.2284 28.2873ZM51.8838 28.2804C53.3322 28.5857 55.0362 29.6253 55.9852 30.7827C56.6771 31.6265 57.3353 33.0094 57.5459 34.0615C58.3036 37.8482 55.9647 41.584 52.181 42.6303C51.1706 42.9098 49.5909 42.9321 48.552 42.6816C43.6712 41.5049 41.3518 35.8434 44.0094 31.5933C44.9819 30.0381 46.687 28.8009 48.5015 28.3339C49.4298 28.095 50.8945 28.0719 51.8838 28.2804ZM120.49 30.9107C119.314 31.0675 117.21 31.7746 117.286 31.9873C117.309 32.051 117.483 32.5488 117.672 33.0933L118.016 34.0836L118.42 34.0249C118.642 33.9927 119.187 33.8997 119.632 33.8182C120.575 33.6452 122.946 33.6149 123.393 33.7702C123.874 33.9374 123.973 34.3079 123.971 35.9289C123.969 37.0534 123.93 37.4381 123.782 37.8262C123.517 38.5173 123.237 38.6159 121.373 38.6737L119.884 38.7199V40.0071V41.2943L121.529 41.3281C123.428 41.3671 123.639 41.4399 123.822 42.1197C123.883 42.343 123.937 43.2464 123.943 44.1271C123.958 46.4783 123.937 46.4995 121.55 46.4839C120.069 46.4742 119.842 46.4475 118.827 46.1624C118.217 45.9913 117.714 45.8601 117.708 45.871C117.703 45.8818 117.551 46.407 117.371 47.0382C117 48.3424 116.942 48.2004 118.033 48.6567C119.303 49.1872 119.972 49.3041 121.752 49.3063C124.54 49.3098 125.653 48.8597 126.276 47.4756C126.664 46.6137 126.774 45.6664 126.728 43.5903C126.683 41.5866 126.565 41.0775 125.946 40.2259L125.653 39.8235L125.889 39.6035C126.737 38.8092 127.072 36.1772 126.637 33.7188C126.389 32.3114 125.61 31.4755 124.175 31.0767C123.668 30.9357 121.152 30.8224 120.49 30.9107ZM180.261 31.1011C179.517 31.3028 178.669 31.8954 178.266 32.4945C178.085 32.7639 177.835 33.3069 177.711 33.7011C177.488 34.4084 177.485 34.4935 177.485 40.1542C177.485 45.7897 177.489 45.903 177.708 46.5965C178.178 48.0877 179.093 48.943 180.544 49.2497C181.237 49.396 184.335 49.396 185.027 49.2496C186.506 48.9367 187.445 48.0459 187.915 46.5096C188.145 45.7554 188.219 35.5883 188.003 34.3438C187.817 33.269 187.51 32.6284 186.875 31.9928C186.006 31.1218 185.58 31.0105 182.987 30.9779C181.307 30.9568 180.691 30.9845 180.261 31.1011ZM88.0921 31.157C87.439 31.2686 86.7059 31.5788 86.38 31.8816C86.0817 32.1588 85.7209 32.8686 85.5768 33.4618C85.3479 34.4039 85.2269 36.1381 85.2891 37.5879C85.3878 39.8901 85.7274 40.9038 86.6884 41.7651C87.4899 42.4833 87.7833 42.5468 90.5283 42.5957L92.9263 42.6384V45.8999V49.1614H94.3398H95.7533V45.8906V42.6199H97.8045C100.685 42.6199 101.362 42.4637 102.23 41.599C103.102 40.7299 103.418 39.4791 103.423 36.8835C103.428 34.0527 103.085 32.5935 102.237 31.832C101.424 31.1017 101.485 31.1077 94.6931 31.0848C91.3484 31.0734 88.392 31.1058 88.0921 31.157ZM104.84 40.1039V49.1614H106.647C108.273 49.1614 108.46 49.1438 108.524 48.9853C108.563 48.8885 109.613 46.167 110.857 42.9377C112.102 39.7084 113.164 36.9912 113.217 36.8994C113.281 36.7905 113.316 38.8925 113.318 42.947L113.321 49.1614H114.735H116.149L116.124 40.1291L116.098 31.0968H114.299H112.501L111.512 33.7134C110.968 35.1525 110.023 37.598 109.413 39.1478C108.802 40.6977 108.171 42.3047 108.01 42.719L107.718 43.4723L107.692 37.2594L107.666 31.0464H106.253H104.84V40.1039ZM128.264 40.1039V49.1614H129.616C130.756 49.1614 130.978 49.1364 131.03 49.0022C131.064 48.9146 131.091 45.5181 131.091 41.4543V34.0656H133.716H136.341V41.6135V49.1614H137.755H139.168V40.1039V31.0464H133.716H128.264V40.1039ZM140.582 40.0949V49.1614H141.995H143.409V45.8998V42.6382L145.857 42.6023C148.15 42.5688 148.338 42.5519 148.811 42.3368C149.801 41.886 150.497 40.98 150.856 39.6747C151.096 38.8004 151.096 34.9813 150.855 33.8491C150.548 32.4025 150.022 31.7049 148.939 31.3078C148.455 31.1304 148.052 31.1088 144.494 31.0705L140.582 31.0284V40.0949ZM152.496 40.1039V49.1614H154.304H156.113L156.369 48.4821C156.51 48.1085 156.81 47.3046 157.037 46.6957C157.262 46.0869 158.23 43.5978 159.187 41.1644L160.926 36.7401L160.952 42.9508L160.978 49.1614H162.392H163.805L163.779 40.1291L163.753 31.0968H161.953H160.154L157.763 37.3067L155.373 43.5166L155.347 37.2815L155.321 31.0464H153.909H152.496V40.1039ZM165.217 40.1029V49.1614H169.094C172.739 49.1614 173.011 49.1489 173.653 48.9514C174.541 48.6779 175.276 47.9824 175.606 47.1044C176.048 45.9264 176.135 42.6826 175.763 41.255C175.549 40.436 174.908 39.4829 174.321 39.1114C173.446 38.5577 172.97 38.4751 170.333 38.4189L167.926 38.3677L167.98 36.1412L168.033 33.9146L171.222 33.8881L174.411 33.8615L174.383 32.4791L174.355 31.0968L169.786 31.0706L165.217 31.0444V40.1029ZM189.55 40.4058V49.4633H190.964H192.377V46.2018V42.9403L194.775 42.8956C196.206 42.869 197.323 42.8031 197.545 42.7326C198.562 42.4085 199.385 41.4987 199.774 40.2679C199.982 39.6079 200 39.357 200 37.1351C200 34.3877 199.877 33.5854 199.315 32.649C198.931 32.0098 198.242 31.6042 197.274 31.4476C196.941 31.3936 195.067 31.3493 193.109 31.349L189.55 31.3483V40.4058ZM184.623 33.8497C185.099 34.0354 185.202 34.3292 185.322 35.8357C185.461 37.5962 185.378 44.977 185.211 45.654C185.008 46.4774 184.958 46.4945 182.778 46.4945C180.541 46.4945 180.526 46.4881 180.361 45.4834C180.307 45.1539 180.262 42.7557 180.262 40.1542C180.262 37.5527 180.307 35.1546 180.361 34.8251C180.48 34.0973 180.678 33.8805 181.33 33.7628C181.961 33.6488 184.264 33.7096 184.623 33.8497ZM92.9263 36.8332V39.802H90.964C89.8848 39.802 88.8873 39.7586 88.7476 39.7057C88.2198 39.5056 88.1333 39.1358 88.0997 36.9338C88.0647 34.6385 88.1259 34.1751 88.4881 33.9924C88.6619 33.9048 89.3642 33.8668 90.8312 33.8658L92.9263 33.8643V36.8332ZM100.189 33.9529C100.556 34.055 100.612 34.3995 100.625 36.6319C100.643 39.8682 100.701 39.802 97.8094 39.802H95.7533V36.8332V33.8643L97.8483 33.8744C99.0006 33.8799 100.054 33.9152 100.189 33.9529ZM148.025 34.0944C148.187 34.2567 148.205 34.505 148.205 36.6651C148.205 38.7991 148.185 39.0859 148.023 39.3329C147.923 39.4851 147.727 39.653 147.587 39.7059C147.448 39.7587 146.45 39.802 145.371 39.802H143.409V36.8277V33.8534L145.627 33.884C147.596 33.9112 147.865 33.9348 148.025 34.0944ZM196.858 34.2623C197.217 34.3982 197.274 34.7865 197.274 37.0848C197.274 38.8462 197.253 39.0884 197.072 39.449C196.758 40.0746 196.622 40.1064 194.396 40.0785L192.428 40.0536L192.401 37.1099L192.374 34.1662H194.489C195.653 34.1662 196.719 34.2095 196.858 34.2623ZM172.477 41.3383C173.012 41.6122 173.12 41.9092 173.172 43.2553C173.232 44.815 173.138 45.7626 172.892 46.0653C172.713 46.2856 172.638 46.2949 170.603 46.3435C169.446 46.3712 168.374 46.3795 168.221 46.362L167.943 46.3301V43.8376C167.943 42.4667 167.974 41.3149 168.011 41.2781C168.139 41.1502 172.217 41.2051 172.477 41.3383Z" fill="#2E6C77"/>
</svg>
