<svg width="1932" height="2330" viewBox="0 0 1932 2330" fill="none" xmlns="http://www.w3.org/2000/svg">
<path d="M71.5906 0.700136C68.1906 1.30014 60.3906 4.10014 58.6906 5.40014C57.9906 6.00014 56.5906 6.90014 55.6906 7.50014C51.4906 9.90014 45.6906 14.7001 44.4906 16.6001C43.6906 17.8001 41.8906 20.5001 40.4906 22.6001C39.0906 24.8001 36.7906 29.2001 35.4906 32.5001L33.0906 38.5001L32.7906 319C32.5906 529.7 32.7906 600.9 33.6906 605C35.3906 613.1 39.7906 621.7 45.4906 628.1C51.0906 634.4 56.0906 637.7 65.0906 640.9C71.0906 643.1 71.8906 643.1 122.591 642.8C178.891 642.4 176.991 642.6 185.291 636.4C186.991 635.1 188.891 634 189.291 634C190.391 634 197.391 626.5 200.191 622.5C201.291 620.8 203.491 616.3 205.091 612.5L207.991 605.5L208.591 507.5C209.091 414.1 209.191 409.3 211.091 405C212.091 402.5 213.591 399.8 214.291 398.9C214.991 398.1 215.591 397 215.591 396.6C215.591 395.3 222.991 386.3 225.191 384.9C226.391 384.1 229.191 382.3 231.391 380.8C233.691 379.3 237.891 377 240.791 375.8C245.991 373.6 246.991 373.6 298.491 373.2C333.291 373 352.591 373.3 355.991 374C358.791 374.6 364.491 376.7 368.591 378.7C375.491 382.1 378.491 384.7 406.891 413C423.791 429.8 437.591 444.2 437.591 444.9C437.591 445.6 438.791 447.7 440.291 449.6C445.991 457.1 445.991 457.2 446.591 535.5C447.191 618.7 445.991 609.2 457.991 627.1C461.391 632.1 468.791 637.2 477.591 640.4L485.091 643.1L536.691 642.8L588.191 642.5L595.191 639C602.591 635.3 614.791 624.1 616.091 619.9C616.491 618.6 617.491 616.8 618.191 615.9C618.991 615 620.291 610.7 621.191 606.3C622.391 599.5 622.591 585.8 622.391 514.9L622.091 431.5L619.291 424.7C617.791 420.9 614.791 415.5 612.691 412.7C610.491 409.8 596.091 394.9 580.591 379.5C552.491 351.6 547.691 346 543.391 335.9L541.091 330.5L540.591 184L540.091 37.5001L537.391 31.2001C531.791 18.0001 522.591 8.80014 509.891 3.70014L502.091 0.600136L469.991 0.200136C435.391 -0.199864 429.691 0.300136 421.391 4.50014C408.391 11.0001 401.791 18.7001 396.491 33.2001L393.591 41.1001V101.8C393.591 162.9 393.291 169.7 389.891 179C386.591 188.1 376.791 198.9 367.391 203.9C357.691 208.9 355.191 209.1 297.991 208.8L245.091 208.5L239.091 206C229.791 202.3 221.391 195.7 216.891 188.7C215.591 186.6 213.191 181.3 211.591 176.9L208.591 168.9V110.2C208.591 41.9001 207.991 34.6001 202.291 25.5001C194.391 13.0001 188.291 7.90014 175.791 3.20014L167.391 0.000135988L120.791 0.100136C95.0906 0.200136 72.9906 0.500136 71.5906 0.700136Z" fill="#2E6C77"/>
<path d="M1291.39 1.50009C1282.99 3.80009 1275.99 7.90009 1269.69 14.3001C1263.49 20.6001 1262.09 22.4001 1259.09 29.0001C1254.39 39.2001 1254.59 25.0001 1254.79 324.1L1255.09 604.5L1258.39 613.1C1263.79 627.1 1272.79 635.8 1287.09 640.9L1293.09 643.1L1578.69 642.8L1864.19 642.5L1870.99 639.1C1878.99 635 1885.39 629.6 1889.59 623.4C1891.19 620.9 1892.59 618.6 1892.59 618.3C1892.59 617.9 1893.29 616.9 1894.09 616C1897.69 612.1 1898.59 600.4 1898.59 560.6C1898.59 517.4 1898.29 514.7 1891.09 502.1C1888.79 498 1879.19 488.8 1875.09 486.8C1872.89 485.7 1869.79 484.1 1868.09 483.2C1860.39 479.1 1858.49 479.1 1671.49 479.1C1564.29 479 1489.89 478.6 1486.99 478.1C1482.29 477.2 1478.29 475.6 1472.49 472.4C1471.09 471.7 1462.49 463.5 1453.49 454.2L1437.09 437.4L1433.79 428.2L1430.49 419.1L1430.79 321.3L1431.09 223.5L1433.39 218.1C1437.49 208.6 1442.09 202.7 1456.69 188.5C1466.99 178.5 1472.79 173.7 1476.79 171.8C1489.19 165.8 1483.69 166 1607.29 166H1720.59V179V192H1789.09C1855.49 192 1863.79 191.7 1868.59 188.9C1869.39 188.4 1871.69 187.3 1873.59 186.5C1878.69 184.2 1888.19 174.5 1892.59 167C1898.49 157 1898.79 152.3 1898.39 90.5001L1897.99 37.5001L1895.39 31.3001C1890.19 19.0001 1882.29 10.8001 1869.99 5.00009C1866.59 3.30009 1861.39 1.50009 1858.59 1.00009C1855.19 0.300088 1755.09 8.80733e-05 1574.69 0.100088C1350.09 0.200088 1295.19 0.500088 1291.39 1.50009Z" fill="#2E6C77"/>
<path d="M648.59 1.70009C644.49 2.30009 634.19 6.10009 632.49 7.60009C631.69 8.40009 630.49 9.00009 629.89 9.00009C628.49 9.00009 614.59 23.0001 614.59 24.3001C614.59 24.9001 613.99 26.1001 613.29 26.9001C611.29 29.2001 608.89 36.6001 607.69 44.1001C607.09 47.9001 606.59 64.8001 606.59 84.1001C606.59 123.8 607.69 132.7 613.89 142.5C617.79 148.7 622.99 155.2 624.39 155.7C625.29 156 627.19 157.3 628.59 158.5C629.99 159.7 634.29 161.9 638.09 163.3L645.09 165.9L701.09 166.2L757.09 166.5L766.59 170L776.09 173.5L793.19 190.5C808.79 206 810.49 208.1 813.19 214.5L816.09 221.5L816.59 413.5L817.09 605.5L819.99 613C821.49 617.1 823.39 621.2 824.19 622.1C824.99 622.9 825.59 624.1 825.59 624.7C825.59 626.3 838.19 637.7 840.79 638.5C842.09 638.9 843.79 639.9 844.69 640.6C845.59 641.4 849.89 642.7 854.29 643.6C861.09 644.8 873.29 645 933.19 644.8L1004.09 644.5L1010.09 642C1013.39 640.7 1017.49 638.7 1019.09 637.6C1023.19 634.8 1032.59 625.8 1032.59 624.6C1032.59 624.1 1033.19 622.9 1033.89 622.1C1034.69 621.2 1036.29 618 1037.69 615L1040.09 609.5L1040.59 418L1041.09 226.5L1043.39 221C1044.69 218 1046.59 213.7 1047.79 211.5C1049.69 207.7 1078.39 177.3 1081.59 175.7C1082.39 175.3 1084.49 174.1 1086.09 173C1095.99 166.5 1100.99 166 1159.99 166C1202.89 166 1212.09 165.8 1217.09 164.5C1220.39 163.6 1223.79 162.3 1224.59 161.5C1225.49 160.7 1226.59 160 1226.99 160C1228.99 160 1240.59 150.3 1240.59 148.6C1240.59 148.1 1241.69 146.5 1242.99 145.1C1244.29 143.6 1246.39 139.6 1247.69 136C1250.09 129.5 1250.09 129.4 1250.09 82.9001V36.4001L1246.59 29.5001C1242.29 20.9001 1231.69 10.1001 1224.09 6.60009C1211.49 0.600088 1232.59 1.00009 929.09 1.10009C776.19 1.20009 649.99 1.50009 648.59 1.70009Z" fill="#2E6C77"/>
<path d="M70.0903 648C66.0903 648.9 60.6903 651 57.0903 653.3C50.8903 657.2 44.3903 662.4 43.8903 663.8C43.5903 664.7 42.2903 666.6 41.0903 668C39.7903 669.4 37.3903 674.4 35.6903 679.1L32.5903 687.6V967.7C32.5903 1137.5 32.9903 1249.7 33.4903 1252.6C34.4903 1257.9 36.4903 1262.8 39.5903 1267.5C40.6903 1269.1 41.9903 1271.4 42.4903 1272.5C44.6903 1277.3 54.0903 1283.9 63.5903 1287.4L71.0903 1290.1L122.59 1289.8C178.39 1289.4 175.29 1289.7 184.09 1284C185.79 1282.9 187.79 1281.7 188.59 1281.4C190.79 1280.4 197.59 1273.8 197.59 1272.6C197.59 1272.1 198.69 1270.5 199.99 1269.1C201.29 1267.6 203.39 1263.8 204.69 1260.5L207.09 1254.5L207.59 1157L208.09 1059.5L210.89 1052.7C217.09 1037.2 225.19 1029 239.59 1023.4L247.09 1020.5H328.09C405.59 1020.5 409.29 1020.6 414.09 1022.4C416.89 1023.5 419.79 1024.9 420.69 1025.7C421.49 1026.4 422.69 1027 423.29 1027C423.89 1027 424.99 1027.7 425.69 1028.6C426.49 1029.5 428.79 1031.3 430.79 1032.6C432.89 1034 434.59 1035.6 434.59 1036.3C434.59 1037.1 435.69 1038.7 437.09 1040C438.49 1041.3 439.59 1042.8 439.59 1043.3C439.59 1043.9 440.19 1045.1 440.89 1045.9C441.69 1046.8 443.09 1049.5 444.19 1052C445.99 1056.3 446.09 1061 446.59 1154L447.09 1251.5L449.79 1258.2C456.29 1274.5 464.19 1282.5 479.09 1287.9C485.09 1290.1 485.79 1290.1 536.69 1289.8L588.19 1289.5L595.19 1286C602.59 1282.3 614.79 1271.1 616.09 1266.9C616.49 1265.6 617.39 1263.8 618.19 1262.9C618.89 1262.1 620.19 1257.8 621.09 1253.4C622.39 1246.5 622.59 1212.2 622.59 968.4C622.59 789.6 622.19 689.4 621.59 686C620.39 679.4 615.39 669 611.29 664.3C606.09 658.4 598.09 653.1 589.49 650L581.49 647H535.19C483.19 647 482.29 647.1 470.49 654.2C460.09 660.3 452.29 670.3 448.89 681.6C447.29 686.9 447.09 694.3 446.49 753C446.19 789 445.59 820.1 445.09 822C444.69 823.9 443.79 826.2 443.09 827C442.49 827.8 441.39 829.9 440.69 831.6C439.39 834.8 427.49 847.3 423.49 849.5C418.29 852.4 413.89 854.2 409.19 855.1C406.39 855.6 370.89 856 327.19 856C245.99 856 245.19 856 235.59 851.5C229.59 848.7 227.49 847.3 223.39 843.4C217.19 837.4 211.09 827.1 209.29 819.7C208.69 817.3 207.99 787.2 207.69 748.5C206.99 675.8 207.39 680.4 201.59 671.5C200.49 669.8 199.29 667.8 198.99 667C197.99 664.8 191.39 658 190.19 658C189.69 658 188.09 656.9 186.69 655.6C185.19 654.3 180.19 651.8 175.49 650.1L166.99 647L120.49 647.1C94.9903 647.2 72.2903 647.6 70.0903 648Z" fill="#2E6C77"/>
<path d="M667.59 647.7C663.69 648.4 656.29 651.2 654.49 652.7C653.69 653.4 652.39 654 651.69 654C649.49 654 637.09 667.6 634.39 673.1C628.19 685.5 628.59 663.7 628.59 969.2C628.59 1174.5 628.89 1249.2 629.69 1252.7C631.59 1260.5 636.09 1269.1 641.49 1275.1C647.09 1281.4 652.09 1284.7 661.09 1287.9C667.09 1290.1 667.49 1290.1 736.69 1289.8L806.19 1289.5L813.19 1286C820.59 1282.3 832.79 1271.1 834.09 1266.9C834.49 1265.6 835.39 1263.8 836.19 1263C839.99 1258.6 839.99 1258.1 840.59 1072.5C840.99 910.3 841.29 892.2 842.69 889C843.59 887.1 844.59 884.8 844.99 884C846.59 880.3 854.89 869.1 855.99 869C856.59 869 857.99 868 859.19 866.9C863.29 863.1 870.49 859.6 878.59 857.4C882.99 856.3 894.39 856 938.29 856C974.59 856 994.09 856.4 997.29 857.1C1011.69 860.5 1026.79 872.8 1032.19 885.6L1035.09 892.5L1035.59 1072L1036.09 1251.5L1038.79 1258.1C1044.89 1273.4 1053.19 1282 1067.09 1287.4L1074.09 1290.1L1145.09 1289.8C1222.49 1289.5 1217.09 1289.9 1226.09 1284C1227.79 1282.9 1229.79 1281.7 1230.59 1281.4C1232.79 1280.4 1239.59 1273.8 1239.59 1272.6C1239.59 1272.1 1240.69 1270.5 1241.99 1269.1C1243.29 1267.6 1245.49 1263.1 1246.99 1259L1249.69 1251.5L1249.39 966.5C1249.09 695.4 1248.99 681.3 1247.29 678C1246.29 676.1 1244.69 673.1 1243.59 671.5C1242.49 669.8 1241.29 667.8 1240.99 667C1239.99 664.8 1233.39 658 1232.19 658C1231.69 658 1230.09 656.9 1228.69 655.6C1227.19 654.3 1222.19 651.8 1217.49 650.1L1208.99 647L939.49 647.1C791.29 647.2 668.99 647.5 667.59 647.7Z" fill="#2E6C77"/>
<path d="M1290.79 648.6C1279.79 651.5 1265.39 662.6 1261.59 671C1260.99 672.4 1259.79 674.7 1258.99 676.3C1254.49 684.6 1254.59 677.3 1254.79 973L1255.09 1251.5L1257.99 1259C1259.59 1263.1 1262.09 1268.1 1263.49 1270C1266.89 1274.8 1273.79 1282 1274.99 1282C1275.49 1282 1276.69 1282.6 1277.49 1283.4C1278.39 1284.1 1282.29 1285.9 1286.09 1287.4L1293.09 1290.1L1369.09 1289.8C1451.99 1289.5 1446.09 1289.9 1455.09 1284C1456.79 1282.9 1458.79 1281.7 1459.59 1281.4C1461.79 1280.4 1468.59 1273.8 1468.59 1272.6C1468.59 1272.1 1469.69 1270.5 1470.99 1269.1C1472.29 1267.6 1474.49 1263.3 1475.99 1259.5L1478.59 1252.5V1078.3C1478.59 888 1478.39 894.9 1484.29 883.1C1487.69 876.4 1496.19 867 1501.89 863.7C1504.19 862.4 1509.59 860 1513.89 858.5C1521.29 855.8 1522.09 855.7 1527.99 856.8C1531.49 857.5 1535.59 858 1537.19 858C1538.89 858 1542.59 858.7 1545.59 859.5C1548.59 860.4 1553.79 861.7 1557.09 862.5C1563.69 864 1586.99 873.2 1589.49 875.3C1590.39 876 1592.69 877.3 1594.59 878.3C1605.79 883.7 1633.59 907.4 1639.49 916.5C1640.89 918.7 1644.39 923.7 1647.29 927.5C1650.19 931.4 1653.49 936.7 1654.59 939.2C1655.69 941.8 1657.09 944.2 1657.49 944.5C1658.79 945.2 1666.89 967 1668.59 974C1669.09 975.9 1670.19 980 1671.09 983C1674.29 994.4 1674.59 1005.9 1674.59 1126.7C1674.59 1213.4 1674.89 1249.3 1675.69 1252.7C1678.29 1263.6 1686.19 1275.5 1695.09 1281.9C1697.49 1283.6 1702.49 1286.2 1706.19 1287.6L1712.79 1290.1L1788.49 1289.8L1864.19 1289.5L1871.19 1286C1884.09 1279.5 1894.79 1266.3 1897.59 1253.3C1898.29 1249.9 1898.59 1198.9 1898.29 1093.4L1897.89 938.5L1895.39 922C1890.69 892.2 1883.99 868.8 1872.79 843C1863.69 821.9 1850.89 797.8 1844.99 790.5C1843.69 788.8 1840.19 784.1 1837.39 780C1827.59 765.7 1813.79 750.4 1795.79 733.7C1778.19 717.3 1774.59 714.3 1760.09 704.2C1744.89 693.6 1725.69 683 1707.59 675.2C1701.29 672.4 1693.59 669.1 1690.59 667.7C1687.59 666.3 1675.19 662.4 1663.09 659.2C1645.09 654.3 1636.89 652.6 1618.09 650.1L1595.09 647L1445.59 647.1C1319.19 647.1 1295.29 647.4 1290.79 648.6Z" fill="#2E6C77"/>
<path d="M239.89 1391.1C235.49 1392.4 229.89 1398.1 228.69 1402.7C227.99 1405 227.59 1419.1 227.59 1437.7V1469L119.89 1469.2L12.0904 1469.5L8.39043 1471.8C-2.70957 1478.7 -2.70957 1494.3 8.39043 1501.2L12.0904 1503.5L119.89 1503.8L227.59 1504V1600V1696H188.99H150.39L144.39 1692.3C139.39 1689.2 137.49 1688.6 133.19 1688.6C126.39 1688.7 120.39 1690.5 116.79 1693.5L113.89 1695.9L62.9904 1696.2L12.0904 1696.5L8.39043 1698.8C-2.70957 1705.7 -2.70957 1721.3 8.39043 1728.2L12.0904 1730.5L63.0904 1731L114.09 1731.5L114.59 1817L115.09 1902.5L117.39 1906.2C118.69 1908.2 121.39 1910.9 123.39 1912.2L127.09 1914.5L322.29 1914.8L517.59 1915L517.79 2089.8L518.09 2264.5L520.39 2268.2C521.69 2270.2 524.39 2272.9 526.39 2274.2L530.09 2276.5L1005.59 2277L1481.09 2277.5L1485.59 2280.2C1488.09 2281.6 1492.79 2283.4 1496.19 2284C1503.49 2285.4 1508.39 2284.4 1514.39 2280L1518.59 2277L1718.79 2276.8L1919.09 2276.5L1922.79 2274.2C1933.89 2267.3 1933.89 2251.7 1922.79 2244.8L1919.09 2242.5L1718.39 2242.2L1517.59 2242V2153V2064H1556.49H1595.49L1595.79 2097.3C1596.09 2130 1596.09 2130.6 1598.39 2134.2C1599.69 2136.2 1602.39 2138.9 1604.39 2140.2L1608.09 2142.5H1704.09H1800.09L1803.79 2140.2C1805.79 2138.9 1808.49 2136.2 1809.79 2134.2L1812.09 2130.5L1812.39 2040.3L1812.59 1950.1L1865.89 1949.8L1919.09 1949.5L1922.79 1947.2C1933.89 1940.3 1933.89 1924.7 1922.79 1917.8L1919.09 1915.5L1865.89 1915.2L1812.59 1914.9L1812.39 1825.2L1812.09 1735.5L1809.79 1731.8C1808.49 1729.8 1805.79 1727.1 1803.79 1725.8L1800.09 1723.5H1704.09H1608.09L1604.39 1725.8C1602.39 1727.1 1599.69 1729.8 1598.39 1731.8C1596.09 1735.4 1596.09 1736.1 1595.79 1768.2L1595.49 1801H1556.59H1517.59L1517.39 1641.2L1517.09 1481.5L1514.79 1477.8C1513.49 1475.8 1510.79 1473.1 1508.79 1471.8L1505.09 1469.5L1281.39 1469.2L1057.69 1469L1057.39 1435.7C1057.09 1403 1057.09 1402.4 1054.79 1398.8C1053.49 1396.8 1050.79 1394.1 1048.79 1392.8L1045.09 1390.5H949.09H853.09L849.39 1392.8C847.39 1394.1 844.69 1396.8 843.39 1398.8L841.09 1402.5L840.79 1492.2L840.59 1582H642.09H443.59L443.39 1492.2L443.09 1402.5L440.79 1398.8C439.49 1396.8 436.79 1394.1 434.79 1392.8L431.09 1390.5L337.09 1390.3C280.39 1390.2 241.79 1390.5 239.89 1391.1ZM1482.59 1652.5V1801H1447.09H1411.59L1411.39 1711.2L1411.09 1621.5L1408.79 1617.8C1407.49 1615.8 1404.79 1613.1 1402.79 1611.8L1399.09 1609.5H1303.59H1208.09L1204.39 1611.8C1202.39 1613.1 1199.69 1615.8 1198.39 1617.8C1196.09 1621.4 1196.09 1622 1195.79 1654.7L1195.49 1688H1126.49H1057.59V1596V1504H1270.09H1482.59V1652.5ZM517.59 1748.5V1880H333.59H149.59V1805.5V1731H188.49H227.49L227.79 1764.2C228.09 1797 228.09 1797.6 230.39 1801.2C231.69 1803.2 234.39 1805.9 236.39 1807.2L240.09 1809.5H335.59H431.09L434.79 1807.2C436.79 1805.9 439.49 1803.2 440.79 1801.2L443.09 1797.5L443.39 1707.2L443.59 1617H480.59H517.59V1748.5ZM840.79 1707.2L841.09 1797.5L843.39 1801.2C844.69 1803.2 847.39 1805.9 849.39 1807.2L853.09 1809.5H949.09H1045.09L1048.79 1807.2C1050.79 1805.9 1053.49 1803.2 1054.79 1801.2C1057.09 1797.5 1057.09 1797.1 1057.39 1760.2L1057.69 1723H1126.69H1195.59L1195.39 1818.7L1195.09 1914.5L1147.09 1915C1099.19 1915.5 1099.09 1915.5 1095.39 1917.8C1093.39 1919.1 1090.69 1921.8 1089.39 1923.8C1087.09 1927.4 1087.09 1928 1086.79 1960.7L1086.49 1994H966.59H846.59L846.39 1903.7L846.09 1813.5L843.79 1809.8C842.49 1807.8 839.79 1805.1 837.79 1803.8L834.09 1801.5H738.09H642.09L638.39 1803.8C636.39 1805.1 633.69 1807.8 632.39 1809.8C630.09 1813.4 630.09 1814 629.79 1846.7L629.49 1880H590.99H552.59V1748.5V1617H696.59H840.59L840.79 1707.2ZM1483.19 1838.6C1492.49 1845.7 1505.69 1845.7 1514.99 1838.6L1518.49 1836H1556.99H1595.59V1932.5V2028.9L1545.39 2029.2L1495.09 2029.5L1491.39 2031.8C1489.39 2033.1 1486.69 2035.8 1485.39 2037.8L1483.09 2041.5L1482.59 2141.5L1482.09 2241.5L1017.39 2241.8L552.59 2242V2192.5V2143L590.89 2143.2L629.09 2143.5L629.59 2176C630.09 2207.7 630.19 2208.6 632.39 2212.2C633.69 2214.2 636.39 2216.9 638.39 2218.2L642.09 2220.5H738.09H834.09L837.79 2218.2C839.79 2216.9 842.49 2214.2 843.79 2212.2L846.09 2208.5L846.39 2118.8L846.59 2029L977.89 2028.8L1109.09 2028.5L1112.79 2026.2C1114.79 2024.9 1117.49 2022.2 1118.79 2020.2C1121.09 2016.6 1121.09 2016 1121.39 1983.2L1121.69 1950L1158.39 1950.2L1195.09 1950.5L1195.59 1983.5C1196.09 2015.8 1196.19 2016.6 1198.39 2020.2C1199.69 2022.2 1202.39 2024.9 1204.39 2026.2L1208.09 2028.5H1303.59H1399.09L1402.79 2026.2C1404.79 2024.9 1407.49 2022.2 1408.79 2020.2L1411.09 2016.5L1411.39 1926.2L1411.59 1836H1445.69H1479.69L1483.19 1838.6ZM629.39 2011.2L629.09 2107.5L590.89 2107.8L552.59 2108V2011.5V1915H591.09H629.59L629.39 2011.2Z" fill="#2E6C77"/>
<path d="M11.8904 2030.1C7.29041 2031.4 1.89041 2037.2 0.59041 2042.1C-1.40959 2049.4 1.79041 2057.1 8.39041 2061.2L12.0904 2063.5L164.79 2063.8L317.59 2064L317.79 2190.8L318.09 2317.5L320.39 2321.2C321.69 2323.2 324.39 2325.9 326.39 2327.2L330.09 2329.5H1124.59H1919.09L1922.79 2327.2C1933.89 2320.3 1933.89 2304.7 1922.79 2297.8L1919.09 2295.5L1135.89 2295.2L352.59 2295L352.39 2168.2L352.09 2041.5L349.79 2037.8C348.49 2035.8 345.79 2033.1 343.79 2031.8L340.09 2029.5L177.59 2029.3C78.2904 2029.2 13.7904 2029.5 11.8904 2030.1Z" fill="#2E6C77"/>
</svg>
