<svg width="19" height="19" viewBox="0 0 19 19" fill="none" xmlns="http://www.w3.org/2000/svg">
<path fill-rule="evenodd" clip-rule="evenodd" d="M0 9.5V19H9.5H19V9.5V0H9.5H0V9.5ZM10.2793 4.65719C10.8031 4.72354 11.2832 4.8571 11.6185 5.02969C12.028 5.24055 12.5885 5.72156 12.8275 6.06738C12.9626 6.26273 13.167 6.68934 13.2648 6.97961C13.3598 7.26171 13.4707 7.95736 13.4707 8.27112C13.4707 8.5097 13.3976 9.04274 13.3369 9.24721C13.3084 9.34288 13.2852 9.44055 13.2852 9.46426C13.2852 9.48794 13.2624 9.55997 13.2345 9.62428C13.2067 9.68859 13.1533 9.81636 13.116 9.9082C12.9234 10.3815 12.4974 10.902 12.0155 11.253C11.8974 11.339 11.8008 11.4231 11.8008 11.44C11.8008 11.4568 11.901 11.6038 12.0234 11.7666C12.1459 11.9295 12.2461 12.0775 12.2461 12.0957C12.2461 12.1138 12.2603 12.1341 12.2777 12.141C12.306 12.152 12.7275 12.719 12.8213 12.8721C12.8417 12.9053 12.8669 12.941 12.8772 12.9512C12.8876 12.9614 12.9867 13.095 13.0975 13.248C13.2083 13.4011 13.4298 13.7069 13.5897 13.9276C13.7496 14.1482 13.8708 14.3444 13.8589 14.3636C13.8238 14.4205 10.6926 14.4092 10.6375 14.3521C10.6129 14.3266 10.4318 14.0802 10.2351 13.8047C9.85217 13.2684 9.59997 12.9231 9.53822 12.8507C9.51718 12.826 9.5 12.7956 9.5 12.7831C9.5 12.7706 9.47914 12.7377 9.45361 12.71C9.42812 12.6824 9.29245 12.4998 9.15214 12.3045L8.89705 11.9492H8.34553H7.79397L7.78421 13.1646L7.77441 14.3799H6.43848H5.10254L5.093 9.53711C5.08773 6.87358 5.09141 4.67348 5.10109 4.64795C5.1287 4.57544 9.69831 4.58356 10.2793 4.65719ZM7.83936 7.33511C7.80399 7.3494 7.79297 7.5735 7.79297 8.27847V9.20312H8.93163C10.0116 9.20312 10.0786 9.19912 10.2308 9.12542C10.3192 9.08267 10.4477 8.97832 10.5166 8.89348C10.7629 8.59026 10.7662 8.01896 10.5234 7.70068C10.2614 7.35716 10.0542 7.30969 8.83352 7.31348C8.31224 7.31507 7.86489 7.32483 7.83936 7.33511Z" fill="white"/>
</svg>
