<svg width="23" height="23" viewBox="0 0 23 23" fill="none" xmlns="http://www.w3.org/2000/svg">
<path fill-rule="evenodd" clip-rule="evenodd" d="M0 11.5V23H11.5H23V11.5V0H11.5H0V11.5ZM12.4434 5.63765C13.0774 5.71797 13.6586 5.87964 14.0645 6.08858C14.5602 6.34382 15.2387 6.9261 15.5281 7.34473C15.6915 7.5812 15.939 8.09762 16.0574 8.449C16.1724 8.79049 16.3066 9.6326 16.3066 10.0124C16.3066 10.3012 16.2181 10.9465 16.1446 11.194C16.1102 11.3098 16.082 11.428 16.082 11.4567C16.082 11.4854 16.0544 11.5726 16.0208 11.6504C15.9871 11.7283 15.9225 11.883 15.8772 11.9941C15.6441 12.5671 15.1285 13.1972 14.545 13.6221C14.4021 13.7261 14.2852 13.828 14.2852 13.8484C14.2852 13.8688 14.4064 14.0467 14.5547 14.2438C14.7029 14.441 14.8242 14.6202 14.8242 14.6421C14.8242 14.664 14.8415 14.6887 14.8625 14.697C14.8967 14.7103 15.407 15.3967 15.5205 15.582C15.5452 15.6223 15.5757 15.6654 15.5882 15.6777C15.6007 15.6901 15.7207 15.8518 15.8549 16.0371C15.989 16.2224 16.2571 16.5926 16.4507 16.8597C16.6443 17.1268 16.7909 17.3643 16.7766 17.3875C16.7341 17.4564 12.9437 17.4428 12.8769 17.3735C12.8472 17.3427 12.628 17.0445 12.3899 16.7109C11.9263 16.0617 11.621 15.6437 11.5463 15.5561C11.5208 15.5263 11.5 15.4894 11.5 15.4743C11.5 15.4591 11.4748 15.4193 11.4438 15.3858C11.413 15.3523 11.2488 15.1314 11.0789 14.8949L10.7701 14.4648H10.1025H9.43481L9.42299 15.936L9.41113 17.4072H7.79395H6.17676L6.16521 11.5449C6.15883 8.32065 6.16328 5.65737 6.17501 5.62646C6.20843 5.53869 11.7401 5.54853 12.4434 5.63765ZM9.48975 8.87935C9.44694 8.89664 9.43359 9.16793 9.43359 10.0213V11.1406H10.812C12.1192 11.1406 12.2004 11.1358 12.3847 11.0466C12.4916 10.9948 12.6473 10.8685 12.7307 10.7658C13.0288 10.3987 13.0327 9.70717 12.7389 9.32187C12.4217 8.90603 12.1709 8.84858 10.6932 8.85316C10.0622 8.85509 9.52065 8.8669 9.48975 8.87935Z" fill="#2E6C77"/>
</svg>
