<svg width="20" height="34" viewBox="0 0 20 34" fill="none" xmlns="http://www.w3.org/2000/svg">
<path d="M0.836979 15.125L15.5522 0.752454C15.7939 0.514027 16.0814 0.324783 16.3982 0.195637C16.7151 0.0664912 17.0549 0 17.3981 0C17.7413 0 18.0811 0.0664912 18.3979 0.195637C18.7147 0.324783 19.0023 0.514027 19.244 0.752454C19.7282 1.22907 20 1.8738 20 2.54584C20 3.21787 19.7282 3.86261 19.244 4.33922L6.37468 17.0583L19.244 29.6501C19.7282 30.1267 20 30.7714 20 31.4435C20 32.1155 19.7282 32.7602 19.244 33.2369C19.0032 33.4772 18.7161 33.6684 18.3992 33.7994C18.0823 33.9304 17.7421 33.9986 17.3981 34C17.0541 33.9986 16.7138 33.9304 16.397 33.7994C16.0801 33.6684 15.793 33.4772 15.5522 33.2369L0.836979 18.8644C0.57308 18.6261 0.362471 18.337 0.218418 18.0152C0.0743675 17.6935 0 17.346 0 16.9947C0 16.6434 0.0743675 16.2959 0.218418 15.9741C0.362471 15.6523 0.57308 15.3632 0.836979 15.125Z" fill="#2E6C77"/>
</svg>
