<svg width="23" height="23" viewBox="0 0 23 23" fill="none" xmlns="http://www.w3.org/2000/svg">
<path d="M15.0339 0H7.97812C1.53331 0 0 1.53331 0 7.96612V15.0219C0 21.4666 1.52138 23 7.96612 23H15.0219C21.4667 23 23 21.4786 23 15.0338V7.97813C23 1.53331 21.4786 0 15.0339 0ZM18.5677 16.4114H16.8906C16.2558 16.4114 16.0641 15.8963 14.9261 14.7583C13.9317 13.8 13.5125 13.6802 13.2609 13.6802C12.9136 13.6802 12.8177 13.776 12.8177 14.2552V15.7646C12.8177 16.1719 12.6859 16.4114 11.6198 16.4114C10.5853 16.3419 9.58202 16.0276 8.69271 15.4945C7.80341 14.9613 7.05348 14.2245 6.50469 13.3447C5.20186 11.7231 4.29537 9.81992 3.85732 7.78643C3.85732 7.53487 3.95312 7.30725 4.43232 7.30725H6.10938C6.54062 7.30725 6.69638 7.49893 6.86406 7.94219C7.67862 10.338 9.06826 12.4224 9.63125 12.4224C9.84687 12.4224 9.94268 12.3266 9.94268 11.7875V9.31975C9.87081 8.19375 9.27187 8.09787 9.27187 7.69063C9.27976 7.58318 9.32921 7.48304 9.40973 7.41146C9.49025 7.33988 9.59549 7.3025 9.70312 7.30725H12.3386C12.6979 7.30725 12.8177 7.48694 12.8177 7.91819V11.2484C12.8177 11.6078 12.9734 11.7276 13.0813 11.7276C13.2969 11.7276 13.4646 11.6078 13.8599 11.2125C14.7094 10.1766 15.4035 9.02242 15.9203 7.78643C15.9731 7.63771 16.0731 7.51035 16.205 7.42382C16.337 7.33729 16.4936 7.29635 16.6511 7.30725H18.3281C18.8313 7.30725 18.9391 7.55881 18.8312 7.91819C18.221 9.28475 17.466 10.5819 16.5792 11.7875C16.3995 12.063 16.3276 12.2067 16.5792 12.5302C16.7469 12.7817 17.3339 13.2729 17.7292 13.7401C18.3042 14.3136 18.7816 14.9772 19.1427 15.7047C19.2864 16.1719 19.0469 16.4114 18.5677 16.4114Z" fill="#2E6C77"/>
</svg>
