<svg width="19" height="19" viewBox="0 0 19 19" fill="none" xmlns="http://www.w3.org/2000/svg">
<path d="M12.4193 0H6.59062C1.26664 0 0 1.26664 0 6.58071V12.4094C0 17.7333 1.25679 19 6.58071 19H12.4094C17.7334 19 19 17.7432 19 12.4192V6.59062C19 1.26664 17.7432 0 12.4193 0ZM15.3385 13.5573H13.9531C13.4287 13.5573 13.2703 13.1317 12.3302 12.1916C11.5088 11.4 11.1625 11.301 10.9547 11.301C10.6677 11.301 10.5885 11.3802 10.5885 11.776V13.0229C10.5885 13.3594 10.4797 13.5573 9.59898 13.5573C8.74435 13.4998 7.91558 13.2402 7.18094 12.7998C6.44629 12.3593 5.82679 11.7507 5.37344 11.0239C4.29719 9.68434 3.54835 8.11211 3.18648 6.43227C3.18648 6.22446 3.26562 6.03642 3.66148 6.03642H5.04688C5.40312 6.03642 5.53179 6.19477 5.67031 6.56094C6.34321 8.54008 7.49117 10.262 7.95625 10.262C8.13437 10.262 8.21352 10.1828 8.21352 9.7375V7.69892C8.15414 6.76875 7.65937 6.68955 7.65937 6.35313C7.66589 6.26437 7.70674 6.18164 7.77326 6.12251C7.83977 6.06338 7.92671 6.0325 8.01562 6.03642H10.1927C10.4896 6.03642 10.5885 6.18486 10.5885 6.54111V9.29219C10.5885 9.58906 10.7172 9.68799 10.8062 9.68799C10.9844 9.68799 11.1229 9.58906 11.4495 9.2625C12.1512 8.40672 12.7246 7.45331 13.1516 6.43227C13.1951 6.30941 13.2777 6.2042 13.3868 6.13272C13.4958 6.06124 13.6252 6.02742 13.7552 6.03642H15.1406C15.5562 6.03642 15.6453 6.24424 15.5562 6.54111C15.0521 7.67001 14.4285 8.7416 13.6959 9.7375C13.5474 9.96508 13.488 10.0838 13.6959 10.351C13.8344 10.5588 14.3193 10.9645 14.6459 11.3505C15.1208 11.8243 15.5153 12.3725 15.8135 12.9734C15.9323 13.3594 15.7344 13.5573 15.3385 13.5573Z" fill="white"/>
</svg>
