<svg width="35" height="23" viewBox="0 0 35 23" fill="none" xmlns="http://www.w3.org/2000/svg">
<path d="M34.2839 8.10592C34.3593 5.9777 33.8824 3.86541 32.8974 1.96517C32.2291 1.18545 31.3017 0.659266 30.2767 0.4783C26.0372 0.102904 21.7801 -0.0509587 17.5237 0.0173715C13.2828 -0.0540601 9.04103 0.0948374 4.81637 0.463432C3.98113 0.611697 3.20817 0.994008 2.59182 1.56371C1.22053 2.79781 1.06816 4.90916 0.915798 6.6934C0.694734 9.90141 0.694734 13.1203 0.915798 16.3283C0.959878 17.3325 1.1131 18.3294 1.3729 19.302C1.55661 20.053 1.9283 20.7478 2.45469 21.3242C3.07523 21.924 3.86619 22.3281 4.72495 22.4839C8.00983 22.8796 11.3197 23.0436 14.6287 22.9746C19.9615 23.0489 24.6392 22.9746 30.1701 22.5583C31.0499 22.412 31.8631 22.0074 32.5013 21.3985C32.9278 20.9821 33.2465 20.4723 33.4307 19.9116C33.9756 18.28 34.2432 16.5723 34.223 14.8563C34.2839 14.0236 34.2839 8.99804 34.2839 8.10592ZM14.0802 15.7484V6.54471L23.1003 11.1689C20.571 12.5368 17.2342 14.0831 14.0802 15.7484Z" fill="#2E6C77"/>
</svg>
