<svg width="431" height="342" viewBox="0 0 431 342" fill="none" xmlns="http://www.w3.org/2000/svg">
<path fill-rule="evenodd" clip-rule="evenodd" d="M328.715 28.1255C340.252 16.1544 350.73 4.86118 353.484 1.43092C354.868 -0.293915 355.295 -0.389774 356.431 0.769933C356.882 1.23169 362.845 7.4594 369.681 14.6106C376.516 21.7618 388.212 33.8601 395.671 41.4963C418.201 64.5582 429.911 76.6559 430.822 77.8093C431.642 78.8462 430.477 78.9014 408.451 78.8744C395.672 78.8588 384.826 78.8519 384.35 78.86C383.616 78.8726 383.546 84.3108 383.887 114.743C384.434 163.474 384.509 216.969 384.037 220.784C383.824 222.506 383.519 225.044 383.36 226.422C382.714 232.015 379.117 245.898 378.012 247.066C377.702 247.394 377.448 248.028 377.448 248.474C377.448 248.922 376.609 251.077 375.584 253.265C374.559 255.453 373.72 257.434 373.72 257.666C373.72 257.899 372.974 259.281 372.062 260.738C363.874 273.827 359.249 279.699 352.111 286.068C349.485 288.411 346.771 290.855 346.08 291.5C343.677 293.74 335.264 299.101 330.221 301.606C322.05 305.663 316.622 307.522 305.364 310.118C296.32 312.204 279.555 312.33 270.254 310.384C262.399 308.74 258.468 307.566 251.922 304.911C249.359 303.871 246.876 302.87 246.405 302.685C245.686 302.403 245.609 304.653 245.922 316.702C246.127 324.595 246.303 333.308 246.312 336.065V341.391H189.693L189.357 322.438C189.171 312.014 188.948 303.405 188.86 303.306C188.771 303.206 187.893 303.457 186.909 303.863C182.869 305.53 181.286 306.155 179.216 306.901C178.02 307.332 176.482 307.916 175.799 308.199C174.708 308.651 170.827 309.647 170.827 309.476C170.827 309.441 169.429 309.814 167.72 310.305C165.023 311.08 162.915 311.481 157.156 312.313C154.956 312.632 138.606 312.569 135.717 312.231C125.854 311.078 113.648 307.423 104.957 303.019C98.4415 299.718 97.5858 299.239 93.3372 296.503C84.8008 291.008 67.3931 273.796 67.3676 270.826C67.3639 270.437 66.9475 269.773 66.4423 269.35C65.4816 268.546 59.9044 259.479 59.9044 258.721C59.9044 258.481 59.0791 256.748 58.0706 254.87C54.0481 247.383 49.7983 231.584 49.0694 221.41C48.259 210.099 48.1521 203.786 47.7575 143.72C47.5307 109.261 47.261 80.9764 47.1585 80.8649C46.8857 80.5704 4.65795 80.7528 2.28539 81.0585C1.18361 81.2007 0.159519 81.1162 0.00913602 80.8712C-0.140625 80.6262 1.56889 78.4553 3.80848 76.0475C11.8682 67.3814 19.1923 59.6218 26.896 51.5853C36.4844 41.5827 54.8336 22.1941 63.9212 12.4622C67.6218 8.49944 71.5603 4.30294 72.6732 3.13634L74.6966 1.01491L78.0199 4.69264C81.4663 8.50633 144.541 72.7394 149.275 77.2548L151.957 79.8142L127.836 80.1275L103.714 80.4408L103.67 99.4252C103.645 109.867 103.79 118.512 103.991 118.638C104.192 118.763 105.75 118.224 107.453 117.44C110.18 116.185 114.167 114.738 120.537 112.693C121.586 112.356 123.038 112.081 123.762 112.081C124.487 112.081 125.23 111.836 125.413 111.537C126.674 109.48 152.691 108.487 160.885 110.183C173.36 112.765 181.228 115.26 186.911 118.433C188.051 119.07 188.074 118.113 187.843 79.7146L187.605 40.3428L215.725 40.1417L243.844 39.9406L243.847 47.9733C243.85 57.6269 244.601 117.982 244.719 118.151C244.765 118.216 245.776 117.833 246.964 117.3C248.153 116.766 249.825 116.045 250.679 115.696C251.534 115.346 252.995 114.66 253.926 114.171C254.858 113.681 255.773 113.314 255.961 113.355C256.148 113.396 258.21 112.833 260.542 112.106C269.366 109.352 278.192 108.305 289.829 108.631C303.433 109.011 313.062 111.198 324.466 116.496C325.915 117.169 327.394 117.719 327.754 117.719C328.202 117.719 328.351 111.639 328.227 98.4535L328.046 79.1877L303.81 79.4076L279.575 79.6275L282.372 76.6459C283.91 75.0056 286.566 72.2069 288.275 70.4263C289.984 68.6457 297.948 60.3028 305.973 51.886C313.998 43.4698 324.231 32.7775 328.715 28.1255ZM315.836 178.493C308.981 172.336 302.796 168.996 295.111 167.302C288.947 165.944 283.054 166.037 277.4 167.582C274.08 168.49 273.28 168.795 268.7 170.894C261.468 174.211 253.259 182.591 249.599 190.397C246.03 198.007 245.403 201.118 245.491 210.759C245.579 220.446 246.361 223.61 250.647 231.634C252.77 235.607 259.651 243.307 263.746 246.291C267.813 249.255 275.082 252.282 280.046 253.077C288.652 254.456 298.991 252.995 305.448 249.487C312.808 245.488 320.11 237.963 324.182 230.181C327.705 223.447 328.671 219.012 328.617 209.819C328.563 200.639 327.8 197.331 323.932 189.519C322.227 186.076 318.253 180.664 315.836 178.493ZM164.939 171.682C164.125 171.209 161.481 170.137 159.064 169.297C154.257 167.628 144.579 166.893 139.446 167.807C132.864 168.979 127.07 171.536 121.802 175.59C120.198 176.824 118.52 178.053 118.074 178.32C117.628 178.587 115.733 180.813 113.864 183.266C105.854 193.776 103.05 204.781 105.034 217.915C106.719 229.065 111.911 238.081 120.703 245.123C124.691 248.317 130.19 251.681 132.034 252.054C132.522 252.153 133.34 252.396 133.853 252.593C140.36 255.1 153.076 255.042 159.642 252.474C170.115 248.377 178.828 240.749 183.574 231.519C187.432 224.016 188.165 220.827 188.197 211.386C188.22 204.57 187.972 201.776 187.08 198.855C186.033 195.42 183.096 188.646 182.328 187.891C182.153 187.718 181.247 186.443 180.315 185.057C177.455 180.801 171.029 175.211 164.939 171.682Z" fill="white" fill-opacity="0.2"/>
</svg>
